<?xml version="1.0" encoding="UTF-8" standalone="no" ?>
<!DOCTYPE svg PUBLIC "-//W3C//DTD SVG 1.1//EN" "http://www.w3.org/Graphics/SVG/1.1/DTD/svg11.dtd">
<svg xmlns="http://www.w3.org/2000/svg" xmlns:xlink="http://www.w3.org/1999/xlink" version="1.1" width="640" height="640" viewBox="0 0 640 640" xml:space="preserve">
<desc>Created with Fabric.js 4.6.0</desc>
<defs>
</defs>
<g transform="matrix(0.78 0 0 0.67 288.91 259.51)" id="xPrTWn6lb0V553N0tfArZ"  >
<path style="stroke: rgb(0,0,0); stroke-width: 0; stroke-dasharray: none; stroke-linecap: butt; stroke-dashoffset: 0; stroke-linejoin: miter; stroke-miterlimit: 4; fill: rgb(42,48,51); fill-rule: nonzero; opacity: 1;" vector-effect="non-scaling-stroke"  transform=" translate(0, 0)" d="M -78.34235 2.34544 L -71.13228 15.39725 L -56.70895999999999 26.310940000000002 L -63.75344999999999 45.9851 L -48.827609999999986 56.2867 L -48.827609999999986 75.04966 L -36.55534999999999 75.04966 L -45.13789999999999 93.55648000000001 L -16.675379999999986 98.32123000000001 L -22.925499999999985 113.34518000000001 L -3.7119699999999867 132.33138000000002 L 25.940330000000014 140.89488000000003 L 78.34235000000001 -71.37473999999997 L -6.922549999999987 -72.49177999999998 L 1.9710700000000134 -124.96959999999999 L -24.845779999999984 -140.89488 z" stroke-linecap="round" />
</g>
<g transform="matrix(0.61 0 0 0.61 371.11 281.43)" id="WotVx_dDE3Yq3nsC8xQRn"  >
<path style="stroke: rgb(0,0,0); stroke-width: 0; stroke-dasharray: none; stroke-linecap: butt; stroke-dashoffset: 0; stroke-linejoin: miter; stroke-miterlimit: 4; fill: rgb(42,48,51); fill-opacity: 0.7; fill-rule: nonzero; opacity: 1;" vector-effect="non-scaling-stroke"  transform=" translate(0, 0)" d="M -34.96981 -115.9532 L -102.37244000000001 119.10622 L -77.72770000000001 115.55475999999999 L -64.36960000000002 107.26207999999998 L -54.51565000000002 94.44939999999998 L -37.70181000000002 98.92323999999998 L -27.257890000000025 85.63797999999998 L -3.704390000000025 82.92648999999999 L -3.704390000000025 66.98980999999999 L 21.756209999999975 66.98980999999999 L 31.591389999999976 59.33519999999999 L 45.14735999999998 59.33519999999999 L 45.14735999999998 38.71272999999999 L 58.95185999999998 42.75126999999999 L 76.99276999999998 31.58059999999999 L 82.10817999999998 19.79369999999999 L 93.51750999999997 19.79369999999999 L 102.37243999999997 7.954029999999991 L 94.90035999999996 -119.10620000000002 L 32.56102999999997 -102.40652000000001 L -31.07607000000003 -118.59452000000002 z" stroke-linecap="round" />
</g>
<g transform="matrix(1 0 0 1 316.88 202.98)" id="G4TzLRgZpk2f0fwADhBlT"  >
<path style="stroke: rgb(0,0,0); stroke-width: 0; stroke-dasharray: none; stroke-linecap: butt; stroke-dashoffset: 0; stroke-linejoin: miter; stroke-miterlimit: 4; fill: rgb(42,48,51); fill-opacity: 0.9; fill-rule: nonzero; opacity: 1;" vector-effect="non-scaling-stroke"  transform=" translate(0, 0)" d="M 34.38723 -9.29649 L 32.91604 9.29648 L -34.387229999999995 8.35495 L 3.1156100000000038 -7.0215499999999995 z" stroke-linecap="round" />
</g>
<g transform="matrix(1 0 0 1 301.04 193.68)" id="ZQQatDUgojUvu9Unwk04G"  >
<path style="stroke: rgb(0,0,0); stroke-width: 0; stroke-dasharray: none; stroke-linecap: butt; stroke-dashoffset: 0; stroke-linejoin: miter; stroke-miterlimit: 4; fill: rgb(42,48,51); fill-opacity: 0.7; fill-rule: nonzero; opacity: 1;" vector-effect="non-scaling-stroke"  transform=" translate(0, 0)" d="M -18.96014 17.96977 L 18.960130000000003 2.447610000000001 L 10.319580000000004 -16.286739999999998 L -10.796039999999996 -17.969769999999997" stroke-linecap="round" />
</g>
<g transform="matrix(1 0 0 1 406.69 206.49)" id="iXqZYQNzFWcScaL0vvtox"  >
<path style="stroke: rgb(0,0,0); stroke-width: 0; stroke-dasharray: none; stroke-linecap: butt; stroke-dashoffset: 0; stroke-linejoin: miter; stroke-miterlimit: 4; fill: rgb(42,48,51); fill-opacity: 0.9; fill-rule: nonzero; opacity: 1;" vector-effect="non-scaling-stroke"  transform=" translate(0, 0)" d="M 22.23498 2.38464 L -15.742640000000002 12.55679 L -22.23497 -12.55678 z" stroke-linecap="round" />
</g>
<g transform="matrix(1 0 0 1 290.45 171.21)" id="tHoqEOCoAoCQjnaisozjr"  >
<path style="stroke: rgb(0,0,0); stroke-width: 0; stroke-dasharray: none; stroke-linecap: butt; stroke-dashoffset: 0; stroke-linejoin: miter; stroke-miterlimit: 4; fill: rgb(42,48,51); fill-opacity: 0.8; fill-rule: nonzero; opacity: 1;" vector-effect="non-scaling-stroke"  transform=" translate(0, 0)" d="M -0.51717 4.49806 L -0.51717 4.49806 L 20.91029 6.18108 L 9.48936 -6.181090000000001 L -20.91028 -6.034890000000001 z" stroke-linecap="round" />
</g>
<g transform="matrix(1 0 0 1 371.11 206.36)" id="f4Y0PySCmosgPJIVgkzdQ"  >
<path style="stroke: rgb(0,0,0); stroke-width: 0; stroke-dasharray: none; stroke-linecap: butt; stroke-dashoffset: 0; stroke-linejoin: miter; stroke-miterlimit: 4; fill: rgb(42,48,51); fill-opacity: 0.8; fill-rule: nonzero; opacity: 1;" vector-effect="non-scaling-stroke"  transform=" translate(0, 0)" d="M -19.83644 -12.68289 L 13.352369999999997 -12.446390000000001 L 19.836439999999996 12.68289 L -19.336450000000006 2.7472399999999997 z" stroke-linecap="round" />
</g>
<g transform="matrix(1 0 0 1 350.81 203.62)" id="JgRWpq_AV2vpC660IW1ff"  >
<path style="stroke: rgb(0,0,0); stroke-width: 0; stroke-dasharray: none; stroke-linecap: butt; stroke-dashoffset: 0; stroke-linejoin: miter; stroke-miterlimit: 4; fill: rgb(42,48,51); fill-rule: nonzero; opacity: 1;" vector-effect="non-scaling-stroke"  transform=" translate(0, 0)" d="M 0.46171 -9.94261 L 0.22762000000000002 -9.41769 L -1.5629 9.942599999999999 L 1.56291 5.1178599999999985" stroke-linecap="round" />
</g>
</svg>