<?xml version="1.0" encoding="UTF-8" standalone="no" ?>
<!DOCTYPE svg PUBLIC "-//W3C//DTD SVG 1.1//EN" "http://www.w3.org/Graphics/SVG/1.1/DTD/svg11.dtd">
<svg xmlns="http://www.w3.org/2000/svg" xmlns:xlink="http://www.w3.org/1999/xlink" version="1.1" width="640" height="640" viewBox="0 0 640 640" xml:space="preserve">
<desc>Created with Fabric.js 4.6.0</desc>
<defs>
</defs>
<g transform="matrix(1 0 0 1 315.44 475.71)" id="d-Ai8ZWfZuNepshhnOQvx"  >
<path style="stroke: rgb(0,0,0); stroke-width: 0; stroke-dasharray: none; stroke-linecap: butt; stroke-dashoffset: 0; stroke-linejoin: miter; stroke-miterlimit: 4; fill: rgb(47,22,0); fill-rule: nonzero; opacity: 1;" vector-effect="non-scaling-stroke"  transform=" translate(0, 0)" d="M -59.59096 -159.68532 C -43.057050000000004 -79.08251999999999 -59.59096 87.28319000000002 -59.59096 87.28319000000002 C -59.59096 87.28319000000002 -51.32585 89.48701000000001 -21.530370000000005 108.64348000000001 C -11.847110000000004 114.86916000000001 -0.7605800000000045 126.36835 10.969909999999992 134.35371 C 35.334239999999994 150.93938 59.59095999999999 163.90904 59.59095999999999 163.90904 C 59.59095999999999 163.90904 12.642219999999988 -46.071650000000005 16.86594999999999 -159.68532 C 9.55121999999999 -157.91437 31.34552999999999 -170.01900999999998 -59.59096 -159.68532 z" stroke-linecap="round" />
</g>
<g transform="matrix(1 0 0 1.07 301.88 229.89)" id="3NuLSuFi9ANrUvEyVtj66"  >
<path style="stroke: rgb(0,0,0); stroke-width: 0; stroke-dasharray: none; stroke-linecap: butt; stroke-dashoffset: 0; stroke-linejoin: miter; stroke-miterlimit: 4; fill: rgb(6,67,22); fill-rule: nonzero; opacity: 1;" vector-effect="non-scaling-stroke"  transform=" translate(0, 0)" d="M 246.53846 135.48205 C 153.23113 236.6119 -167.11539 216.87302 -240.38462000000004 156.71828 C -150.57693000000006 136.10343999999998 -106.22837000000004 102.56988999999999 -75.45914000000005 68.83864999999999 C -141.61299000000005 78.96074999999999 -211.73077000000004 74.52167999999999 -246.53846000000004 45.11112999999999 C -181.34615000000002 22.88964999999999 -93.03957000000005 -12.189260000000012 -66.53846000000004 -57.87586000000002 C -113.11427000000003 -48.206600000000016 -166.49849000000006 -39.63871000000002 -208.99554000000003 -57.87586000000002 C -107.64644000000003 -95.52350000000001 -36.564010000000025 -168.00046000000003 -7.295890000000043 -206.5832 C 26.587609999999955 -171.11849 119.19562999999995 -99.10044 211.15384999999995 -61.74388000000002 C 162.34283999999994 -45.235630000000015 121.69084999999995 -50.80097000000002 58.229319999999944 -65.78384000000001 C 113.22931999999994 -4.562540000000013 169.23077999999992 2.7290399999999835 241.92307999999994 31.45188999999999 C 198.46153999999996 47.95331999999999 148.03700999999995 69.64929 62.84469999999993 57.73446999999999 C 116.88315999999993 97.58096999999998 149.07655999999992 110.55636999999999 246.53845999999993 135.48203999999998 z" stroke-linecap="round" />
</g>
</svg>