<?xml version="1.0" encoding="UTF-8" standalone="no" ?>
<!DOCTYPE svg PUBLIC "-//W3C//DTD SVG 1.1//EN" "http://www.w3.org/Graphics/SVG/1.1/DTD/svg11.dtd">
<svg xmlns="http://www.w3.org/2000/svg" xmlns:xlink="http://www.w3.org/1999/xlink" version="1.1" width="640" height="640" viewBox="0 0 640 640" xml:space="preserve">
<desc>Created with Fabric.js 5.3.0</desc>
<defs>
</defs>
<g transform="matrix(0.9927351126 0 0 0.9927351126 260.1994270025 472.2396251423)" id="Gm76AWeDovlHWlr5BSS1r"  >
<path style="stroke: rgb(0,0,0); stroke-width: 0; stroke-dasharray: none; stroke-linecap: butt; stroke-dashoffset: 0; stroke-linejoin: miter; stroke-miterlimit: 4; fill: rgb(47,22,0); fill-rule: nonzero; opacity: 1;" vector-effect="non-scaling-stroke"  transform=" translate(0, 0)" d="M -60.00389 -163.81752 C -43.46998 -83.21472 -54.60873 122.71548999999999 -54.60873 122.71548999999999 C 12.053670000000004 129.88024 -0.6593599999999995 168.58096999999998 60.003899999999994 168.03552 C 60.003899999999994 168.03552 12.229289999999992 -50.20385000000002 16.453019999999995 -163.81752000000003 C 9.138289999999994 -162.04657000000003 30.932599999999994 -174.15121000000002 -60.00389 -163.81752000000003 z" stroke-linecap="round" />
</g>
<g transform="matrix(0.9927351126 0 0 1.0622265705 247.5219382313 221.7154254671)" id="DU84eMBudoCSvv_g9zU_9"  >
<linearGradient id="SVGID_1" gradientUnits="userSpaceOnUse" gradientTransform="matrix(1 0 0 1 -246.53846 -206.5832)"  x1="157.99298076660395" y1="206.58319524980536" x2="493.07692000000003" y2="206.58319524980536">
<stop offset="0%" style="stop-color:#064316;stop-opacity: 1"/>
<stop offset="100%" style="stop-color:#048927;stop-opacity: 1"/>
</linearGradient>
<path style="stroke: rgb(0,0,0); stroke-width: 0; stroke-dasharray: none; stroke-linecap: butt; stroke-dashoffset: 0; stroke-linejoin: miter; stroke-miterlimit: 4; fill: url(#SVGID_1); fill-rule: nonzero; opacity: 1;" vector-effect="non-scaling-stroke"  transform=" translate(0, 0.0000047502)" d="M 246.53846 135.48205 C 153.23113 236.6119 -167.11539 216.87302 -240.38462000000004 156.71828 C -150.57693000000006 136.10343999999998 -106.22837000000004 102.56988999999999 -75.45914000000005 68.83864999999999 C -141.61299000000005 78.96074999999999 -211.73077000000004 74.52167999999999 -246.53846000000004 45.11112999999999 C -181.34615000000002 22.88964999999999 -93.03957000000005 -12.189260000000012 -66.53846000000004 -57.87586000000002 C -113.11427000000003 -48.206600000000016 -166.49849000000006 -39.63871000000002 -208.99554000000003 -57.87586000000002 C -107.64644000000003 -95.52350000000001 -36.564010000000025 -168.00046000000003 -7.295890000000043 -206.5832 C 26.587609999999955 -171.11849 119.19562999999995 -99.10044 211.15384999999995 -61.74388000000002 C 162.34283999999994 -45.235630000000015 121.69084999999995 -50.80097000000002 58.229319999999944 -65.78384000000001 C 113.22931999999994 -4.562540000000013 169.23077999999992 2.7290399999999835 241.92307999999994 31.45188999999999 C 198.46153999999996 47.95331999999999 148.03700999999995 69.64929 62.84469999999993 57.73446999999999 C 116.88315999999993 97.58096999999998 149.07655999999992 110.55636999999999 246.53845999999993 135.48203999999998 z" stroke-linecap="round" />
</g>
<g transform="matrix(1.9102938534 0 0 1.9102938534 248.6783538271 80.081596032)" id="FUR8krAWkGcfMvU-nUobQ"  >
<path style="stroke: rgb(255,255,255); stroke-width: 2; stroke-dasharray: none; stroke-linecap: butt; stroke-dashoffset: 0; stroke-linejoin: miter; stroke-miterlimit: 4; fill: rgb(255,255,255); fill-opacity: 0; fill-rule: nonzero; opacity: 1;" vector-effect="non-scaling-stroke"  transform=" translate(0, 0)" d="M -109.40255 40.72898 C -109.40255 40.72898 -48.753420000000006 20.64225 -4.689869999999999 -40.72899 C 42.71816 10.274349999999998 109.40256 38.91992 109.40256 38.91992" stroke-linecap="round" />
</g>
<g transform="matrix(1.9102938534 0 0 1.9102938534 90.8355857284 214.9165189225)" id="xP1Ui8PgOylb8WLmRB5YR"  >
<path style="stroke: rgb(255,255,255); stroke-width: 2; stroke-dasharray: none; stroke-linecap: butt; stroke-dashoffset: 0; stroke-linejoin: miter; stroke-miterlimit: 4; fill: rgb(255,255,255); fill-opacity: 0; fill-rule: nonzero; opacity: 1;" vector-effect="non-scaling-stroke"  transform=" translate(0, 0)" d="M 46.35848 -27.60221 C 30.63574 2.633849999999999 -46.35848 27.602220000000003 -46.35848 27.602220000000003" stroke-linecap="round" />
</g>
<g transform="matrix(1.9102938534 0 0 1.9102938534 398.0181896288 203.8755104303)" id="UmexlfCZA6OtmdeRVT_0L"  >
<path style="stroke: rgb(255,255,255); stroke-width: 2; stroke-dasharray: none; stroke-linecap: butt; stroke-dashoffset: 0; stroke-linejoin: miter; stroke-miterlimit: 4; fill: rgb(255,255,255); fill-opacity: 0; fill-rule: nonzero; opacity: 1;" vector-effect="non-scaling-stroke"  transform=" translate(0, 0)" d="M -46.70961 -25.99698 C -19.534419999999997 7.689920000000001 46.70960000000001 25.99698 46.70960000000001 25.99698" stroke-linecap="round" />
</g>
<g transform="matrix(1.9102938534 0 0 1.9102938534 88.6810535956 343.1532292366)" id="2s-KMzkWQh0VPDVL8RTp4"  >
<path style="stroke: rgb(255,255,255); stroke-width: 2; stroke-dasharray: none; stroke-linecap: butt; stroke-dashoffset: 0; stroke-linejoin: miter; stroke-miterlimit: 4; fill: rgb(255,255,255); fill-opacity: 0; fill-rule: nonzero; opacity: 1;" vector-effect="non-scaling-stroke"  transform=" translate(0, 0)" d="M 41.69852 -22.37108 C 4.4103800000000035 14.35208 -41.69852 22.37108 -41.69852 22.37108" stroke-linecap="round" />
</g>
<g transform="matrix(1.9102938534 0 0 1.9102938534 404.5595299585 325.030399001)" id="Qfsvei9nSi4JV6tszLdrs"  >
<path style="stroke: rgb(255,255,255); stroke-width: 2; stroke-dasharray: none; stroke-linecap: butt; stroke-dashoffset: 0; stroke-linejoin: miter; stroke-miterlimit: 4; fill: rgb(255,255,255); fill-opacity: 0; fill-rule: nonzero; opacity: 1;" vector-effect="non-scaling-stroke"  transform=" translate(0, 0)" d="M -46.2835 -20.18605 C 1.1825900000000047 15.334420000000001 46.28349000000001 20.18604 46.28349000000001 20.18604" stroke-linecap="round" />
</g>
</svg>