<?xml version="1.0" encoding="UTF-8" standalone="no" ?>
<!DOCTYPE svg PUBLIC "-//W3C//DTD SVG 1.1//EN" "http://www.w3.org/Graphics/SVG/1.1/DTD/svg11.dtd">
<svg xmlns="http://www.w3.org/2000/svg" xmlns:xlink="http://www.w3.org/1999/xlink" version="1.1" width="500" height="500" viewBox="0 0 500 500" xml:space="preserve">
<desc>Created with Fabric.js 5.3.0</desc>
<defs>
</defs>
<g transform="matrix(1.6696179274 0.1754839154 -0.1754839154 1.6696179274 57.8857455087 90.4766529595)" id="y1fAWRX2q8RzV2gLLE0W4"  >
<path style="stroke: rgb(0,0,0); stroke-width: 1; stroke-dasharray: none; stroke-linecap: butt; stroke-dashoffset: 0; stroke-linejoin: miter; stroke-miterlimit: 4; fill: rgb(64,223,223); fill-opacity: 0.6; fill-rule: nonzero; opacity: 1;" vector-effect="non-scaling-stroke"  transform=" translate(0.000005, 0)" d="M -22.36996 -18.933 C -22.36996 -18.933 3.6333800000000025 21.456429999999997 13.636140000000005 39.90613 C 18.099380000000004 35.42789 22.369960000000006 33.07096 22.369960000000006 33.07096 L 6.422020000000007 7.223779999999998 C 15.437560000000007 -1.041260000000003 21.327990000000007 -2.810970000000003 21.327990000000007 -2.810970000000003 L 17.630110000000005 -12.025680000000003 C 17.630110000000005 -12.025680000000003 12.075870000000005 -10.677260000000004 1.146240000000006 -0.6897800000000025 L -8.124559999999994 -16.467170000000003 C 0.17725000000000612 -26.224500000000003 11.461890000000006 -29.735890000000005 11.461890000000006 -29.735890000000005 L 7.204250000000005 -39.906130000000005 C 7.204250000000005 -39.906130000000005 -5.374329999999995 -37.10056 -22.369969999999995 -18.933000000000003 z" stroke-linecap="round" />
</g>
<g transform="matrix(1.9239877991 0.134538333 -0.134538333 1.9239877991 176.1807719286 67.495141032)" id="uRWTdl9rdLzaDasdCbpiP"  >
<path style="stroke: rgb(0,0,0); stroke-width: 1; stroke-dasharray: none; stroke-linecap: butt; stroke-dashoffset: 0; stroke-linejoin: miter; stroke-miterlimit: 4; fill: rgb(64,223,223); fill-opacity: 0.6; fill-rule: nonzero; opacity: 1;" vector-effect="non-scaling-stroke"  transform=" translate(0.00001, -0.0000135167)" d="M -23.54755 -27.43472 L -11.26289 30.403400000000005 C -7.58961 28.437580000000004 -2.073880000000001 26.355600000000006 -2.073880000000001 26.355600000000006 L -5.949370000000001 7.499890000000008 C -5.949370000000001 7.499890000000008 6.43274 16.681970000000007 12.234839999999998 22.132580000000008 C 18.44364 20.61049000000001 23.547539999999998 20.15931000000001 23.547539999999998 20.15931000000001 L -1.8877400000000009 -0.16204999999999004 C -1.8877400000000009 -0.16204999999999004 7.746139999999999 -4.93075999999999 7.61754 -17.61423999999999 C 7.57717 -30.93255999999999 -9.915640000000002 -33.18260999999999 -23.547559999999997 -27.434699999999992 z" stroke-linecap="round" />
</g>
<g transform="matrix(2.7811230729 0.2923078138 -0.2923078138 2.7811230729 163.9763149587 39.3042990301)" id="zHIZd2lfmS9eu87qHq5YD"  >
<path style="stroke: rgb(0,0,0); stroke-width: 1; stroke-dasharray: none; stroke-linecap: butt; stroke-dashoffset: 0; stroke-linejoin: miter; stroke-miterlimit: 4; fill: rgb(255,255,255); fill-rule: nonzero; opacity: 1;" vector-effect="non-scaling-stroke"  transform=" translate(-0.000005196, 0.0000046219)" d="M -3.9512 -4.58441 L -1.8162699999999998 5.1686700000000005 C -1.8162699999999998 5.1686700000000005 4.99273 4.122050000000001 3.81413 -1.5159299999999991 C 2.63553 -7.153899999999999 -3.9511999999999996 -4.58442 -3.9511999999999996 -4.58442 z" stroke-linecap="round" />
</g>
<g transform="matrix(1.6752070677 0 0 1.6752070677 286.6347361484 66.8574619477)" id="eKjMrcfVMmTzhcfzakF8m"  >
<path style="stroke: rgb(0,0,0); stroke-width: 1; stroke-dasharray: none; stroke-linecap: butt; stroke-dashoffset: 0; stroke-linejoin: miter; stroke-miterlimit: 4; fill: rgb(64,223,223); fill-opacity: 0.6; fill-rule: nonzero; opacity: 1;" vector-effect="non-scaling-stroke"  transform=" translate(-0.00001, 0.000005)" d="M -11.3659 -33.90432 C -13.71438 -22.09245 -20.15044 7.057430000000004 -23.57977 25.375570000000003 C -6.15137 27.409740000000003 10.18404 33.90431 10.18404 33.90431 L 12.61164 25.375570000000003 C 12.61164 25.375570000000003 1.2602799999999998 20.589260000000003 -11.365890000000002 18.204860000000004 L -8.017300000000002 2.0292800000000035 C 3.6975399999999983 4.579090000000003 13.764409999999998 9.122400000000003 13.764409999999998 9.122400000000003 L 16.05173 0.7763900000000028 C 16.05173 0.7763900000000028 5.224839999999999 -3.690389999999997 -6.093700000000002 -6.595209999999997 L -2.8696400000000017 -21.846819999999997 C 7.184129999999998 -19.793999999999997 20.994609999999998 -13.769309999999997 20.994609999999998 -13.769309999999997 L 23.57979 -22.673299999999998 C 23.57979 -22.673299999999998 11.78568 -29.03539 -11.365890000000004 -33.90432 z" stroke-linecap="round" />
</g>
<g transform="matrix(1.5055745598 1.0542146561 -1.0542146561 1.5055745598 73.2102268379 414.2826504637)" id="-thAPnlfcriRez0_9ijW8"  >
<path style="stroke: rgb(0,0,0); stroke-width: 1; stroke-dasharray: none; stroke-linecap: butt; stroke-dashoffset: 0; stroke-linejoin: miter; stroke-miterlimit: 4; fill: rgb(64,223,223); fill-opacity: 0.6; fill-rule: nonzero; opacity: 1;" vector-effect="non-scaling-stroke"  transform=" translate(0.000005, -0.0000043918)" d="M -23.88868 -27.79742 L -11.73691 28.88679 C -6.28507 30.71694 -1.0784299999999991 28.89121 -1.0784299999999991 28.89121 L -5.364499999999999 8.22962 C -5.364499999999999 8.22962 6.952630000000002 20.89824 12.754730000000002 26.348850000000002 C 19.503950000000003 26.841250000000002 23.888670000000005 24.633650000000003 23.888670000000005 24.633650000000003 L 0.02767000000000408 1.0378500000000024 C 0.02767000000000408 1.0378500000000024 11.218620000000005 -3.3244599999999975 9.617420000000005 -17.201479999999997 C 5.034640000000005 -36.39393 -14.346949999999994 -27.758069999999996 -23.88868 -27.797419999999995 z" stroke-linecap="round" />
</g>
<g transform="matrix(2.1998909341 1.5403802153 -1.5403802153 2.1998909341 77.403293436 387.8463149508)" id="sBFpexe2Tl9bOXaK4w7wN"  >
<path style="stroke: rgb(0,0,0); stroke-width: 1; stroke-dasharray: none; stroke-linecap: butt; stroke-dashoffset: 0; stroke-linejoin: miter; stroke-miterlimit: 4; fill: rgb(255,255,255); fill-rule: nonzero; opacity: 1;" vector-effect="non-scaling-stroke"  transform=" translate(-0.000005196, 0.0000046219)" d="M -3.9512 -4.58441 L -1.8162699999999998 5.1686700000000005 C -1.8162699999999998 5.1686700000000005 4.99273 4.122050000000001 3.81413 -1.5159299999999991 C 2.63553 -7.153899999999999 -3.9511999999999996 -4.58442 -3.9511999999999996 -4.58442 z" stroke-linecap="round" />
</g>
<g transform="matrix(1.5166167225 -0.0794825145 0.0794825145 1.5166167225 165.8554628236 443.0247074441)" id="jWtuWoP5C9SgGv9zIU_lh"  >
<path style="stroke: rgb(0,0,0); stroke-width: 1; stroke-dasharray: none; stroke-linecap: butt; stroke-dashoffset: 0; stroke-linejoin: miter; stroke-miterlimit: 4; fill: rgb(64,223,223); fill-opacity: 0.6; fill-rule: nonzero; opacity: 1;" vector-effect="non-scaling-stroke"  transform=" translate(0, 0)" d="M 0.49169 -35.17593 L -13.054499999999999 32.680429999999994 C -8.34813 35.234069999999996 0.4916900000000002 35.17582999999999 0.4916900000000002 35.17582999999999 L 13.0545 -31.266880000000015 C 13.0545 -31.266880000000015 5.630350000000001 -32.63359000000001 0.4916900000000002 -35.175930000000015 z" stroke-linecap="round" />
</g>
<g transform="matrix(1.6013176774 0.4290717785 -0.4290717785 1.6013176774 386.3030171227 107.9167658106)" id="NuhJjqdpECkaWJSfutFeq"  >
<path style="stroke: rgb(0,0,0); stroke-width: 1; stroke-dasharray: none; stroke-linecap: butt; stroke-dashoffset: 0; stroke-linejoin: miter; stroke-miterlimit: 4; fill: rgb(64,223,223); fill-opacity: 0.6; fill-rule: nonzero; opacity: 1;" vector-effect="non-scaling-stroke"  transform=" translate(-0.00001, 0.000005)" d="M -11.3659 -33.90432 C -13.71438 -22.09245 -20.15044 7.057430000000004 -23.57977 25.375570000000003 C -6.15137 27.409740000000003 10.18404 33.90431 10.18404 33.90431 L 12.61164 25.375570000000003 C 12.61164 25.375570000000003 1.2602799999999998 20.589260000000003 -11.365890000000002 18.204860000000004 L -8.017300000000002 2.0292800000000035 C 3.6975399999999983 4.579090000000003 13.764409999999998 9.122400000000003 13.764409999999998 9.122400000000003 L 16.05173 0.7763900000000028 C 16.05173 0.7763900000000028 5.224839999999999 -3.690389999999997 -6.093700000000002 -6.595209999999997 L -2.8696400000000017 -21.846819999999997 C 7.184129999999998 -19.793999999999997 20.994609999999998 -13.769309999999997 20.994609999999998 -13.769309999999997 L 23.57979 -22.673299999999998 C 23.57979 -22.673299999999998 11.902759999999999 -29.791579999999996 -11.365890000000004 -33.90432 z" stroke-linecap="round" />
</g>
<g transform="matrix(1.5186980454 0 0 1.467027868 271.7177675172 444.0554027301)" id="KpWta5460zqyef9ABTwgW"  >
<path style="stroke: rgb(0,0,0); stroke-width: 1; stroke-dasharray: none; stroke-linecap: butt; stroke-dashoffset: 0; stroke-linejoin: miter; stroke-miterlimit: 4; fill: rgb(64,223,223); fill-opacity: 0.6; fill-rule: nonzero; opacity: 1;" vector-effect="non-scaling-stroke"  transform=" translate(0, 0)" d="M -24.79065 -33.31477 L -16.77611 35.5996 C -16.77611 35.5996 29.153090000000002 34.973530000000004 24.453060000000004 -6.328339999999997 C 19.753030000000003 -47.630199999999995 -16.31141 -33.04702999999999 -24.790649999999996 -33.314769999999996 z" stroke-linecap="round" />
</g>
<g transform="matrix(1.1997193199 -1.0802321276 1.0802321276 1.1997193199 377.4666440598 408.2898856524)" id="GMBLeJn28rDhflnJVqwQK"  >
<path style="stroke: rgb(0,0,0); stroke-width: 1; stroke-dasharray: none; stroke-linecap: butt; stroke-dashoffset: 0; stroke-linejoin: miter; stroke-miterlimit: 4; fill: rgb(64,223,223); fill-opacity: 0.6; fill-rule: nonzero; opacity: 1;" vector-effect="non-scaling-stroke"  transform=" translate(0, 0)" d="M -11.28354 -31.49218 C -13.63202 -19.68031 -19.95551 8.804799999999997 -23.38484 27.122939999999996 C -6.456610000000001 32.529979999999995 8.954669999999997 31.392409999999998 8.954669999999997 31.392409999999998 L 10.833199999999996 21.494859999999996 C 10.833199999999996 21.494859999999996 -2.0679400000000037 22.796349999999997 -11.468410000000004 19.333239999999996 L -8.618690000000004 5.148299999999997 C -0.05426000000000464 8.368089999999997 13.327369999999995 7.335639999999997 13.327369999999995 7.335639999999997 L 15.018389999999995 -2.1312600000000037 C 15.018389999999995 -2.1312600000000037 2.367629999999995 -0.9973800000000037 -6.630780000000007 -4.278400000000003 L -3.272950000000007 -18.60085 C 6.104709999999994 -14.95306 21.39473999999999 -15.338280000000001 21.39473999999999 -15.338280000000001 L 23.38483999999999 -25.7678 C 23.38483999999999 -25.7678 5.919069999999991 -25.214940000000002 -11.283550000000012 -31.49218 z" stroke-linecap="round" />
</g>
<g transform="matrix(0.7413791341 0 0 0.8561642816 272.7177675172 444.0554027301)" id="G9fRK4V2u3Dy6_NLXa4LD"  >
<path style="stroke: rgb(0,0,0); stroke-width: 1; stroke-dasharray: none; stroke-linecap: butt; stroke-dashoffset: 0; stroke-linejoin: miter; stroke-miterlimit: 4; fill: rgb(255,255,255); fill-rule: nonzero; opacity: 1;" vector-effect="non-scaling-stroke"  transform=" translate(0, 0)" d="M -24.958 -34.33943 L -14.848169999999998 35.76435 C -14.848169999999998 35.76435 31.004380000000005 30.87933 24.28571 -7.3530000000000015 C 17.567040000000002 -45.58533 -16.47876 -34.071690000000004 -24.958 -34.33943 z" stroke-linecap="round" />
</g>
</svg>