<?xml version="1.0" encoding="UTF-8" standalone="no" ?>
<!DOCTYPE svg PUBLIC "-//W3C//DTD SVG 1.1//EN" "http://www.w3.org/Graphics/SVG/1.1/DTD/svg11.dtd">
<svg xmlns="http://www.w3.org/2000/svg" xmlns:xlink="http://www.w3.org/1999/xlink" version="1.1" width="500" height="500" viewBox="0 0 500 500" xml:space="preserve">
<desc>Created with Fabric.js 5.3.0</desc>
<defs>
</defs>
<g transform="matrix(1.6696179274 0.1754839154 -0.1754839154 1.6696179274 57.8857455087 90.4766529595)" id="8RHGvl_GSVpESQhOcaDLC"  >
<path style="stroke: rgb(0,0,0); stroke-width: 1; stroke-dasharray: none; stroke-linecap: butt; stroke-dashoffset: 0; stroke-linejoin: miter; stroke-miterlimit: 4; fill: rgb(64,223,223); fill-opacity: 0.6; fill-rule: nonzero; opacity: 1;" vector-effect="non-scaling-stroke"  transform=" translate(0.000005, 0)" d="M -22.36996 -18.933 C -22.36996 -18.933 3.6333800000000025 21.456429999999997 13.636140000000005 39.90613 C 18.099380000000004 35.42789 22.369960000000006 33.07096 22.369960000000006 33.07096 L 6.422020000000007 7.223779999999998 C 15.437560000000007 -1.041260000000003 21.327990000000007 -2.810970000000003 21.327990000000007 -2.810970000000003 L 17.630110000000005 -12.025680000000003 C 17.630110000000005 -12.025680000000003 12.075870000000005 -10.677260000000004 1.146240000000006 -0.6897800000000025 L -8.124559999999994 -16.467170000000003 C 0.17725000000000612 -26.224500000000003 11.461890000000006 -29.735890000000005 11.461890000000006 -29.735890000000005 L 7.204250000000005 -39.906130000000005 C 7.204250000000005 -39.906130000000005 -5.374329999999995 -37.10056 -22.369969999999995 -18.933000000000003 z" stroke-linecap="round" />
</g>
<g transform="matrix(1.9239877991 0.134538333 -0.134538333 1.9239877991 176.1807719286 67.495141032)" id="zQ02G-0PQAXPsygqAmnkT"  >
<path style="stroke: rgb(0,0,0); stroke-width: 1; stroke-dasharray: none; stroke-linecap: butt; stroke-dashoffset: 0; stroke-linejoin: miter; stroke-miterlimit: 4; fill: rgb(64,223,223); fill-opacity: 0.6; fill-rule: nonzero; opacity: 1;" vector-effect="non-scaling-stroke"  transform=" translate(0.00001, -0.0000135167)" d="M -23.54755 -27.43472 L -11.26289 30.403400000000005 C -7.58961 28.437580000000004 -2.073880000000001 26.355600000000006 -2.073880000000001 26.355600000000006 L -5.949370000000001 7.499890000000008 C -5.949370000000001 7.499890000000008 6.43274 16.681970000000007 12.234839999999998 22.132580000000008 C 18.44364 20.61049000000001 23.547539999999998 20.15931000000001 23.547539999999998 20.15931000000001 L -1.8877400000000009 -0.16204999999999004 C -1.8877400000000009 -0.16204999999999004 7.746139999999999 -4.93075999999999 7.61754 -17.61423999999999 C 7.57717 -30.93255999999999 -9.915640000000002 -33.18260999999999 -23.547559999999997 -27.434699999999992 z" stroke-linecap="round" />
</g>
<g transform="matrix(2.7811230729 0.2923078138 -0.2923078138 2.7811230729 163.9763149587 39.3042990301)" id="8jOHoOsB7VDb92SJYfysx"  >
<path style="stroke: rgb(0,0,0); stroke-width: 1; stroke-dasharray: none; stroke-linecap: butt; stroke-dashoffset: 0; stroke-linejoin: miter; stroke-miterlimit: 4; fill: rgb(255,255,255); fill-rule: nonzero; opacity: 1;" vector-effect="non-scaling-stroke"  transform=" translate(-0.000005196, 0.0000046219)" d="M -3.9512 -4.58441 L -1.8162699999999998 5.1686700000000005 C -1.8162699999999998 5.1686700000000005 4.99273 4.122050000000001 3.81413 -1.5159299999999991 C 2.63553 -7.153899999999999 -3.9511999999999996 -4.58442 -3.9511999999999996 -4.58442 z" stroke-linecap="round" />
</g>
<g transform="matrix(1.6741865768 -0.0584638835 0.0584638835 1.6741865768 286.6347361484 66.8574619477)" id="9WTvD_7yvNwuOubQTpqJV"  >
<path style="stroke: rgb(0,0,0); stroke-width: 1; stroke-dasharray: none; stroke-linecap: butt; stroke-dashoffset: 0; stroke-linejoin: miter; stroke-miterlimit: 4; fill: rgb(64,223,223); fill-opacity: 0.6; fill-rule: nonzero; opacity: 1;" vector-effect="non-scaling-stroke"  transform=" translate(-0.00001, 0.000005)" d="M -11.3659 -33.90432 C -13.71438 -22.09245 -20.15044 7.057430000000004 -23.57977 25.375570000000003 C -6.15137 27.409740000000003 10.18404 33.90431 10.18404 33.90431 L 12.61164 25.375570000000003 C 12.61164 25.375570000000003 1.2602799999999998 20.589260000000003 -11.365890000000002 18.204860000000004 L -8.017300000000002 2.0292800000000035 C 3.6975399999999983 4.579090000000003 13.764409999999998 9.122400000000003 13.764409999999998 9.122400000000003 L 16.05173 0.7763900000000028 C 16.05173 0.7763900000000028 5.224839999999999 -3.690389999999997 -6.093700000000002 -6.595209999999997 L -2.8696400000000017 -21.846819999999997 C 7.184129999999998 -19.793999999999997 20.994609999999998 -13.769309999999997 20.994609999999998 -13.769309999999997 L 23.57979 -22.673299999999998 C 23.57979 -22.673299999999998 11.78568 -29.03539 -11.365890000000004 -33.90432 z" stroke-linecap="round" />
</g>
<g transform="matrix(1.5055745598 1.0542146561 -1.0542146561 1.5055745598 73.0531002106 414.5070505432)" id="I_MvZtJuSjJPuLQcMfQ8i"  >
<path style="stroke: rgb(0,0,0); stroke-width: 1; stroke-dasharray: none; stroke-linecap: butt; stroke-dashoffset: 0; stroke-linejoin: miter; stroke-miterlimit: 4; fill: rgb(64,223,223); fill-opacity: 0.6; fill-rule: nonzero; opacity: 1;" vector-effect="non-scaling-stroke"  transform=" translate(0, 0)" d="M -23.88868 -27.94647 L -11.621490000000001 29.12577 C -6.169650000000002 30.95592 -1.0784300000000009 28.74216 -1.0784300000000009 28.74216 L -5.3645000000000005 8.080569999999998 C -5.3645000000000005 8.080569999999998 6.95263 20.74919 12.754730000000002 26.1998 C 19.503950000000003 26.6922 23.888670000000005 24.4846 23.888670000000005 24.4846 L 0.02767000000000408 0.8887999999999998 C 0.02767000000000408 0.8887999999999998 11.218620000000005 -3.47351 9.617420000000005 -17.35053 C 5.034640000000005 -36.54298 -14.346949999999994 -27.90712 -23.88868 -27.946469999999998 z" stroke-linecap="round" />
</g>
<g transform="matrix(2.1998909341 1.5403802153 -1.5403802153 2.1998909341 77.403293436 387.8463149508)" id="dmcbLZqJ495duG-2WNNvL"  >
<path style="stroke: rgb(0,0,0); stroke-width: 1; stroke-dasharray: none; stroke-linecap: butt; stroke-dashoffset: 0; stroke-linejoin: miter; stroke-miterlimit: 4; fill: rgb(255,255,255); fill-rule: nonzero; opacity: 1;" vector-effect="non-scaling-stroke"  transform=" translate(-0.000005196, 0.0000046219)" d="M -3.9512 -4.58441 L -1.8162699999999998 5.1686700000000005 C -1.8162699999999998 5.1686700000000005 4.99273 4.122050000000001 3.81413 -1.5159299999999991 C 2.63553 -7.153899999999999 -3.9511999999999996 -4.58442 -3.9511999999999996 -4.58442 z" stroke-linecap="round" />
</g>
<g transform="matrix(1.5166167225 -0.0794825145 0.0794825145 1.5166167225 168.8554632541 443.0247156576)" id="pkB7Los6onhMUBdQMQIRV"  >
<path style="stroke: rgb(0,0,0); stroke-width: 1; stroke-dasharray: none; stroke-linecap: butt; stroke-dashoffset: 0; stroke-linejoin: miter; stroke-miterlimit: 4; fill: rgb(64,223,223); fill-opacity: 0.6; fill-rule: nonzero; opacity: 1;" vector-effect="non-scaling-stroke"  transform=" translate(0, -0.0000054157)" d="M 0.49169 -35.17593 L -13.054499999999999 32.680429999999994 C -8.34813 35.234069999999996 0.4916900000000002 35.17582999999999 0.4916900000000002 35.17582999999999 L 13.0545 -31.266880000000015 C 13.0545 -31.266880000000015 5.630350000000001 -32.63359000000001 0.4916900000000002 -35.175930000000015 z" stroke-linecap="round" />
</g>
<g transform="matrix(1.608562124 0.4010595818 -0.4010595818 1.608562124 390.3030171227 102.9167658106)" id="ApehvlCWFjUcufSXi-eKa"  >
<path style="stroke: rgb(0,0,0); stroke-width: 1; stroke-dasharray: none; stroke-linecap: butt; stroke-dashoffset: 0; stroke-linejoin: miter; stroke-miterlimit: 4; fill: rgb(64,223,223); fill-opacity: 0.6; fill-rule: nonzero; opacity: 1;" vector-effect="non-scaling-stroke"  transform=" translate(-0.00001, 0.000005)" d="M -11.3659 -33.90432 C -13.71438 -22.09245 -20.15044 7.057430000000004 -23.57977 25.375570000000003 C -6.15137 27.409740000000003 10.18404 33.90431 10.18404 33.90431 L 12.61164 25.375570000000003 C 12.61164 25.375570000000003 1.2602799999999998 20.589260000000003 -11.365890000000002 18.204860000000004 L -8.017300000000002 2.0292800000000035 C 3.6975399999999983 4.579090000000003 13.764409999999998 9.122400000000003 13.764409999999998 9.122400000000003 L 16.05173 0.7763900000000028 C 16.05173 0.7763900000000028 5.224839999999999 -3.690389999999997 -6.093700000000002 -6.595209999999997 L -2.8696400000000017 -21.846819999999997 C 7.184129999999998 -19.793999999999997 20.994609999999998 -13.769309999999997 20.994609999999998 -13.769309999999997 L 23.57979 -22.673299999999998 C 23.57979 -22.673299999999998 11.902759999999999 -29.791579999999996 -11.365890000000004 -33.90432 z" stroke-linecap="round" />
</g>
<g transform="matrix(1.5186980454 0 0 1.467027868 277.7177704057 443.9183656029)" id="ofhU8Uk3NcNsUv14bYTVK"  >
<path style="stroke: rgb(0,0,0); stroke-width: 1; stroke-dasharray: none; stroke-linecap: butt; stroke-dashoffset: 0; stroke-linejoin: miter; stroke-miterlimit: 4; fill: rgb(64,223,223); fill-opacity: 0.6; fill-rule: nonzero; opacity: 1;" vector-effect="non-scaling-stroke"  transform=" translate(-0.0000032873, -0.0000046441)" d="M -24.79065 -33.22136 L -16.77611 35.69301000000001 C -16.77611 35.69301000000001 29.153090000000002 35.06694000000001 24.453060000000004 -6.234929999999991 C 19.753030000000003 -47.53678999999999 -13.370299999999997 -33.389799999999994 -24.790649999999996 -33.22135999999999 z" stroke-linecap="round" />
</g>
<g transform="matrix(1.3367218432 -1.0443615628 1.0443615628 1.3367218432 391.1313281905 410.5994103977)" id="rDvIc5uo23nXexR01QFYc"  >
<path style="stroke: rgb(0,0,0); stroke-width: 1; stroke-dasharray: none; stroke-linecap: butt; stroke-dashoffset: 0; stroke-linejoin: miter; stroke-miterlimit: 4; fill: rgb(64,223,223); fill-opacity: 0.6; fill-rule: nonzero; opacity: 1;" vector-effect="non-scaling-stroke"  transform=" translate(0, 0)" d="M -22.58514 27.43816 C -5.300919999999998 31.57598 9.67493 29.79733 9.67493 29.79733 L 11.51085 20.99347 C 11.51085 20.99347 -1.9544200000000007 22.468549999999997 -11.689850000000002 20.102359999999997 L -8.52879 4.514239999999997 C 1.2261599999999984 6.759419999999997 13.52299 5.985029999999997 13.52299 5.985029999999997 L 15.31418 -2.147890000000003 C 15.31418 -2.147890000000003 2.73114 -1.046850000000003 -6.682459999999999 -3.524850000000003 L -3.0951199999999988 -19.240070000000003 C 7.0122300000000015 -17.072530000000004 20.627480000000002 -17.387190000000004 20.627480000000002 -17.387190000000004 L 22.585140000000003 -26.834310000000002 C 22.585140000000003 -26.834310000000002 7.919330000000002 -25.118100000000002 -10.177579999999999 -30.17743 z" stroke-linecap="round" />
</g>
<g transform="matrix(0.7532763887 0 0 0.8923177232 277.7177704057 443.9183656029)" id="ExARaNU9AR93N-CeK2bzw"  >
<path style="stroke: rgb(0,0,0); stroke-width: 1; stroke-dasharray: none; stroke-linecap: butt; stroke-dashoffset: 0; stroke-linejoin: miter; stroke-miterlimit: 4; fill: rgb(255,255,255); fill-rule: nonzero; opacity: 1;" vector-effect="non-scaling-stroke"  transform=" translate(-0.0000019302, -0.0000046441)" d="M -24.79855 -33.35368 L -14.589629999999998 35.82533000000001 C -14.589629999999998 35.82533000000001 29.14519 34.93462000000001 24.44516 -6.367249999999991 C 19.745130000000003 -47.66910999999999 -13.3782 -33.52211999999999 -24.79855 -33.35367999999999 z" stroke-linecap="round" />
</g>
<g transform="matrix(1 0 0 1 347.9547900969 379.3440867815)" id="k-7Om-xuXv-y0uoFBbRmy"  >
<path style="stroke: rgb(0,0,0); stroke-width: 1; stroke-dasharray: none; stroke-linecap: butt; stroke-dashoffset: 0; stroke-linejoin: miter; stroke-miterlimit: 4; fill: rgb(255,255,255); fill-opacity: 0; fill-rule: nonzero; opacity: 1;" vector-effect="non-scaling-stroke"  transform=" translate(0, 0)" d="M 0 0" stroke-linecap="round" />
</g>
</svg>