<?xml version="1.0" encoding="UTF-8" standalone="no" ?>
<!DOCTYPE svg PUBLIC "-//W3C//DTD SVG 1.1//EN" "http://www.w3.org/Graphics/SVG/1.1/DTD/svg11.dtd">
<svg xmlns="http://www.w3.org/2000/svg" xmlns:xlink="http://www.w3.org/1999/xlink" version="1.1" width="640" height="640" viewBox="0 0 640 640" xml:space="preserve">
<desc>Created with Fabric.js 4.6.0</desc>
<defs>
</defs>
<g transform="matrix(3.45 -0.01 0.01 3.45 228.71 452.9)" id="dSfsuQs_SufUEU6J8cTTo"  >
<path style="stroke: rgb(0,0,0); stroke-width: 1; stroke-dasharray: none; stroke-linecap: butt; stroke-dashoffset: 0; stroke-linejoin: miter; stroke-miterlimit: 4; fill: rgb(196,20,20); fill-rule: nonzero; opacity: 1;" vector-effect="non-scaling-stroke"  transform=" translate(0, 0)" d="M 56.99222 11.73315 C 57.480540000000005 10.89586 55.81926 11.48972 53.398520000000005 10.94825 C 25.333450000000006 4.7248 -28.17559 -7.3521100000000015 -53.89654999999999 -13.74252 C -54.14386999999999 -13.51924 -56.76238999999999 -11.53411 -57.07757999999999 -11.31464 C -38.35591999999999 -6.639120000000001 31.890690000000014 9.01922 49.36189000000001 13.39723 C 54.34246000000001 14.534 56.50391000000001 12.57044 56.99222000000001 11.73315 z" stroke-linecap="round" />
</g>
<g transform="matrix(3.49 -0.01 0.01 3.49 215.01 463.38)" id="sOLf44vMbZHv9ctO-AsTl"  >
<path style="stroke: rgb(0,0,0); stroke-width: 1; stroke-dasharray: none; stroke-linecap: butt; stroke-dashoffset: 0; stroke-linejoin: miter; stroke-miterlimit: 4; fill: rgb(196,20,20); fill-rule: nonzero; opacity: 1;" vector-effect="non-scaling-stroke"  transform=" translate(0, 0)" d="M 56.47445 11.6544 C 56.96277 10.817110000000001 55.301489999999994 11.41097 52.88075 10.8695 C 24.81568 4.646050000000001 -27.524229999999996 -7.273339999999999 -53.24519 -13.663749999999999 C -53.5664 -13.433939999999998 -56.55981 -11.339769999999998 -56.55981 -11.339769999999998 C -56.55981 -11.339769999999998 31.372910000000005 8.940470000000001 48.84411 13.318480000000001 C 53.82468 14.455250000000001 55.98613 12.49169 56.47444 11.6544 z" stroke-linecap="round" />
</g>
<g transform="matrix(0.87 0 0 0.87 214.87 450.97)" id="-VQ60VHZ_Q80WYTecRRRD"  >
<path style="stroke: rgb(0,0,0); stroke-width: 1; stroke-dasharray: none; stroke-linecap: butt; stroke-dashoffset: 0; stroke-linejoin: miter; stroke-miterlimit: 4; fill: rgb(0,0,0); fill-rule: nonzero; opacity: 1;" vector-effect="non-scaling-stroke"  transform=" translate(0, 0)" d="M 59.09659 9.58054 C 59.23829 9.62032 59.3801 9.659719999999998 59.52201 9.69876 L 67.48615000000001 13.27253 L 67.48615000000001 13.27253 C 67.92525 13.42102 68.24169 13.80631 68.30199 14.265889999999999 C 68.3623 14.72548 68.15598 15.179359999999999 67.77005 15.43611 L 67.04572 16.66177 L 67.04572 16.66177 C 66.71291000000001 17.29673 65.97735 17.60746 65.29011 17.40342 L 44.72123 14.57243 L -67.67182 -11.109479999999998 L -67.67182 -11.109479999999998 C -67.98025 -11.179959999999998 -68.22111 -11.420789999999998 -68.29160999999999 -11.729219999999998 C -68.36210999999999 -12.037649999999998 -68.24981 -12.359209999999997 -68.00263 -12.556689999999998 L -62.59193 -16.879419999999996 L -62.59193 -16.879419999999996 C -61.955639999999995 -17.387769999999996 -61.12273 -17.579229999999995 -60.32832 -17.399759999999997 z" stroke-linecap="round" />
</g>
<g transform="matrix(0.87 0 0 0.87 198.51 460.35)" id="RcMgW5ijfXg4qf0oed9oP"  >
<path style="stroke: rgb(0,0,0); stroke-width: 1; stroke-dasharray: none; stroke-linecap: butt; stroke-dashoffset: 0; stroke-linejoin: miter; stroke-miterlimit: 4; fill: rgb(0,0,0); fill-rule: nonzero; opacity: 1;" vector-effect="non-scaling-stroke"  transform=" translate(0, 0)" d="M 59.24607 9.71821 C 59.426880000000004 9.7601 59.60389 9.81697 59.775270000000006 9.888209999999999 L 67.3696 13.274069999999998 L 67.3696 13.274069999999998 C 67.76778 13.449679999999999 68.05534 13.808389999999997 68.14013 14.235229999999998 C 68.22492 14.662079999999998 68.09628 15.103449999999999 67.79545 15.417909999999997 L 66.57254 16.740499999999997 L 66.57254 16.740499999999997 C 66.16925 17.178319999999996 65.57766000000001 17.391759999999998 64.98774 17.312269999999998 L 44.86787 14.709449999999999 L -67.52518 -10.97246 L -67.52518 -10.97246 C -67.83361000000001 -11.04294 -68.07447 -11.28377 -68.14497 -11.5922 C -68.21547 -11.90063 -68.10317 -12.22219 -67.85599 -12.41967 L -62.44529000000001 -16.7424 L -62.44529000000001 -16.7424 C -61.809000000000005 -17.25075 -60.976090000000006 -17.44221 -60.18168000000001 -17.26274 z" stroke-linecap="round" />
</g>
<g transform="matrix(0.74 0.13 -0.13 0.74 291.49 86.91)" id="SSrKgralu83tmAyW-_nA9"  >
<path style="stroke: rgb(0,0,0); stroke-width: 1; stroke-dasharray: none; stroke-linecap: butt; stroke-dashoffset: 0; stroke-linejoin: miter; stroke-miterlimit: 4; fill: rgb(113,1,1); fill-rule: nonzero; opacity: 1;" vector-effect="non-scaling-stroke"  transform=" translate(0, 0)" d="M 16.05295 -5.12422 C 16.05295 -5.12422 26.33244 1.8595899999999999 28.04731 6.02039 C 31.23856 11.46072 28.04731 11.63577 28.04731 11.63577 L 20.515259999999998 32.14859 L 16.052949999999996 29.175089999999997 L 8.294159999999994 16.956079999999996 L 2.153639999999994 14.158409999999996 L -16.887870000000007 -0.6659200000000034 C -16.887870000000007 -0.6659200000000034 -29.603110000000008 -11.934990000000003 -29.005760000000006 -15.844190000000003 C -31.022090000000006 -20.083800000000004 -25.934330000000006 -30.196470000000005 -22.912540000000007 -32.049130000000005 C -19.81528000000001 -34.05274000000001 16.052949999999996 -5.124220000000005 16.052949999999996 -5.124220000000005 z" stroke-linecap="round" />
</g>
<g transform="matrix(0.74 0.13 -0.13 0.74 298.95 80.8)" id="g-ef-3JOML7s7Us0tcWHj"  >
<path style="stroke: rgb(0,0,0); stroke-width: 1; stroke-dasharray: none; stroke-linecap: butt; stroke-dashoffset: 0; stroke-linejoin: miter; stroke-miterlimit: 4; fill: rgb(186,142,100); fill-rule: nonzero; opacity: 1;" vector-effect="non-scaling-stroke"  transform=" translate(0, 0)" d="M -26.24009 -10.59986 L -1.1091699999999989 -29.68385 C -1.1091699999999989 -29.68385 30.506330000000002 -0.45930999999999855 29.6386 -0.45930999999999855 C 28.5 -0.45930999999999855 20.076700000000002 -3.9474999999999985 14.31775 7.066490000000002 C 10.441410000000001 15.976390000000002 10.344000000000001 29.68383 10.344000000000001 29.68383 L -29.656149999999997 29.68383 C -29.656149999999997 29.68383 -25.746169999999996 21.78126 -25.027539999999995 11.780270000000002 C -22.898919999999993 -11.344369999999998 -26.711669999999994 -10.59987 -26.711669999999994 -10.59987" stroke-linecap="round" />
</g>
<g transform="matrix(0.8 0.51 -0.45 0.7 175.45 413.75)" id="9FDud2yAE3ymphsG2Q1uI"  >
<path style="stroke: rgb(0,0,0); stroke-width: 1; stroke-dasharray: none; stroke-linecap: butt; stroke-dashoffset: 0; stroke-linejoin: miter; stroke-miterlimit: 4; fill: rgb(0,0,0); fill-rule: nonzero; opacity: 1;" vector-effect="non-scaling-stroke"  transform=" translate(0, 0)" d="M -1.02701 -3.50117 C -1.02701 -3.50117 -1.2838699999999998 -0.7845599999999999 -0.47075 3.5011599999999996 C 0.7448999999999999 -0.6933700000000007 1.06551 -3.50117 1.06551 -3.50117 z" stroke-linecap="round" />
</g>
<g transform="matrix(0.58 0.37 -0.43 0.66 177.17 410.93)" id="xGasz6v0SGbfw4tvyb6SR"  >
<path style="stroke: rgb(0,0,0); stroke-width: 1; stroke-dasharray: none; stroke-linecap: butt; stroke-dashoffset: 0; stroke-linejoin: miter; stroke-miterlimit: 4; fill: rgb(0,32,53); fill-rule: nonzero; opacity: 1;" vector-effect="non-scaling-stroke"  transform=" translate(0, 0)" d="M 0.23312 3.07431 C -3.45982 3.07431 -7.279820000000001 1.0043700000000002 -7.279820000000001 -0.4714299999999998 C -7.279820000000001 -1.9472399999999999 -3.459820000000001 -3.0743099999999997 0.23311999999999955 -3.0743099999999997 C 3.9260599999999997 -3.0743099999999997 7.2798099999999994 -1.4758099999999996 7.2798099999999994 4.440892098500626e-16 C 7.2798099999999994 1.4758100000000005 3.9260599999999997 3.0743100000000005 0.23311999999999955 3.0743100000000005 z" stroke-linecap="round" />
</g>
<g transform="matrix(0.49 0.32 -0.52 0.81 246.68 303.44)" id="7dJvJa2RykGqSpI1J8wJU"  >
<path style="stroke: rgb(0,0,0); stroke-width: 1; stroke-dasharray: none; stroke-linecap: butt; stroke-dashoffset: 0; stroke-linejoin: miter; stroke-miterlimit: 4; fill: rgb(0,0,0); fill-rule: nonzero; opacity: 1;" vector-effect="non-scaling-stroke"  transform=" translate(0, 0)" d="M 10.0892 -111.88589 L -12.72422 111.31559 C -12.72422 111.31559 -10.93355 112.41312 -9.24755 111.56306000000001 C -9.24895 111.31674000000001 12.724219999999999 -111.88588999999999 12.724219999999999 -111.88588999999999 z" stroke-linecap="round" />
</g>
<g transform="matrix(0.76 0.49 -0.45 0.7 312.99 213.72)" id="GsTSowkrH7FJ0CcsB8ujo"  >
<path style="stroke: rgb(0,0,0); stroke-width: 1; stroke-dasharray: none; stroke-linecap: butt; stroke-dashoffset: 0; stroke-linejoin: miter; stroke-miterlimit: 4; fill: rgb(0,69,115); fill-rule: nonzero; opacity: 1;" vector-effect="non-scaling-stroke"  transform=" translate(0, 0)" d="M -2.337 -8.5994 C -2.337 -8.5994 -3.3395200000000003 4.954600000000001 -3.4302900000000003 7.289560000000002 C -1.3780300000000003 8.811860000000001 0.37048999999999976 9.070300000000001 2.1485199999999995 7.731220000000001 C 1.7740399999999996 4.199700000000002 3.4302799999999998 -8.3769 3.4302799999999998 -8.3769 z" stroke-linecap="round" />
</g>
<g transform="matrix(0.65 0.42 -0.42 0.65 316.98 214.2)" id="DCwQ4u5bMqYDtSDie2V31"  >
<path style="stroke: rgb(0,0,0); stroke-width: 1; stroke-dasharray: none; stroke-linecap: butt; stroke-dashoffset: 0; stroke-linejoin: miter; stroke-miterlimit: 4; fill: rgb(41,41,41); fill-rule: nonzero; opacity: 1;" vector-effect="non-scaling-stroke"  transform=" translate(0, 0)" d="M 3.54571 -2.57016 C 3.54571 -2.57016 -0.36809000000000003 7.075570000000001 -0.8088500000000001 7.420070000000001 C -1.76869 7.618970000000001 -2.9586900000000003 6.7250000000000005 -3.18438 5.611500000000001 L -3.0839 3.6510200000000013 C -3.0839 3.6510200000000013 -3.24592 3.4701700000000013 -3.4927099999999998 3.078870000000001 C -3.8257399999999997 2.601320000000001 -2.4857799999999997 -6.79728 -2.3462499999999995 -7.4479" stroke-linecap="round" />
</g>
<g transform="matrix(0.65 0.42 -0.42 0.65 316.54 210.27)" id="4EFNK98yUKvaYOSuHhvUI"  >
<path style="stroke: rgb(0,0,0); stroke-width: 1; stroke-dasharray: none; stroke-linecap: butt; stroke-dashoffset: 0; stroke-linejoin: miter; stroke-miterlimit: 4; fill: rgb(23,23,23); fill-rule: nonzero; opacity: 1;" vector-effect="non-scaling-stroke"  transform=" translate(0, 0)" d="M -8.12863 -3.51302 L 0.5557400000000001 -11.38284 L 8.12862 -5.53891 C 8.12862 -5.53891 6.83976 6.24502 6.71847 8.20346 C 5.68296 9.51511 4.08721 10.48158 2.63209 11.37342 L 2.63209 11.37342 C 2.61156 11.386 2.5857099999999997 11.38599 2.56519 11.37338 C 2.54468 11.360769999999999 2.53298 11.33771 2.5349399999999997 11.31372 C 2.7774099999999997 8.3323 3.1656699999999995 3.5640099999999997 3.2352099999999995 2.2763799999999996 C 3.2352099999999995 2.2763799999999996 -0.052230000000000665 2.8131399999999998 0.13812999999999942 1.9254799999999996 C 0.42466999999999944 0.5892899999999996 -8.128630000000001 -3.513020000000001 -8.128630000000001 -3.513020000000001 z" stroke-linecap="round" />
</g>
<g transform="matrix(0.65 0.42 -0.42 0.65 315.78 216.26)" id="i8llkbBPDA--JnzMSqcKj"  >
<path style="stroke: rgb(0,0,0); stroke-width: 1; stroke-dasharray: none; stroke-linecap: butt; stroke-dashoffset: 0; stroke-linejoin: miter; stroke-miterlimit: 4; fill: rgb(255,255,255); fill-opacity: 0; fill-rule: nonzero; opacity: 1;" vector-effect="non-scaling-stroke"  transform=" translate(0, 0)" d="M 3.67247 -1.67358 C 1.8732000000000002 0.2573699999999999 -0.37787000000000015 1.5761299999999998 -0.5507199999999997 1.6735499999999999 C -1.7391699999999997 1.6793699999999998 -3.2561499999999994 0.59005 -3.6724699999999997 -0.06498000000000004" stroke-linecap="round" />
</g>
<g transform="matrix(0.65 0.42 -0.42 0.65 317.52 214.79)" id="Mi-naWTbvJWSttkOgvNa6"  >
<path style="stroke: rgb(0,0,0); stroke-width: 1; stroke-dasharray: none; stroke-linecap: butt; stroke-dashoffset: 0; stroke-linejoin: miter; stroke-miterlimit: 4; fill: rgb(255,255,255); fill-opacity: 0; fill-rule: nonzero; opacity: 1;" vector-effect="non-scaling-stroke"  transform=" translate(0, 0)" d="M 3.01368 -1.83912 C 1.95811 -0.44292 -0.5243899999999999 1.65291 -0.8956200000000001 1.8225899999999997 C -1.80343 1.9492299999999998 -2.95948 1.3381099999999997 -3.01368 0.33867999999999965" stroke-linecap="round" />
</g>
<g transform="matrix(0.65 0.42 -0.42 0.65 319.81 213.1)" id="OyBTBNBW0WJrFlU_bLXoI"  >
<path style="stroke: rgb(0,0,0); stroke-width: 1; stroke-dasharray: none; stroke-linecap: butt; stroke-dashoffset: 0; stroke-linejoin: miter; stroke-miterlimit: 4; fill: rgb(255,255,255); fill-opacity: 0; fill-rule: nonzero; opacity: 1;" vector-effect="non-scaling-stroke"  transform=" translate(0, 0)" d="M 2.0191 -1.75377 C 0.42784 0.01475000000000004 -2.0190900000000003 1.7537800000000001 -2.0190900000000003 1.7537800000000001" stroke-linecap="round" />
</g>
<g transform="matrix(0.65 0.42 -0.42 0.65 318.85 210.15)" id="6q32F1dpD1JkImv0H95WE"  >
<path style="stroke: rgb(0,0,0); stroke-width: 1; stroke-dasharray: none; stroke-linecap: butt; stroke-dashoffset: 0; stroke-linejoin: miter; stroke-miterlimit: 4; fill: rgb(59,59,59); fill-rule: nonzero; opacity: 1;" vector-effect="non-scaling-stroke"  transform=" translate(0, 0)" d="M -1.40341 -1.72212 L -1.52535 1.72212 L 1.0333299999999999 1.72212 L 1.5253599999999998 -1.1597899999999999 z" stroke-linecap="round" />
</g>
<g transform="matrix(0.84 -0.08 0.08 0.87 250.36 433.43)" id="cJf_RHxeQ8bXCXqx_viVx"  >
<path style="stroke: rgb(0,0,0); stroke-width: 1; stroke-dasharray: none; stroke-linecap: butt; stroke-dashoffset: 0; stroke-linejoin: miter; stroke-miterlimit: 4; fill: rgb(63,63,63); fill-rule: nonzero; opacity: 1;" vector-effect="non-scaling-stroke"  transform=" translate(0, 0)" d="M -2.53459 -0.64546 L 1.4452699999999998 2.06238 L 2.5345899999999997 0.6696700000000002 L -1.6672600000000006 -2.0623899999999997 z" stroke-linecap="round" />
</g>
<g transform="matrix(0.79 -0.07 0.07 0.79 252.69 435.62)" id="31OXYgHQgZm2IrNV24_3P"  >
<path style="stroke: rgb(0,0,0); stroke-width: 1; stroke-dasharray: none; stroke-linecap: butt; stroke-dashoffset: 0; stroke-linejoin: miter; stroke-miterlimit: 4; fill: rgb(63,63,63); fill-rule: nonzero; opacity: 1;" vector-effect="non-scaling-stroke"  transform=" translate(0, 0)" d="M 0.30762 -2.02592 C 0.34032 -2.09913 1.60803 -0.3914000000000002 1.46161 1.4211799999999997 C 1.01423 2.4365099999999997 -1.4733699999999998 1.8713699999999998 -1.4733699999999998 1.8713699999999998 z" stroke-linecap="round" />
</g>
<g transform="matrix(0.84 -0.08 0.08 0.87 238.93 427.03)" id="T0NKYyIf5BsdqP3Cj7sUf"  >
<path style="stroke: rgb(0,0,0); stroke-width: 1; stroke-dasharray: none; stroke-linecap: butt; stroke-dashoffset: 0; stroke-linejoin: miter; stroke-miterlimit: 4; fill: rgb(63,63,63); fill-rule: nonzero; opacity: 1;" vector-effect="non-scaling-stroke"  transform=" translate(0, 0)" d="M -2.5834 -0.40541 L 1.6594499999999996 2.2048400000000004 L 2.5833999999999997 0.7360200000000003 L -1.8084600000000006 -2.2048399999999995 z" stroke-linecap="round" />
</g>
<g transform="matrix(0.79 -0.07 0.07 0.79 241.15 429.1)" id="gE89iH3GJsgdr1rGboXpT"  >
<path style="stroke: rgb(0,0,0); stroke-width: 1; stroke-dasharray: none; stroke-linecap: butt; stroke-dashoffset: 0; stroke-linejoin: miter; stroke-miterlimit: 4; fill: rgb(63,63,63); fill-rule: nonzero; opacity: 1;" vector-effect="non-scaling-stroke"  transform=" translate(0, 0)" d="M 0.4555 -1.86062 C 0.48810000000000003 -1.9336 1.39633 -0.16174999999999984 1.46444 1.13821 C 1.0170599999999999 2.15354 -1.46444 1.8050899999999999 -1.46444 1.8050899999999999 z" stroke-linecap="round" />
</g>
<g transform="matrix(0.76 -0.11 0.11 0.76 217.89 433.52)" id="y4IAFucQS4Gy-dZm3KL2X"  >
<path style="stroke: rgb(0,0,0); stroke-width: 1; stroke-dasharray: none; stroke-linecap: butt; stroke-dashoffset: 0; stroke-linejoin: miter; stroke-miterlimit: 4; fill: rgb(0,103,172); fill-rule: nonzero; opacity: 1;" vector-effect="non-scaling-stroke"  transform=" translate(0, 0)" d="M -38.98087 -41.52894 C -52.84499 -23.605839999999997 -56.21209 1.0047899999999998 -56.21209 1.0047899999999998 C -56.21209 1.0047899999999998 -56.71454000000001 6.4315 -52.29316 8.111149999999999 C -48.01404 9.736759999999999 16.366799999999998 34.55305 50.180499999999995 47.58678999999999 L 50.180499999999995 47.58678999999999 C 51.04613 47.920449999999995 49.0586 42.59851999999999 49.88352999999999 42.17408999999999 C 50.70844999999999 41.74965999999999 54.267289999999996 46.263149999999996 54.499069999999996 45.364869999999996 C 56.339909999999996 38.23076999999999 57.43579 34.24892 53.964459999999995 23.044679999999996 C 49.94407999999999 10.068309999999997 34.369589999999995 2.7719099999999948 24.242009999999997 -6.5834300000000034 C 21.750359999999997 -9.108230000000002 16.802139999999998 -11.745100000000004 18.071899999999996 -21.255740000000003 C 17.261089999999996 -33.14763000000001 -25.116750000000007 -59.45205 -38.98087000000001 -41.52895 z" stroke-linecap="round" />
</g>
<g transform="matrix(0.85 0 0 0.85 160.55 422.65)" id="-LQhQyfPcUxIRbGqLKgxx"  >
<path style="stroke: rgb(0,0,0); stroke-width: 1; stroke-dasharray: none; stroke-linecap: butt; stroke-dashoffset: 0; stroke-linejoin: miter; stroke-miterlimit: 4; fill: rgb(0,0,0); fill-opacity: 0.9; fill-rule: nonzero; opacity: 1;" vector-effect="non-scaling-stroke"  transform=" translate(0, 0)" d="M 0.88777 20.22222 L 9.14692 7.1102799999999995 L -0.7910500000000003 -18.35166 L -9.03515 -20.219939999999998 L -9.03515 -20.219939999999998 C -9.066139999999999 -20.22696 -9.098559999999999 -20.217409999999997 -9.12079 -20.194709999999997 C -9.14302 -20.172009999999997 -9.15189 -20.1394 -9.144219999999999 -20.108559999999997 z" stroke-linecap="round" />
</g>
<g transform="matrix(0.85 0 0 0.85 166.57 416.21)" id="m1x5t4JDuSZiUh5JyvOLU"  >
<path style="stroke: rgb(0,0,0); stroke-width: 1; stroke-dasharray: none; stroke-linecap: butt; stroke-dashoffset: 0; stroke-linejoin: miter; stroke-miterlimit: 4; fill: rgb(0,0,0); fill-opacity: 0.9; fill-rule: nonzero; opacity: 1;" vector-effect="non-scaling-stroke"  transform=" translate(0, 0)" d="M -3.09099 -14.48413 C -2.99962 -14.55352 -2.8814100000000002 -14.57703 -2.7704400000000002 -14.547880000000001 C -2.6594700000000002 -14.518730000000001 -2.56808 -14.44017 -2.5226 -14.33483 L 7.70407 9.35275 L 2.02562 14.56015 L -7.7040500000000005 -10.98075 z" stroke-linecap="round" />
</g>
<g transform="matrix(0.85 0 0 0.85 158.41 404.53)" id="TEQYs76mboJRTkQdhHHzm"  >
<path style="stroke: rgb(0,0,0); stroke-width: 1; stroke-dasharray: none; stroke-linecap: butt; stroke-dashoffset: 0; stroke-linejoin: miter; stroke-miterlimit: 4; fill: rgb(0,0,0); fill-opacity: 0.9; fill-rule: nonzero; opacity: 1;" vector-effect="non-scaling-stroke"  transform=" translate(0, 0)" d="M -6.68428 1.07517 C -6.75596 1.06084 -6.81207 1.00497 -6.82673 0.9333499999999999 C -6.84138 0.86174 -6.81172 0.7883199999999999 -6.75143 0.7469799999999999 L -1.6375799999999998 -2.75936 L 6.678789999999999 -1.09181 L 6.678789999999999 -1.09181 C 6.752839999999999 -1.07696 6.810909999999999 -1.0193999999999999 6.8264 -0.94548 C 6.841889999999999 -0.87156 6.81182 -0.79553 6.749969999999999 -0.7522 L 1.7370599999999996 2.75934 z" stroke-linecap="round" />
</g>
<g transform="matrix(0.85 0 0 0.85 172.18 437.18)" id="knRUYGjJuGaf6z07Y45Jf"  >
<path style="stroke: rgb(0,0,0); stroke-width: 1; stroke-dasharray: none; stroke-linecap: butt; stroke-dashoffset: 0; stroke-linejoin: miter; stroke-miterlimit: 4; fill: rgb(63,63,63); fill-rule: nonzero; opacity: 1;" vector-effect="non-scaling-stroke"  transform=" translate(0, 0)" d="M 10.94807 10.06844 C 10.94807 10.06844 -8.68753 6.5531500000000005 -13.303400000000002 3.3615600000000008 C -10.299740000000002 -2.569069999999999 -4.527340000000002 -10.068439999999999 -4.527340000000002 -10.068439999999999 C -4.527340000000002 -10.068439999999999 2.135279999999998 -6.172979999999999 13.303409999999996 -3.9602999999999993 C 12.263949999999996 3.099500000000001 10.948069999999996 10.068440000000002 10.948069999999996 10.068440000000002 z" stroke-linecap="round" />
</g>
<g transform="matrix(0.85 0 0 0.85 176.14 428.82)" id="3s09rz6tUh4j5qlHDK6lF"  >
<path style="stroke: rgb(0,0,0); stroke-width: 1; stroke-dasharray: none; stroke-linecap: butt; stroke-dashoffset: 0; stroke-linejoin: miter; stroke-miterlimit: 4; fill: rgb(129,129,129); fill-rule: nonzero; opacity: 1;" vector-effect="non-scaling-stroke"  transform=" translate(0, 0)" d="M -3.35375 -5.48721 L -9.063289999999999 -0.2024499999999998 C -9.063289999999999 -0.2024499999999998 -1.3245299999999984 5.60843 9.063280000000002 5.59122 C -0.7954099999999968 2.52834 -0.6023299999999967 0.3973399999999998 -0.48645999999999745 -0.6650900000000002 C -0.37059999999999743 -1.7275200000000002 -0.37659999999999744 -3.0170500000000002 0.1677000000000025 -5.458200000000001 C -1.5760299999999976 -5.739580000000001 -3.3537499999999976 -5.487210000000001 -3.3537499999999976 -5.487210000000001 z" stroke-linecap="round" />
</g>
<g transform="matrix(0.65 0.42 -0.42 0.65 307.26 208.76)" id="3ZBySGbAzbIHBco9fppiS"  >
<path style="stroke: rgb(0,0,0); stroke-width: 1; stroke-dasharray: none; stroke-linecap: butt; stroke-dashoffset: 0; stroke-linejoin: miter; stroke-miterlimit: 4; fill: rgb(23,23,23); fill-rule: nonzero; opacity: 1;" vector-effect="non-scaling-stroke"  transform=" translate(0, 0)" d="M 16.56752 -1.90065 L 15.640349999999998 1.38718 C 15.640349999999998 1.38718 9.386039999999998 1.63218 7.450239999999997 1.85468 C 5.514439999999997 2.0771800000000002 3.5881199999999973 2.69212 0.4067099999999977 2.64953 C -0.19383000000000228 2.64149 -16.567540000000005 2.4207899999999998 -16.567540000000005 2.4207899999999998 L -15.863800000000005 -1.9006500000000002 L 15.377029999999994 -2.6516400000000004 z" stroke-linecap="round" />
</g>
<g transform="matrix(0.25 0.16 -0.16 0.25 311.61 203.02)" id="2RcRmxiGH1X8BtnDHWhiw"  >
<path style="stroke: rgb(0,0,0); stroke-width: 1; stroke-dasharray: none; stroke-linecap: butt; stroke-dashoffset: 0; stroke-linejoin: miter; stroke-miterlimit: 4; fill: rgb(41,41,41); fill-rule: nonzero; opacity: 1;" vector-effect="non-scaling-stroke"  transform=" translate(0, 0)" d="M -39.83325 -5.18526 C -39.83325 -5.18526 -26.11279 -8.33024 -13.302050000000001 -12.610140000000001 C -2.510220000000002 -16.21554 7.3899599999999985 -21.02619 10.360589999999998 -21.43963 C 14.738969999999998 -21.92013 34.45278 -25.81352 43.70339 -20.97972 C 45.82535 -16.663330000000002 48.06702 -7.79111 47.36302 -2.1044599999999996 C 45.654309999999995 0.2540600000000004 42.04298 4.3689800000000005 39.88626 6.12818 C 39.64608 6.103160000000001 35.20217 6.4581100000000005 35.20217 6.4581100000000005 C 35.20217 6.4581100000000005 30.267100000000003 7.280240000000001 29.62377 0.7738000000000005 C 29.62377 0.7738000000000005 35.853120000000004 -3.709339999999999 36.35034 -5.18528 C 36.84756 -6.66122 35.485510000000005 -9.934069999999998 34.063140000000004 -10.8478 C 32.71314 -11.715019999999999 22.796270000000003 -8.95335 17.383660000000003 -7.451099999999999 L 17.383660000000003 -7.451099999999999 C 16.835760000000004 -7.299029999999999 16.40566 -6.874129999999999 16.246930000000003 -6.328119999999999 C 15.274870000000002 -2.984339999999999 14.198340000000002 0.6345300000000007 15.088300000000002 4.16021 C 16.054340000000003 7.98732 28.70373 6.88792 28.70373 6.88792 L 40.12082 6.12818 C 40.12082 6.12818 44.70083 15.52515 40.12082 19.582720000000002 L 29.251810000000003 20.13951 C 29.251810000000003 20.13951 16.725060000000003 21.00383 14.671160000000002 21.54859 C 12.617230000000003 22.09335 7.000490000000002 22.42868 1.837830000000002 23.10357 C -3.3248399999999982 23.778450000000003 -16.505409999999998 23.016840000000002 -24.77986 22.7803 C -33.05428 22.54376 -47.495000000000005 22.21467 -47.495000000000005 22.21467 z" stroke-linecap="round" />
</g>
<g transform="matrix(0.66 0.43 -0.46 0.72 319.37 205.79)" id="et_jM23cTR11urvkk2nKi"  >
<path style="stroke: rgb(0,0,0); stroke-width: 1; stroke-dasharray: none; stroke-linecap: butt; stroke-dashoffset: 0; stroke-linejoin: miter; stroke-miterlimit: 4; fill: rgb(0,69,115); fill-rule: nonzero; opacity: 1;" vector-effect="non-scaling-stroke"  transform=" translate(0, 0)" d="M -4.21153 3.98073 C -3.0743 4.89489 -0.2697999999999996 4.82146 1.1331699999999998 4.6488499999999995 C 1.1461199999999998 4.25139 1.1331699999999998 2.2771999999999997 1.1331699999999998 2.2771999999999997 L 2.0277899999999995 1.5189999999999997 C 2.0277899999999995 1.5189999999999997 2.7502499999999994 -1.3294700000000002 4.21153 -3.4415300000000006 C 2.7389099999999997 -5.0587100000000005 -4.04391 -4.727670000000001 -4.04391 -4.727670000000001 C -4.04391 -4.727670000000001 -4.17964 1.0535799999999993 -4.211530000000001 3.9807299999999985 z" stroke-linecap="round" />
</g>
<g transform="matrix(0.68 0.43 -1.02 1.58 321.35 202.86)" id="4IyUsLOmz6pxCT_toam73"  >
<path style="stroke: rgb(0,0,0); stroke-width: 1; stroke-dasharray: none; stroke-linecap: butt; stroke-dashoffset: 0; stroke-linejoin: miter; stroke-miterlimit: 4; fill: rgb(0,32,53); fill-rule: nonzero; opacity: 1;" vector-effect="non-scaling-stroke"  transform=" translate(0, 0)" d="M -4.13092 -0.20688 C -4.156499999999999 -0.54721 -1.9001099999999997 -0.9852700000000001 0.38944000000000045 -0.74003 C 2.6789900000000006 -0.49478999999999995 4.13072 -0.20897 4.13044 0.14494000000000007 C 4.1792300000000004 0.5881200000000001 1.6575600000000001 0.9089 -0.4138599999999997 0.7843800000000001 C -2.4852799999999995 0.6598600000000001 -4.14664 0.5754000000000001 -4.13092 -0.20687999999999995 z" stroke-linecap="round" />
</g>
<g transform="matrix(0.83 0.53 -0.42 0.66 288.67 185.33)" id="fpoT8fb9FWN7-ILGboTwV"  >
<path style="stroke: rgb(0,0,0); stroke-width: 1; stroke-dasharray: none; stroke-linecap: butt; stroke-dashoffset: 0; stroke-linejoin: miter; stroke-miterlimit: 4; fill: rgb(196,20,20); fill-rule: nonzero; opacity: 1;" vector-effect="non-scaling-stroke"  transform=" translate(0, 0)" d="M -17.92209 -14.84996 C -18.38216 -11.78352 -16.9207 -8.60512 -13.44392 -7.48971 C -10.028590000000001 -6.67679 18.700490000000002 -4.97408 22.29817 -5.01486 C 22.16726 -4.23527 19.249499999999998 18.929560000000002 19.14641 18.86343 C 11.61841 17.63324 -4.73086 17.12216 -17.289350000000002 14.834400000000002 C -23.919010000000004 13.626690000000002 -22.057410000000004 6.104810000000002 -22.057410000000004 6.104810000000002 C -22.057410000000004 6.104810000000002 -14.757000000000005 -30.83885 -17.922090000000004 -14.849959999999998 z" stroke-linecap="round" />
</g>
<g transform="matrix(0.77 -0.11 0.11 0.77 200.64 442.17)" id="EhhWGIp8Bq1HZarXNx-d5"  >
<path style="stroke: rgb(0,0,0); stroke-width: 1; stroke-dasharray: none; stroke-linecap: butt; stroke-dashoffset: 0; stroke-linejoin: miter; stroke-miterlimit: 4; fill: rgb(0,103,172); fill-rule: nonzero; opacity: 1;" vector-effect="non-scaling-stroke"  transform=" translate(0, 0)" d="M -38.98087 -41.63023 C -52.84499 -23.707129999999996 -56.21209 0.9035000000000011 -56.21209 0.9035000000000011 C -56.21209 0.9035000000000011 -56.71454000000001 6.330210000000001 -52.29316 8.00986 C -48.01404 9.63547 16.366799999999998 34.45176 50.180499999999995 47.4855 L 50.180499999999995 47.4855 C 51.04613 47.819160000000004 52.01304 47.767250000000004 52.83797 47.34282 C 53.66289 46.91839 54.267289999999996 46.161860000000004 54.499069999999996 45.263580000000005 C 56.339909999999996 38.12948 57.43579 34.14763000000001 53.964459999999995 22.943390000000004 C 49.94407999999999 9.967020000000005 34.369589999999995 2.670620000000003 24.242009999999997 -6.684719999999995 C 21.750359999999997 -9.209519999999994 16.802139999999998 -11.846389999999996 18.071899999999996 -21.357029999999995 C 17.261089999999996 -33.24892 -25.116750000000007 -59.55333999999999 -38.98087000000001 -41.63023999999999 z" stroke-linecap="round" />
</g>
<g transform="matrix(0.87 0 0 0.87 143.11 431.46)" id="SVfg6bGFY0QEVGmzuqHDG"  >
<path style="stroke: rgb(0,0,0); stroke-width: 1; stroke-dasharray: none; stroke-linecap: butt; stroke-dashoffset: 0; stroke-linejoin: miter; stroke-miterlimit: 4; fill: rgb(0,0,0); fill-opacity: 0.9; fill-rule: nonzero; opacity: 1;" vector-effect="non-scaling-stroke"  transform=" translate(0, 0)" d="M 0.88777 20.22222 L 9.14692 7.1102799999999995 L -0.7910500000000003 -18.35166 L -9.03515 -20.219939999999998 L -9.03515 -20.219939999999998 C -9.066139999999999 -20.22696 -9.098559999999999 -20.217409999999997 -9.12079 -20.194709999999997 C -9.14302 -20.172009999999997 -9.15189 -20.1394 -9.144219999999999 -20.108559999999997 z" stroke-linecap="round" />
</g>
<g transform="matrix(0.87 0 0 0.87 149.25 424.89)" id="IhrzGvCFGI1EHdpCFGOLu"  >
<path style="stroke: rgb(0,0,0); stroke-width: 1; stroke-dasharray: none; stroke-linecap: butt; stroke-dashoffset: 0; stroke-linejoin: miter; stroke-miterlimit: 4; fill: rgb(0,0,0); fill-opacity: 0.9; fill-rule: nonzero; opacity: 1;" vector-effect="non-scaling-stroke"  transform=" translate(0, 0)" d="M -3.09099 -14.48413 C -2.99962 -14.55352 -2.8814100000000002 -14.57703 -2.7704400000000002 -14.547880000000001 C -2.6594700000000002 -14.518730000000001 -2.56808 -14.44017 -2.5226 -14.33483 L 7.70407 9.35275 L 2.02562 14.56015 L -7.7040500000000005 -10.98075 z" stroke-linecap="round" />
</g>
<g transform="matrix(0.87 0 0 0.87 140.93 412.97)" id="_HKDPto3LLjJz6ASZSFf-"  >
<path style="stroke: rgb(0,0,0); stroke-width: 1; stroke-dasharray: none; stroke-linecap: butt; stroke-dashoffset: 0; stroke-linejoin: miter; stroke-miterlimit: 4; fill: rgb(0,0,0); fill-opacity: 0.9; fill-rule: nonzero; opacity: 1;" vector-effect="non-scaling-stroke"  transform=" translate(0, 0)" d="M -6.68428 1.07517 C -6.75596 1.06084 -6.81207 1.00497 -6.82673 0.9333499999999999 C -6.84138 0.86174 -6.81172 0.7883199999999999 -6.75143 0.7469799999999999 L -1.6375799999999998 -2.75936 L 6.678789999999999 -1.09181 L 6.678789999999999 -1.09181 C 6.752839999999999 -1.07696 6.810909999999999 -1.0193999999999999 6.8264 -0.94548 C 6.841889999999999 -0.87156 6.81182 -0.79553 6.749969999999999 -0.7522 L 1.7370599999999996 2.75934 z" stroke-linecap="round" />
</g>
<g transform="matrix(0.87 0 0 0.87 154.98 446.29)" id="BbMM_6K3sy98dXTMXZb9-"  >
<path style="stroke: rgb(0,0,0); stroke-width: 1; stroke-dasharray: none; stroke-linecap: butt; stroke-dashoffset: 0; stroke-linejoin: miter; stroke-miterlimit: 4; fill: rgb(63,63,63); fill-rule: nonzero; opacity: 1;" vector-effect="non-scaling-stroke"  transform=" translate(0, 0)" d="M 10.94807 10.06844 C 10.94807 10.06844 -8.68753 6.5531500000000005 -13.303400000000002 3.3615600000000008 C -10.299740000000002 -2.569069999999999 -4.527340000000002 -10.068439999999999 -4.527340000000002 -10.068439999999999 C -4.527340000000002 -10.068439999999999 2.135279999999998 -6.172979999999999 13.303409999999996 -3.9602999999999993 C 12.263949999999996 3.099500000000001 10.948069999999996 10.068440000000002 10.948069999999996 10.068440000000002 z" stroke-linecap="round" />
</g>
<g transform="matrix(0.87 0 0 0.87 159.02 437.76)" id="A6FjUeLvBINFskMt7zbyg"  >
<path style="stroke: rgb(0,0,0); stroke-width: 1; stroke-dasharray: none; stroke-linecap: butt; stroke-dashoffset: 0; stroke-linejoin: miter; stroke-miterlimit: 4; fill: rgb(129,129,129); fill-rule: nonzero; opacity: 1;" vector-effect="non-scaling-stroke"  transform=" translate(0, 0)" d="M -3.35375 -5.48721 L -9.063289999999999 -0.2024499999999998 C -9.063289999999999 -0.2024499999999998 -1.3245299999999984 5.60843 9.063280000000002 5.59122 C -0.7954099999999968 2.52834 -0.6023299999999967 0.3973399999999998 -0.48645999999999745 -0.6650900000000002 C -0.37059999999999743 -1.7275200000000002 -0.37659999999999744 -3.0170500000000002 0.1677000000000025 -5.458200000000001 C -1.5760299999999976 -5.739580000000001 -3.3537499999999976 -5.487210000000001 -3.3537499999999976 -5.487210000000001 z" stroke-linecap="round" />
</g>
<g transform="matrix(0.79 0 0 0.79 185.29 427.82)" id="kBLMkZOdWyj57enAOtiJX"  >
<path style="stroke: rgb(0,0,0); stroke-width: 1; stroke-dasharray: none; stroke-linecap: butt; stroke-dashoffset: 0; stroke-linejoin: miter; stroke-miterlimit: 4; fill: rgb(255,255,255); fill-opacity: 0; fill-rule: nonzero; opacity: 1;" vector-effect="non-scaling-stroke"  transform=" translate(0, 0)" d="M -17.3527 -16.01219 C -17.3527 -16.01219 -18.4998 6.888639999999999 -14.27747 11.750239999999998 C -11.3561 14.877229999999997 -3.3972599999999993 17.09246 0.2553800000000006 15.461379999999998 C 7.724150000000001 11.662039999999998 17.49487 -6.507540000000002 17.49487 -6.507540000000002 z" stroke-linecap="round" />
</g>
<g transform="matrix(0.29 0.08 -0.09 0.31 181.02 430.62)" id="JyNHszu1snP3F0UQYxV_e"  >
<path style="stroke: rgb(0,0,0); stroke-width: 0; stroke-dasharray: none; stroke-linecap: butt; stroke-dashoffset: 0; stroke-linejoin: miter; stroke-miterlimit: 4; fill: rgb(51,52,53); fill-rule: nonzero; opacity: 1;" vector-effect="non-scaling-stroke"  transform=" translate(0, 0)" d="M 0 -10.1833 C 5.62118 -10.1833 10.1833 -5.621179999999999 10.1833 0 C 10.1833 5.62118 5.621179999999999 10.1833 0 10.1833 C -5.62118 10.1833 -10.1833 5.621179999999999 -10.1833 0 C -10.1833 -5.62118 -5.621179999999999 -10.1833 0 -10.1833 z" stroke-linecap="round" />
</g>
<g transform="matrix(0.79 0 0 0.79 181.02 430.62)" id="_0VRMm9XINPYD-J95jKTK"  >
<path style="stroke: rgb(0,0,0); stroke-width: 1; stroke-dasharray: none; stroke-linecap: butt; stroke-dashoffset: 0; stroke-linejoin: miter; stroke-miterlimit: 4; fill: rgb(255,255,255); fill-opacity: 0; fill-rule: nonzero; opacity: 1;" vector-effect="non-scaling-stroke"  transform=" translate(0, 0)" d="M -1.94068 -0.45603 L 1.94068 0.45602000000000004" stroke-linecap="round" />
</g>
<g transform="matrix(0.79 0 0 0.82 181.02 430.62)" id="DuxFtuMF1M_4fiY5BBiso"  >
<path style="stroke: rgb(0,0,0); stroke-width: 1; stroke-dasharray: none; stroke-linecap: butt; stroke-dashoffset: 0; stroke-linejoin: miter; stroke-miterlimit: 4; fill: rgb(255,255,255); fill-opacity: 0; fill-rule: nonzero; opacity: 1;" vector-effect="non-scaling-stroke"  transform=" translate(0, 0)" d="M 0.43616 -1.83353 L -0.43615000000000004 1.83352" stroke-linecap="round" />
</g>
<g transform="matrix(1 0.17 -0.14 0.82 224.2 331.36)" id="KPRMOWeQb8yFjT2zzTLQU"  >
<path style="stroke: rgb(0,0,0); stroke-width: 1; stroke-dasharray: none; stroke-linecap: butt; stroke-dashoffset: 0; stroke-linejoin: miter; stroke-miterlimit: 4; fill: rgb(34,34,34); fill-rule: nonzero; opacity: 1;" vector-effect="non-scaling-stroke"  transform=" translate(0, 0)" d="M 29.24352 0.57781 C 29.01736 10.92666 28.26977 19.48004 25.82185 25.8004 C 23.37393 32.12076 15.16928 43.23144 10.433220000000002 58.48097 C 6.216610000000002 81.59638 5.873050000000002 103.80118 5.873050000000002 103.80118 C 5.873050000000002 103.80118 12.901990000000001 105.53320000000001 16.16935 104.98095 C 19.43671 104.4287 22.044990000000002 102.77195 22.044990000000002 102.77195 C 22.044990000000002 102.77195 21.977990000000002 76.518 24.73147 59.516380000000005 C 27.37769 50.617630000000005 33.07596 40.043110000000006 38.8073 27.915210000000005 C 43.699419999999996 18.631760000000007 43.256699999999995 15.112260000000006 44.36271 2.9331000000000067 C 45.17432 -18.998089999999994 42.42773 -66.41496 36.07595 -96.24306999999999 C 15.95045 -119.34467 -37.117039999999996 -134.94198999999998 -33.064699999999995 -91.62971999999999 C -29.012359999999994 -48.317449999999994 -16.781609999999993 -12.196799999999996 -15.847739999999995 -5.19292999999999 C -14.913869999999994 1.8109400000000102 -15.458709999999995 4.63708000000001 -17.298929999999995 9.89951000000001 C -19.139149999999994 15.16194000000001 -34.844359999999995 47.15289000000001 -34.844359999999995 47.15289000000001 C -34.844359999999995 47.15289000000001 -44.02560999999999 100.45030000000001 -44.50144999999999 102.77195 C -36.258799999999994 122.21545 -8.48628999999999 118.89363 -4.676709999999993 118.64081 C -0.8671299999999929 118.388 5.1771000000000065 116.10654 5.1771000000000065 116.10654 C 5.1771000000000065 116.10654 6.4058900000000065 78.28005999999999 10.433230000000005 58.480959999999996 C 15.397710000000005 42.923539999999996 23.429970000000004 31.492719999999995 25.821860000000004 25.800389999999993 C 28.213750000000005 20.108059999999995 28.824850000000005 12.939479999999993 29.243530000000003 0.5777999999999928 C 29.662220000000005 -11.783890000000007 29.819370000000003 -33.743820000000014 24.559580000000004 -57.40254 C 29.808760000000003 -33.77901 29.469700000000003 -9.771050000000002 29.243530000000003 0.5777999999999963 z" stroke-linecap="round" />
</g>
<g transform="matrix(0.74 0.13 -0.13 0.74 259.74 175.17)" id="WLGfgYjMtYzS-37C7uwjs"  >
<path style="stroke: rgb(0,0,0); stroke-width: 1; stroke-dasharray: none; stroke-linecap: butt; stroke-dashoffset: 0; stroke-linejoin: miter; stroke-miterlimit: 4; fill: rgb(113,1,1); fill-rule: nonzero; opacity: 1;" vector-effect="non-scaling-stroke"  transform=" translate(0, 0)" d="M -27.84248 -114.58118 C -27.84248 -114.58118 -48.434709999999995 -94.1678 -48.86056 -93.71134 C -51.89328 -90.60851000000001 -54.02916 -77.47346 -54.02916 -77.47346 C -54.02916 -77.47346 -54.1226 -66.05961 -56.893429999999995 -41.02919 C -60.87723 -5.041350000000001 -67.67329 53.92171999999999 -64.69559 103.90163000000001 C -64.02071 109.65105000000001 -59.189699999999995 111.05984000000001 -58.54993999999999 111.37889000000001 C -57.91018999999999 111.69794000000002 -8.49237999999999 131.08076 33.916380000000004 115.18584000000001 C 38.71522 113.47675000000001 41.219300000000004 108.4377 41.801260000000006 106.94821000000002 C 42.38322000000001 105.45872000000001 46.15008 3.1162900000000207 60.24642000000001 -65.38974999999999 C 62.045550000000006 -74.77564999999998 64.93346000000001 -82.37261 65.30795 -88.26165999999999 C 65.68244 -94.15071999999999 65.28215 -97.36182 62.726670000000006 -102.62056 C 60.43274 -107.55178 49.746390000000005 -112.75077999999999 49.746390000000005 -112.75077999999999 L 46.617560000000005 -110.03182 L 41.367070000000005 -110.03182 L 23.375270000000004 -109.83377999999999 L -2.959909999999997 -121.43919 z" stroke-linecap="round" />
</g>
<g transform="matrix(0.72 0.47 -0.47 0.72 270.6 226.71)" id="KYTejbr7ayvtbIBXKx-SI"  >
<path style="stroke: rgb(0,0,0); stroke-width: 1; stroke-dasharray: none; stroke-linecap: butt; stroke-dashoffset: 0; stroke-linejoin: miter; stroke-miterlimit: 4; fill: rgb(0,69,115); fill-rule: nonzero; opacity: 1;" vector-effect="non-scaling-stroke"  transform=" translate(0, 0)" d="M 6.03385 -17.23974 C 6.03385 -17.23974 4.2205 -13.34598 3.99669 -11.204460000000001 C 3.85288 -9.542930000000002 1.77394 13.7914 2.35645 16.433799999999998 C -2.95712 19.037909999999997 -6.033849999999999 16.433799999999998 -6.033849999999999 16.433799999999998 L -3.6070599999999993 -17.591190000000005 z" stroke-linecap="round" />
</g>
<g transform="matrix(0.72 0.47 -0.47 0.72 279.8 214.49)" id="NUDSIS7INTgYQbjYFJCZu"  >
<path style="stroke: rgb(0,0,0); stroke-width: 1; stroke-dasharray: none; stroke-linecap: butt; stroke-dashoffset: 0; stroke-linejoin: miter; stroke-miterlimit: 4; fill: rgb(0,32,53); fill-rule: nonzero; opacity: 1;" vector-effect="non-scaling-stroke"  transform=" translate(0, 0)" d="M -4.87306 -0.51875 C -4.92584 -1.17413 -2.2836899999999996 -1.64992 0.46476000000000006 -1.1511300000000002 C 3.21321 -0.6523400000000001 4.88807 -0.0003300000000001635 4.87374 0.21499999999999986 C 4.816879999999999 0.9407299999999998 1.4757699999999998 1.44145 -0.8370000000000006 1.3472 C -3.1497700000000006 1.25294 -4.72161 0.3671899999999999 -4.873060000000001 -0.51875 z" stroke-linecap="round" />
</g>
<g transform="matrix(0.63 0.41 -0.41 0.63 250.01 213.95)" id="sTo9GZdXzjJATV6pP0sRt"  >
<path style="stroke: rgb(0,0,0); stroke-width: 1; stroke-dasharray: none; stroke-linecap: butt; stroke-dashoffset: 0; stroke-linejoin: miter; stroke-miterlimit: 4; fill: rgb(117,10,10); fill-rule: nonzero; opacity: 1;" vector-effect="non-scaling-stroke"  transform=" translate(0, 0)" d="M 9.07557 -18.04624 C 9.07557 -18.04624 12.43007 -20.890790000000003 13.216890000000001 -13.352210000000001 C 14.003700000000002 -5.813640000000001 12.291490000000001 9.39092 10.692210000000001 13.279739999999999 C 9.09293 17.16856 6.396890000000001 18.572429999999997 6.396890000000001 18.572429999999997 L -13.41439 4.343329999999996 z" stroke-linecap="round" />
</g>
<g transform="matrix(0.68 0.43 -0.43 0.68 264.03 222.47)" id="ZSPijkVi5CX9k545wXvOK"  >
<path style="stroke: rgb(0,0,0); stroke-width: 1; stroke-dasharray: none; stroke-linecap: butt; stroke-dashoffset: 0; stroke-linejoin: miter; stroke-miterlimit: 4; fill: rgb(41,41,41); fill-rule: nonzero; opacity: 1;" vector-effect="non-scaling-stroke"  transform=" translate(0, 0)" d="M -19.12692 10.32728 L -20.36321 -5.8777300000000015 L -15.384559999999999 -10.525730000000001 C -15.384559999999999 -10.525730000000001 -2.1467599999999987 -14.48759 2.5771800000000002 -14.65662 C 6.65542 -14.96841 13.89858 -13.68732 19.156979999999997 -13.3428 C 20.629499999999997 -10.366330000000001 19.391509999999997 -7.940130000000001 18.992679999999996 -7.42475 C 16.344339999999995 -6.90746 10.108669999999996 -7.183210000000001 5.744219999999997 -7.439920000000001 L 5.744219999999997 -7.439920000000001 C 5.682669999999996 -7.4435400000000005 5.629489999999997 -7.3973700000000004 5.624429999999997 -7.335920000000001 C 5.619369999999996 -7.274470000000001 5.664289999999997 -7.22022 5.7255999999999965 -7.213730000000001 C 10.081609999999998 -6.752300000000001 16.248029999999996 -6.175940000000001 18.978009999999998 -6.459110000000001 C 21.14811 -3.325500000000001 20.442769999999996 -1.904020000000001 19.078889999999998 0.4691099999999988 C 15.719819999999999 0.8971799999999988 10.643019999999998 0.6807799999999988 6.500099999999998 0.4213199999999988 L 6.500099999999998 0.4213199999999988 C 6.418319999999998 0.4161999999999988 6.347339999999998 0.4771499999999988 6.340029999999998 0.5587599999999988 C 6.332729999999998 0.6403799999999988 6.391759999999998 0.7129599999999988 6.473149999999998 0.7224399999999989 C 10.333239999999998 1.1720399999999989 15.189479999999996 1.656839999999999 18.22048 1.5484299999999989 C 20.48313 3.949459999999999 18.940759999999997 6.8883199999999984 17.719659999999998 7.784119999999999 C 14.484879999999997 8.070649999999999 9.309819999999997 8.21093 5.163689999999997 8.278379999999999 L 5.163689999999997 8.278379999999999 C 5.043389999999997 8.280339999999999 4.946499999999997 8.377679999999998 4.945109999999997 8.497979999999998 C 4.943719999999997 8.618279999999999 5.038319999999997 8.717849999999999 5.158539999999997 8.722589999999999 C 8.790819999999997 8.865939999999998 13.323789999999997 8.948139999999999 16.17402 8.709889999999998 C 18.09999 11.963759999999997 15.996839999999999 13.433379999999998 15.996839999999999 13.433379999999998 C 15.996839999999999 13.433379999999998 11.0869 14.945659999999998 5.840549999999999 14.671929999999998 C 0.594199999999999 14.398209999999997 0.7215499999999988 14.425269999999998 -3.329240000000002 13.907669999999998 C -7.380020000000002 13.390079999999998 -7.557950000000003 12.886179999999998 -10.249550000000003 12.521209999999998 C -12.941160000000004 12.156249999999998 -14.984820000000003 11.336949999999998 -14.984820000000003 11.336949999999998 z" stroke-linecap="round" />
</g>
<g transform="matrix(0.63 0.41 -0.41 0.63 241.38 159.45)" id="b4Qjqu6GWMOfeLg23vkae"  >
<path style="stroke: rgb(0,0,0); stroke-width: 1; stroke-dasharray: none; stroke-linecap: butt; stroke-dashoffset: 0; stroke-linejoin: miter; stroke-miterlimit: 4; fill: rgb(196,20,20); fill-rule: nonzero; opacity: 1;" vector-effect="non-scaling-stroke"  transform=" translate(0, 0)" d="M -41.32195 -69.04923 C -41.32195 -69.04923 -45.81114 -63.172929999999994 -47.89791 -54.196619999999996 C -51.19516 -26.428369999999997 -59.6828 31.887740000000008 -59.334990000000005 35.08615 C -58.70237 41.731480000000005 -55.9461 55.77113 -40.13947 60.81008 C -12.633610000000004 63.76287 43.68245 72.00896 55.67881 74.33199 C 55.60188 72.47709 52.66451 66.57898 54.27151 53.6908 C 55.87851 40.802620000000005 58.54232 39.60085 59.34537 37.451460000000004 C 47.00068 41.717240000000004 -5.3554499999999905 28.800660000000004 -5.564790000000002 28.815770000000004 C -8.569820000000002 28.176840000000006 -11.328700000000001 22.302290000000003 -10.900940000000002 19.725500000000004 C -7.539040000000002 -0.9216299999999968 -5.195050000000002 -15.557609999999997 0.7112699999999972 -42.592879999999994 C -0.9286500000000029 -48.67359999999999 -1.7142400000000029 -59.78621 -25.513640000000002 -73.14313999999999 C -34.64501 -77.34758999999998 -41.321960000000004 -69.04923 -41.321960000000004 -69.04923 z" stroke-linecap="round" />
</g>
<g transform="matrix(0.63 0.41 -0.41 0.63 262.56 220.13)" id="dHc1IAXIoAlBJ-kPTJ3qX"  >
<path style="stroke: rgb(0,0,0); stroke-width: 1; stroke-dasharray: none; stroke-linecap: butt; stroke-dashoffset: 0; stroke-linejoin: miter; stroke-miterlimit: 4; fill: rgb(0,0,0); fill-rule: nonzero; opacity: 1;" vector-effect="non-scaling-stroke"  transform=" translate(0, 0)" d="M 9.6569 -16.5488 C 9.6569 -16.5488 4.09508 -16.55671 1.6861800000000002 -16.18929 C -0.7227099999999997 -15.82187 -6.708880000000001 -11.26417 -8.40512 -8.142109999999999 C -11.37524 -2.080309999999999 -10.38638 13.72006 -10.08683 14.43007 C -9.505780000000001 15.245650000000001 -6.445820000000001 15.9037 -5.9945900000000005 16.007360000000002 C -5.54335 16.111020000000003 -2.1879500000000007 16.548810000000003 -2.1879500000000007 16.548810000000003 C -2.1879500000000007 16.548810000000003 -6.963970000000001 15.561020000000003 -7.3684400000000005 14.611960000000003 C -7.632160000000001 14.155520000000003 -8.25722 -2.245909999999995 -5.360710000000001 -7.002179999999996 C -3.101140000000001 -10.288579999999996 -0.344310000000001 -12.711569999999995 2.530569999999999 -13.696689999999997 C 5.405439999999999 -14.681819999999997 10.48665 -15.663139999999997 10.48665 -15.663139999999997 z" stroke-linecap="round" />
</g>
<g transform="matrix(0.74 0.13 -0.13 0.74 279.84 86.19)" id="EqObS9tp6PLxgSZ0GtZd1"  >
<path style="stroke: rgb(0,0,0); stroke-width: 1; stroke-dasharray: none; stroke-linecap: butt; stroke-dashoffset: 0; stroke-linejoin: miter; stroke-miterlimit: 4; fill: rgb(191,8,8); fill-rule: nonzero; opacity: 1;" vector-effect="non-scaling-stroke"  transform=" translate(0, 0)" d="M 45.01968 8.78633 C 44.8042 11.5255 43.87281 21.47451 43.28978 23.53701 C 42.70675 25.5995 39.3787 27.2675 35.76103 26.601519999999997 C 23.63897 23.689099999999996 9.553899999999999 16.883359999999996 -2.0009100000000046 11.142229999999998 C -7.558480000000005 8.291339999999998 -26.415170000000003 12.843509999999998 -34.542080000000006 15.724769999999998 C -42.66899000000001 18.606029999999997 -45.01968000000001 19.91258 -45.01968000000001 19.91258 C -45.01968000000001 19.91258 -38.03473000000001 2.132809999999999 -28.36631000000001 -11.11325 C -23.56749000000001 -17.10245 -21.523530000000008 -19.40694 -18.965570000000007 -21.43779 C -17.643940000000008 -22.48708 -15.620440000000006 -23.93291 -14.914240000000007 -24.62396 C -13.534010000000006 -25.97458 -10.435820000000007 -26.15951 -9.811440000000006 -26.4882 C -7.725680000000006 -27.586199999999998 -11.837310000000006 -25.01689 -12.807590000000006 -22.79945 C -13.777870000000007 -20.582 -13.695470000000007 -19.98289 -13.692550000000006 -17.61842 C -13.589910000000007 -14.28152 -0.9195600000000059 -3.3118800000000004 10.265869999999994 2.230219999999999 C 21.451299999999996 7.772319999999999 39.64578999999999 9.68602 40.904419999999995 9.76088 C 42.16304999999999 9.83573 44.30875999999999 10.017430000000001 45.019679999999994 8.78633 z" stroke-linecap="round" />
</g>
<g transform="matrix(0.74 0.13 -0.13 0.74 302.61 49.94)" id="xQsTW5euueijVpGykQKmS"  >
<path style="stroke: rgb(0,0,0); stroke-width: 1; stroke-dasharray: none; stroke-linecap: butt; stroke-dashoffset: 0; stroke-linejoin: miter; stroke-miterlimit: 4; fill: rgb(186,142,100); fill-rule: nonzero; opacity: 1;" vector-effect="non-scaling-stroke"  transform=" translate(0, 0)" d="M 0.97662 -43.24025 C 0.97662 -43.24025 -49.586600000000004 14.5015 -42.56306 23.176159999999996 C -35.53951 31.850819999999995 -28.86016 31.013299999999994 -18.34873 34.234519999999996 C -7.837299999999999 37.45574 35.668040000000005 48.944959999999995 38.383070000000004 39.736909999999995 C 39.02776 37.05564999999999 39.77347 25.117529999999995 43.061960000000006 10.537399999999995 C 46.350440000000006 -4.042730000000006 0.976620000000004 -43.24025 0.976620000000004 -43.24025 z" stroke-linecap="round" />
</g>
<g transform="matrix(0.74 0.13 -0.13 0.74 289.52 64.28)" id="3CflEwsuEPa1WriMb0RQ1"  >
<path style="stroke: rgb(0,0,0); stroke-width: 1; stroke-dasharray: none; stroke-linecap: butt; stroke-dashoffset: 0; stroke-linejoin: miter; stroke-miterlimit: 4; fill: rgb(54,47,47); fill-rule: nonzero; opacity: 1;" vector-effect="non-scaling-stroke"  transform=" translate(0, 0)" d="M 4.92501 -16.49826 C 4.64981 -9.217969999999998 6.59677 12.961570000000002 6.59677 12.961570000000002 L -1.0634999999999994 17.884 L -1.0634999999999994 17.884 C -1.1706299999999994 17.952840000000002 -1.2952799999999995 17.989440000000002 -1.4226199999999993 17.989440000000002 L -6.59676 17.989440000000002 L -3.1041199999999995 -16.498259999999995 C -3.1041199999999995 -16.498259999999995 0.1368200000000006 -17.989439999999995 2.144110000000001 -17.989439999999995 C 3.220080000000001 -17.232749999999996 4.92501 -16.498259999999995 4.92501 -16.498259999999995 z" stroke-linecap="round" />
</g>
<g transform="matrix(0.74 0.13 -0.13 0.74 298.47 42.13)" id="Dl6A86uCNnf7WVtDDfaSz"  >
<path style="stroke: rgb(0,0,0); stroke-width: 1; stroke-dasharray: none; stroke-linecap: butt; stroke-dashoffset: 0; stroke-linejoin: miter; stroke-miterlimit: 4; fill: rgb(24,27,28); fill-rule: nonzero; opacity: 1;" vector-effect="non-scaling-stroke"  transform=" translate(0, 0)" d="M 49.92138 -21.42968 C 40.994 -43.6528 14.67579 -50.355540000000005 4.331130000000002 -49.63521 C -2.2387799999999984 -49.31162 -27.26774 -46.48636 -47.69378 -18.2635 C -50.20937 -14.219740000000002 -49.910349999999994 2.06222 -49.910349999999994 2.06222 C -49.910349999999994 2.06222 -45.760459999999995 21.99003 -38.11554999999999 33.9814 C -16.142279999999992 32.24143 -25.16624999999999 61.64593 -2.6142799999999937 44.05755 C -8.719029999999993 -6.9636700000000005 0.6728900000000064 -10.319040000000001 1.9430700000000058 -11.297510000000003 C 3.096900000000006 -12.186360000000002 22.360720000000004 -24.38183 49.921380000000006 -21.429680000000005 z" stroke-linecap="round" />
</g>
<g transform="matrix(0.74 0.13 -0.13 0.74 279.63 37.92)" id="V1-JQdhB48TK0zlyYbz5d"  >
<path style="stroke: rgb(0,0,0); stroke-width: 1; stroke-dasharray: none; stroke-linecap: butt; stroke-dashoffset: 0; stroke-linejoin: miter; stroke-miterlimit: 4; fill: rgb(47,40,39); fill-rule: nonzero; opacity: 1;" vector-effect="non-scaling-stroke"  transform=" translate(0, 0)" d="M -22.0763 -14.99113 C -23.88278 -8.880189999999999 -23.96831 0.1151800000000005 -23.55757 3.72584 C -21.27094 6.4707 8.351960000000002 15.56109 21.4103 14.96293 C 21.266469999999998 3.85379 23.76018 -3.979119999999998 23.76018 -3.979119999999998 C 10.861249999999998 -4.803509999999998 -14.287260000000003 -11.001069999999999 -22.076300000000003 -14.991139999999998 z" stroke-linecap="round" />
</g>
<g transform="matrix(0.74 0.13 -0.13 0.74 315.13 46.73)" id="DWgFZfPuzH2_-_5G05tR0"  >
<linearGradient id="SVGID_0" gradientUnits="userSpaceOnUse" gradientTransform="matrix(1 0 0 1 -28.34 -21.15)"  x1="-14.642666933449728" y1="24.584632986465124" x2="71.3802818497661" y2="7.592139938645317">
<stop offset="0%" style="stop-color:rgb(239,0,255);stop-opacity: 1"/>
<stop offset="100%" style="stop-color:rgb(0,255,216);stop-opacity: 1"/>
</linearGradient>
<path style="stroke: rgb(0,0,0); stroke-width: 1; stroke-dasharray: none; stroke-linecap: butt; stroke-dashoffset: 0; stroke-linejoin: miter; stroke-miterlimit: 4; fill: url(#SVGID_0); fill-rule: nonzero; opacity: 1;" vector-effect="non-scaling-stroke"  transform=" translate(0, 0)" d="M -28.34287 11.92427 C -19.720080000000003 20.13505 9.248630000000002 21.15435 9.248630000000002 21.15435 C 9.248630000000002 21.15435 14.640790000000003 11.648240000000001 18.072160000000004 8.54367 C 18.072160000000004 8.54367 19.528810000000004 6.65272 21.666930000000004 8.73605 C 22.550940000000004 10.11659 23.398960000000002 12.278870000000001 24.168800000000005 14.55912 C 24.522340000000003 15.60631 25.825120000000005 19.48482 26.294070000000005 19.35249 C 27.405250000000006 18.85485 27.726850000000006 18.56014 27.778600000000004 17.84686 C 28.715580000000003 -0.0797699999999999 28.202890000000004 -18.529780000000002 28.202890000000004 -18.529780000000002 C 20.400260000000003 -24.174970000000002 -8.499649999999995 -19.963810000000002 -21.320969999999996 -12.995960000000002 C -21.320969999999996 -12.995960000000002 -28.305529999999997 -11.645980000000002 -28.342869999999994 11.924279999999998 z" stroke-linecap="round" />
</g>
<g transform="matrix(0.74 0.13 -0.13 0.74 320.49 33.97)" id="capx6Fl1HaIjoy9vkkGyJ"  >
<path style="stroke: rgb(0,0,0); stroke-width: 1; stroke-dasharray: none; stroke-linecap: butt; stroke-dashoffset: 0; stroke-linejoin: miter; stroke-miterlimit: 4; fill: rgb(15,14,14); fill-rule: nonzero; opacity: 1;" vector-effect="non-scaling-stroke"  transform=" translate(0, 0)" d="M 24.54771 4.06791 C 24.54771 4.06791 26.68388 1.5702600000000002 26.52018 -0.7280299999999995 C 26.51624 -2.6059999999999994 23.1942 -5.137969999999999 21.59714 -5.235539999999999 C -4.936309999999999 -7.127759999999999 -14.539420000000003 -0.19477999999999973 -26.52914 5.553450000000001 C -11.186220000000002 -2.72197 18.99529 -6.792839999999999 24.196029999999997 -0.5277399999999997 z" stroke-linecap="round" />
</g>
<g transform="matrix(0.83 0.14 -0.12 0.68 326.69 63.2)" id="k-YXf39saHRaLe2cL7R37"  >
<linearGradient id="SVGID_1" gradientUnits="userSpaceOnUse" gradientTransform="matrix(1 0 0 1 -4.32 -1.94)"  x1="3.4086067319983098" y1="1.6926156671309522" x2="8.194630800526744" y2="1.34979602454493">
<stop offset="0%" style="stop-color:rgb(62,30,0);stop-opacity: 1"/>
<stop offset="100%" style="stop-color:rgb(186,142,100);stop-opacity: 1"/>
</linearGradient>
<path style="stroke: rgb(0,0,0); stroke-width: 1; stroke-dasharray: none; stroke-linecap: butt; stroke-dashoffset: 0; stroke-linejoin: miter; stroke-miterlimit: 4; fill: url(#SVGID_1); fill-rule: nonzero; opacity: 1;" vector-effect="non-scaling-stroke"  transform=" translate(0, 0)" d="M -4.27315 1.5409 C -4.32751 1.6182699999999999 -4.33586 1.7283899999999999 -4.29405 1.81636 C -4.25223 1.90433 -4.16919 1.95132 -4.08633 1.9339 C -2.84188 1.67232 -0.9164700000000003 1.2076500000000001 -0.29871000000000025 1.26568 C 0.3837099999999998 1.32978 1.4547099999999997 1.67374 2.3121899999999997 1.90903 L 2.3121899999999997 1.90903 C 2.37402 1.926 2.43856 1.90023 2.47977 1.84214 L 4.3205 -0.7500899999999997 L -1.8287500000000003 -1.9374799999999996 z" stroke-linecap="round" />
</g>
<g transform="matrix(0.74 0.13 -0.13 0.74 327.89 59.72)" id="kI6qaWN1BZb861Win1tZD"  >
<path style="stroke: rgb(0,0,0); stroke-width: 1; stroke-dasharray: none; stroke-linecap: butt; stroke-dashoffset: 0; stroke-linejoin: miter; stroke-miterlimit: 4; fill: rgb(186,142,100); fill-rule: nonzero; opacity: 1;" vector-effect="non-scaling-stroke"  transform=" translate(0, 0)" d="M -5.19613 6.68084 C -4.15198 5.9201 -2.5281800000000003 4.92409 -0.7978700000000005 4.51829 C -0.03303000000000056 4.34342 2.0261899999999993 3.8818400000000004 3.455869999999999 3.9557400000000005 C 3.7672399999999993 3.9718300000000006 2.059599999999999 5.622140000000001 1.2902899999999993 6.364120000000001 L 1.2902899999999993 6.364120000000001 C 1.2520299999999993 6.401020000000001 1.2362499999999992 6.455470000000001 1.2488499999999993 6.5071200000000005 C 1.2614499999999993 6.55876 1.3005299999999993 6.599830000000001 1.3514899999999994 6.614960000000001 C 2.0237999999999996 6.814650000000001 2.9232899999999997 6.730330000000001 3.455869999999999 6.3177900000000005 C 3.8660799999999993 6.000030000000001 4.815519999999999 5.2100800000000005 5.976889999999999 4.11535 C 6.90978 3.00706 5.976889999999999 1.9886300000000001 5.976889999999999 1.9886300000000001 L -1.2147900000000007 -6.711889999999999 L -1.2147900000000007 -6.711889999999999 C -1.2258800000000007 -6.724999999999999 -1.2420000000000007 -6.732799999999998 -1.2591700000000008 -6.7333599999999985 C -1.2763300000000009 -6.733919999999999 -1.2929300000000008 -6.7271899999999984 -1.3048500000000007 -6.714829999999998 C -2.6591200000000006 -5.311009999999998 -4.2546800000000005 -3.669669999999998 -4.988840000000001 -2.0924499999999986 C -5.2472900000000005 -1.3686299999999987 -5.196140000000001 2.1340100000000017 -5.196140000000001 2.1340100000000017 C -5.181220000000001 3.506330000000002 -6.449120000000001 4.219260000000002 -6.389460000000001 4.997970000000002 C -6.329790000000001 5.597690000000002 -6.061300000000001 7.023920000000002 -5.196140000000001 6.6808400000000026 z" stroke-linecap="round" />
</g>
<g transform="matrix(0.74 0.13 -0.13 0.74 291.72 74.15)" id="nSFJDm8q6Qh-YjfwzaVtF"  >
<path style="stroke: rgb(0,0,0); stroke-width: 1; stroke-dasharray: none; stroke-linecap: butt; stroke-dashoffset: 0; stroke-linejoin: miter; stroke-miterlimit: 4; fill: rgb(255,255,255); fill-opacity: 0; fill-rule: nonzero; opacity: 1;" vector-effect="non-scaling-stroke"  transform=" translate(0, 0)" d="M 1.11196 0.18922 L -1.1119700000000001 -0.18923" stroke-linecap="round" />
</g>
<g transform="matrix(0.84 0.15 -0.15 0.84 321.91 75.72)" id="eg12St1_bDYv5OaSgLkWx"  >
<path style="stroke: rgb(0,0,0); stroke-width: 1; stroke-dasharray: none; stroke-linecap: butt; stroke-dashoffset: 0; stroke-linejoin: miter; stroke-miterlimit: 4; fill: rgb(198,138,141); fill-rule: nonzero; opacity: 1;" vector-effect="non-scaling-stroke"  transform=" translate(0, 0)" d="M -5.86571 -1.20866 C -5.86571 -1.20866 0.09152999999999967 1.3205299999999998 3.9608000000000008 1.2048099999999997 C 4.572940000000001 1.1310699999999998 5.549580000000001 1.4627799999999997 5.821530000000001 0.19725999999999977 C 6.093480000000001 -1.0682600000000002 5.021210000000001 -1.2086600000000003 5.021210000000001 -1.2086600000000003 z" stroke-linecap="round" />
</g>
<g transform="matrix(0.83 0.14 -0.14 0.83 322.29 73.64)" id="zYnFNbLFfuStcqdlM5VLd"  >
<path style="stroke: rgb(0,0,0); stroke-width: 1; stroke-dasharray: none; stroke-linecap: butt; stroke-dashoffset: 0; stroke-linejoin: miter; stroke-miterlimit: 4; fill: rgb(198,138,141); fill-rule: nonzero; opacity: 1;" vector-effect="non-scaling-stroke"  transform=" translate(0, 0)" d="M -5.97535 1.10733 C -2.6005499999999997 0.19657999999999998 0.03864000000000001 -0.8795600000000001 2.8043000000000005 -1.27158 C 3.3247100000000005 -1.2893999999999999 3.7942500000000003 -0.9378 4.051030000000001 -0.9048099999999999 C 4.307810000000001 -0.8718299999999999 5.126320000000001 -1.18275 5.581320000000001 -0.9520299999999999 C 6.036320000000001 -0.7213099999999999 5.974740000000001 -0.50067 5.9701 0.11803000000000008 C 5.96546 0.7367300000000001 4.94153 1.27224 4.94153 1.27224 z" stroke-linecap="round" />
</g>
<g transform="matrix(1 0.65 -0.65 1 129.97 409.13)" id="MvC6NSKKog1G8WW2je-vR"  >
<path style="stroke: rgb(0,0,0); stroke-width: 1; stroke-dasharray: none; stroke-linecap: butt; stroke-dashoffset: 0; stroke-linejoin: miter; stroke-miterlimit: 4; fill: rgb(0,0,0); fill-rule: nonzero; opacity: 1;" vector-effect="non-scaling-stroke"  transform=" translate(0, 0)" d="M -0.91013 -2.00106 C -0.91013 -2.00106 -0.76211 -0.7566999999999999 -0.24307999999999996 2.00106 C 0.8099800000000001 -0.67048 0.91014 -1.8722100000000004 0.91014 -1.8722100000000004 z" stroke-linecap="round" />
</g>
<g transform="matrix(0.95 0.61 -0.5 0.76 131.01 407.36)" id="QsThSe3smXdTOJ4Bt0vjU"  >
<path style="stroke: rgb(0,0,0); stroke-width: 1; stroke-dasharray: none; stroke-linecap: butt; stroke-dashoffset: 0; stroke-linejoin: miter; stroke-miterlimit: 4; fill: rgb(0,32,53); fill-rule: nonzero; opacity: 1;" vector-effect="non-scaling-stroke"  transform=" translate(0, 0)" d="M 0.14501 1.2685 C -2.00693 1.00451 -4.34795 0.33499999999999996 -4.30375 -0.48879000000000006 C -4.25955 -1.31258 -1.6717300000000002 -1.496 0.48021000000000047 -1.2320000000000002 C 2.6321500000000007 -0.9680100000000003 4.332700000000001 0.07406999999999986 4.30401 0.5671899999999999 C 4.27532 1.06032 2.29695 1.53249 0.14501000000000008 1.2685 z" stroke-linecap="round" />
</g>
<g transform="matrix(0.7 0.45 -0.45 0.7 196.32 322.46)" id="SUAMFDuOwZfzKQ_TpAM-x"  >
<path style="stroke: rgb(0,0,0); stroke-width: 1; stroke-dasharray: none; stroke-linecap: butt; stroke-dashoffset: 0; stroke-linejoin: miter; stroke-miterlimit: 4; fill: rgb(0,0,0); fill-rule: nonzero; opacity: 1;" vector-effect="non-scaling-stroke"  transform=" translate(0, 0)" d="M 8.99244 -127.63836 C 8.99244 -127.63836 -11.40322 126.73568 -11.441539999999998 127.25357 C -10.627669999999998 128.0676 -9.234199999999998 127.33706 -9.234199999999998 127.33706 L 11.441540000000003 -126.94431000000002" stroke-linecap="round" />
</g>
<g transform="matrix(0.66 0.43 -0.43 0.66 315.34 200.42)" id="8E4QhPNolABp06oqvBD-S"  >
<path style="stroke: rgb(0,0,0); stroke-width: 1; stroke-dasharray: none; stroke-linecap: butt; stroke-dashoffset: 0; stroke-linejoin: miter; stroke-miterlimit: 4; fill: rgb(0,0,0); fill-rule: nonzero; opacity: 1;" vector-effect="non-scaling-stroke"  transform=" translate(0, 0)" d="M 3.91854 1.27644 C 3.91854 1.27644 -1.44639 -0.3029599999999999 -3.9185499999999998 -0.46398000000000006 C -3.5417099999999997 -0.6752100000000001 -2.7726999999999995 -1.1188 -2.04288 -1.2735400000000001 C -0.20672999999999986 -1.3410600000000001 3.9185400000000006 -0.20595000000000008 3.9185400000000006 -0.20595000000000008 L 3.6838800000000007 1.27644" stroke-linecap="round" />
</g>
<g transform="matrix(0.66 0.43 -0.43 0.66 310.48 206.11)" id="BzrmnvneZLOh7v1OwDyrM"  >
<path style="stroke: rgb(0,0,0); stroke-width: 1; stroke-dasharray: none; stroke-linecap: butt; stroke-dashoffset: 0; stroke-linejoin: miter; stroke-miterlimit: 4; fill: rgb(0,0,0); fill-rule: nonzero; opacity: 1;" vector-effect="non-scaling-stroke"  transform=" translate(0, 0)" d="M 5.24592 -6.79736 C 5.24592 -6.79736 -2.67856 -2.16706 -4.3456399999999995 4.99331 C -4.989809999999999 6.87649 -5.245909999999999 7.64236 -5.245909999999999 7.64236 L -2.9762299999999993 7.64236 C -2.9762299999999993 7.64236 -2.7616899999999993 7.02743 -2.3564099999999994 5.43815 C -1.0624399999999994 -1.0361699999999994 5.245920000000001 -7.64235 5.245920000000001 -7.64235" stroke-linecap="round" />
</g>
<g transform="matrix(0.9 -0.08 0.07 0.79 213.72 441.26)" id="yKpEKp552dqXxjkXxVA9B"  >
<path style="stroke: rgb(0,0,0); stroke-width: 1; stroke-dasharray: none; stroke-linecap: butt; stroke-dashoffset: 0; stroke-linejoin: miter; stroke-miterlimit: 4; fill: rgb(63,63,63); fill-rule: nonzero; opacity: 1;" vector-effect="non-scaling-stroke"  transform=" translate(0, 0)" d="M -3.40959 0.3345 C 4.89983 -11.00538 1.55158 -2.40806 1.55158 -2.40806 L 3.40958 -3.30931 L 1.65535 5.52989 C 1.65535 5.52989 -1.1136799999999998 1.4399600000000001 -3.4095899999999997 0.33450999999999986 z" stroke-linecap="round" />
</g>
<g transform="matrix(0.9 -0.08 0.07 0.79 216.56 440.04)" id="QGlsLNvV1VbJbAFrfoNgF"  >
<path style="stroke: rgb(0,0,0); stroke-width: 1; stroke-dasharray: none; stroke-linecap: butt; stroke-dashoffset: 0; stroke-linejoin: miter; stroke-miterlimit: 4; fill: rgb(63,63,63); fill-rule: nonzero; opacity: 1;" vector-effect="non-scaling-stroke"  transform=" translate(0, 0)" d="M -0.27375 0.76021 C -0.27375 0.76021 -8.08964 1.8706500000000001 -7.9269799999999995 1.65341 C 0.0011100000000006105 -8.93438 2.732920000000001 -6.06663 2.732920000000001 -6.06663 L 7.929480000000001 -4.68375 C 7.929480000000001 -4.68375 7.601230000000001 -3.40423 7.264380000000001 -3.0646699999999996 C 6.743040000000001 -2.5513799999999995 5.170420000000001 -2.3248299999999995 -0.8982299999999999 6.4206900000000005 C -0.8868799999999999 4.54706 -0.2737599999999999 0.7602200000000003 -0.2737599999999999 0.7602200000000003 z" stroke-linecap="round" />
</g>
<g transform="matrix(0.9 -0.08 0.07 0.79 216.64 438.71)" id="TxKCd4A4zXCqEZXIMC8F_"  >
<path style="stroke: rgb(0,0,0); stroke-width: 1; stroke-dasharray: none; stroke-linecap: butt; stroke-dashoffset: 0; stroke-linejoin: miter; stroke-miterlimit: 4; fill: rgb(108,108,108); fill-rule: nonzero; opacity: 1;" vector-effect="non-scaling-stroke"  transform=" translate(0, 0)" d="M -8.04684 3.28296 C 0.2625799999999998 -8.056920000000002 2.5176100000000012 -6.47539 2.5176100000000012 -6.47539 L 8.066540000000002 -2.87475 C 8.066540000000002 -2.87475 6.2641300000000015 -4.458270000000001 -1.398559999999998 6.5506199999999986 C -2.854379999999998 3.6294999999999984 -8.439279999999998 3.9964599999999986 -8.046839999999998 3.2829599999999988 z" stroke-linecap="round" />
</g>
<g transform="matrix(0.8 -0.07 0.06 0.71 227.8 448.43)" id="Bx9AEueM5iTdzmZ6D_5kF"  >
<path style="stroke: rgb(0,0,0); stroke-width: 1; stroke-dasharray: none; stroke-linecap: butt; stroke-dashoffset: 0; stroke-linejoin: miter; stroke-miterlimit: 4; fill: rgb(63,63,63); fill-rule: nonzero; opacity: 1;" vector-effect="non-scaling-stroke"  transform=" translate(0, 0)" d="M -3.40959 0.3345 C 4.89983 -11.00538 1.55158 -2.40806 1.55158 -2.40806 L 3.40958 -3.30931 L 1.65535 5.52989 C 1.65535 5.52989 -1.1136799999999998 1.4399600000000001 -3.4095899999999997 0.33450999999999986 z" stroke-linecap="round" />
</g>
<g transform="matrix(0.8 -0.07 0.06 0.71 230.41 447.27)" id="nx_SCZFY7ictMU900SrCH"  >
<path style="stroke: rgb(0,0,0); stroke-width: 1; stroke-dasharray: none; stroke-linecap: butt; stroke-dashoffset: 0; stroke-linejoin: miter; stroke-miterlimit: 4; fill: rgb(63,63,63); fill-rule: nonzero; opacity: 1;" vector-effect="non-scaling-stroke"  transform=" translate(0, 0)" d="M -0.27375 0.76021 C -0.27375 0.76021 -8.08964 1.8706500000000001 -7.9269799999999995 1.65341 C 0.0011100000000006105 -8.93438 2.732920000000001 -6.06663 2.732920000000001 -6.06663 L 7.929480000000001 -4.68375 C 7.929480000000001 -4.68375 7.601230000000001 -3.40423 7.264380000000001 -3.0646699999999996 C 6.743040000000001 -2.5513799999999995 5.170420000000001 -2.3248299999999995 -0.8982299999999999 6.4206900000000005 C -0.8868799999999999 4.54706 -0.2737599999999999 0.7602200000000003 -0.2737599999999999 0.7602200000000003 z" stroke-linecap="round" />
</g>
<g transform="matrix(0.8 -0.07 0.06 0.71 230.52 446.1)" id="4T-MbtSGaEx5hZvP5IQO2"  >
<path style="stroke: rgb(0,0,0); stroke-width: 1; stroke-dasharray: none; stroke-linecap: butt; stroke-dashoffset: 0; stroke-linejoin: miter; stroke-miterlimit: 4; fill: rgb(108,108,108); fill-rule: nonzero; opacity: 1;" vector-effect="non-scaling-stroke"  transform=" translate(0, 0)" d="M -8.04684 3.28296 C 0.2625799999999998 -8.056920000000002 2.5176100000000012 -6.47539 2.5176100000000012 -6.47539 L 8.066540000000002 -2.87475 C 8.066540000000002 -2.87475 6.2641300000000015 -4.458270000000001 -1.398559999999998 6.5506199999999986 C -2.854379999999998 3.6294999999999984 -8.439279999999998 3.9964599999999986 -8.046839999999998 3.2829599999999988 z" stroke-linecap="round" />
</g>
<g transform="matrix(0.79 -0.07 0.07 0.79 232.88 432.65)" id="FTF0sRp7oO2CArfdxP3tB"  >
<path style="stroke: rgb(0,0,0); stroke-width: 1; stroke-dasharray: none; stroke-linecap: butt; stroke-dashoffset: 0; stroke-linejoin: miter; stroke-miterlimit: 4; fill: rgb(255,255,255); fill-opacity: 0; fill-rule: nonzero; opacity: 1;" vector-effect="non-scaling-stroke"  transform=" translate(0, 0)" d="M -1.63001 -0.89329 L 1.63 0.8932999999999999" stroke-linecap="round" />
</g>
<g transform="matrix(0.84 -0.08 0.08 0.84 233.15 433)" id="PpM2QU-v_PXUkz6slhPFd"  >
<path style="stroke: rgb(0,0,0); stroke-width: 1; stroke-dasharray: none; stroke-linecap: butt; stroke-dashoffset: 0; stroke-linejoin: miter; stroke-miterlimit: 4; fill: rgb(255,255,255); fill-opacity: 0; fill-rule: nonzero; opacity: 1;" vector-effect="non-scaling-stroke"  transform=" translate(0, 0)" d="M 2.42033 -3.45671 C 1.8167099999999998 -3.7753 1.28453 -4.02163 1.0843999999999998 -4.08972 C -1.5911200000000003 -2.50256 -4.289890000000001 2.3995300000000004 -4.289890000000001 2.3995300000000004 L -1.0962600000000005 4.08973 C -1.0962600000000005 4.08973 1.1088299999999998 -0.21022999999999925 4.28989 -2.3111499999999996 C 3.79967 -2.6888099999999997 3.06878 -3.1144499999999997 2.42033 -3.4567099999999993 z" stroke-linecap="round" />
</g>
<g transform="matrix(0.79 -0.07 0.07 0.79 237.25 428.15)" id="MmkK85Qcfoko6dtBNh-iY"  >
<path style="stroke: rgb(85,85,85); stroke-width: 1; stroke-dasharray: none; stroke-linecap: butt; stroke-dashoffset: 0; stroke-linejoin: miter; stroke-miterlimit: 4; fill: rgb(255,255,255); fill-opacity: 0; fill-rule: nonzero; opacity: 1;" vector-effect="non-scaling-stroke"  transform=" translate(0, 0)" d="M 2.24302 -1.64605 L 2.07989 -1.29865 C -0.1452600000000004 -0.8163100000000001 -2.2430200000000005 1.64605 -2.2430200000000005 1.64605" stroke-linecap="round" />
</g>
<g transform="matrix(0.79 -0.07 0.07 0.79 234.03 431.38)" id="o227cuL0L6sKPS6gnRK05"  >
<path style="stroke: rgb(85,85,85); stroke-width: 1; stroke-dasharray: none; stroke-linecap: butt; stroke-dashoffset: 0; stroke-linejoin: miter; stroke-miterlimit: 4; fill: rgb(255,255,255); fill-opacity: 0; fill-rule: nonzero; opacity: 1;" vector-effect="non-scaling-stroke"  transform=" translate(0, 0)" d="M -4.51363 0.79902 C -2.56294 -2.14153 -0.22684000000000015 -3.4170899999999995 -0.22684000000000015 -3.4170899999999995 L 4.5136199999999995 -0.6994899999999995 C 4.5136199999999995 -0.6994899999999995 1.6472399999999996 1.6087500000000006 0.5200199999999997 3.417100000000001 C -0.6320300000000003 2.941430000000001 -3.6093 1.455570000000001 -4.51363 0.799030000000001 z" stroke-linecap="round" />
</g>
<g transform="matrix(0.79 -0.07 0.07 0.79 233.86 431.23)" id="5aE3FMLfnXQba-30IZLMh"  >
<path style="stroke: rgb(0,0,0); stroke-width: 1; stroke-dasharray: none; stroke-linecap: butt; stroke-dashoffset: 0; stroke-linejoin: miter; stroke-miterlimit: 4; fill: rgb(255,255,255); fill-opacity: 0; fill-rule: nonzero; opacity: 1;" vector-effect="non-scaling-stroke"  transform=" translate(0, 0)" d="M -1.69797 -0.85816 L 1.69798 0.85816" stroke-linecap="round" />
</g>
<g transform="matrix(0.79 -0.07 0.07 0.79 231.71 434.25)" id="AkSNyW9DRzciVSepWvVgF"  >
<path style="stroke: rgb(0,0,0); stroke-width: 1; stroke-dasharray: none; stroke-linecap: butt; stroke-dashoffset: 0; stroke-linejoin: miter; stroke-miterlimit: 4; fill: rgb(255,255,255); fill-opacity: 0; fill-rule: nonzero; opacity: 1;" vector-effect="non-scaling-stroke"  transform=" translate(0, 0)" d="M -1.69802 -0.92612 L 1.6980299999999997 0.9261299999999999" stroke-linecap="round" />
</g>
<g transform="matrix(0.79 -0.07 0.07 0.79 244.97 438.22)" id="sbQ7LEdctpiWV9uKsAwFB"  >
<path style="stroke: rgb(0,0,0); stroke-width: 1; stroke-dasharray: none; stroke-linecap: butt; stroke-dashoffset: 0; stroke-linejoin: miter; stroke-miterlimit: 4; fill: rgb(255,255,255); fill-opacity: 0; fill-rule: nonzero; opacity: 1;" vector-effect="non-scaling-stroke"  transform=" translate(0, 0)" d="M -1.63001 -0.89329 L 1.63 0.8932999999999999" stroke-linecap="round" />
</g>
<g transform="matrix(0.84 -0.08 0.08 0.84 245.23 438.56)" id="WhSOeaqruVir9R0PB0SQv"  >
<path style="stroke: rgb(0,0,0); stroke-width: 1; stroke-dasharray: none; stroke-linecap: butt; stroke-dashoffset: 0; stroke-linejoin: miter; stroke-miterlimit: 4; fill: rgb(255,255,255); fill-opacity: 0; fill-rule: nonzero; opacity: 1;" vector-effect="non-scaling-stroke"  transform=" translate(0, 0)" d="M 2.42033 -3.45671 C 1.8167099999999998 -3.7753 1.28453 -4.02163 1.0843999999999998 -4.08972 C -1.5911200000000003 -2.50256 -4.289890000000001 2.3995300000000004 -4.289890000000001 2.3995300000000004 L -1.0962600000000005 4.08973 C -1.0962600000000005 4.08973 1.1088299999999998 -0.21022999999999925 4.28989 -2.3111499999999996 C 3.79967 -2.6888099999999997 3.06878 -3.1144499999999997 2.42033 -3.4567099999999993 z" stroke-linecap="round" />
</g>
<g transform="matrix(0.79 -0.07 0.07 0.79 249.07 434.1)" id="KGpGfCtjJz9GfHRU_pb50"  >
<path style="stroke: rgb(85,85,85); stroke-width: 1; stroke-dasharray: none; stroke-linecap: butt; stroke-dashoffset: 0; stroke-linejoin: miter; stroke-miterlimit: 4; fill: rgb(255,255,255); fill-opacity: 0; fill-rule: nonzero; opacity: 1;" vector-effect="non-scaling-stroke"  transform=" translate(0, 0)" d="M 1.86568 -1.17805 C 1.86568 -1.17805 1.76684 -0.97685 1.72552 -0.87011 C -0.4525299999999999 -0.5003 -1.8656700000000002 1.1780400000000002 -1.8656700000000002 1.1780400000000002" stroke-linecap="round" />
</g>
<g transform="matrix(0.79 -0.07 0.07 0.79 246.13 436.94)" id="CNOlJO8jHW16sJOFxWxsE"  >
<path style="stroke: rgb(85,85,85); stroke-width: 1; stroke-dasharray: none; stroke-linecap: butt; stroke-dashoffset: 0; stroke-linejoin: miter; stroke-miterlimit: 4; fill: rgb(255,255,255); fill-opacity: 0; fill-rule: nonzero; opacity: 1;" vector-effect="non-scaling-stroke"  transform=" translate(0, 0)" d="M -4.51363 0.79902 C -2.56294 -2.14153 -0.22684000000000015 -3.4170899999999995 -0.22684000000000015 -3.4170899999999995 L 4.5136199999999995 -0.6994899999999995 C 4.5136199999999995 -0.6994899999999995 1.6472399999999996 1.6087500000000006 0.5200199999999997 3.417100000000001 C -0.6320300000000003 2.941430000000001 -3.6093 1.455570000000001 -4.51363 0.799030000000001 z" stroke-linecap="round" />
</g>
<g transform="matrix(0.79 -0.07 0.07 0.79 245.93 436.79)" id="-WqrKDFLVleqL388vfPIl"  >
<path style="stroke: rgb(0,0,0); stroke-width: 1; stroke-dasharray: none; stroke-linecap: butt; stroke-dashoffset: 0; stroke-linejoin: miter; stroke-miterlimit: 4; fill: rgb(255,255,255); fill-opacity: 0; fill-rule: nonzero; opacity: 1;" vector-effect="non-scaling-stroke"  transform=" translate(0, 0)" d="M -1.69797 -0.85816 L 1.69798 0.85816" stroke-linecap="round" />
</g>
<g transform="matrix(0.79 -0.07 0.07 0.79 243.81 439.81)" id="Kt65QReaDDULwU5Gc2PVP"  >
<path style="stroke: rgb(0,0,0); stroke-width: 1; stroke-dasharray: none; stroke-linecap: butt; stroke-dashoffset: 0; stroke-linejoin: miter; stroke-miterlimit: 4; fill: rgb(255,255,255); fill-opacity: 0; fill-rule: nonzero; opacity: 1;" vector-effect="non-scaling-stroke"  transform=" translate(0, 0)" d="M -1.69802 -0.92612 L 1.6980299999999997 0.9261299999999999" stroke-linecap="round" />
</g>
<g transform="matrix(0.87 0 0 0.87 242.15 467.44)" id="DslEJawZVd9GyB5aLMvhi"  >
<path style="stroke: rgb(0,0,0); stroke-width: 1; stroke-dasharray: none; stroke-linecap: butt; stroke-dashoffset: 0; stroke-linejoin: miter; stroke-miterlimit: 4; fill: rgb(108,108,108); fill-rule: nonzero; opacity: 1;" vector-effect="non-scaling-stroke"  transform=" translate(0, 0)" d="M -8.81672 5.54471 L -11.34185 -3.20932 C -11.34185 -3.20932 -10.982970000000002 -4.57783 -9.535120000000001 -4.9697700000000005 C 3.6616099999999996 -2.970090000000001 7.36434 -3.9602700000000004 7.36434 -3.9602700000000004 C 7.36434 -3.9602700000000004 7.35416 -4.520650000000001 7.1729 -5.544700000000001 C 9.93969 -4.752880000000001 11.16772 -4.565440000000001 11.32834 -3.2392700000000008 C 11.358740000000001 -1.4125100000000008 11.32834 3.949009999999999 11.32834 3.949009999999999 z" stroke-linecap="round" />
</g>
<g transform="matrix(0.87 0 0 0.87 242.39 468.42)" id="n8VoeKfoz-cMb1Im0l20v"  >
<path style="stroke: rgb(0,0,0); stroke-width: 1; stroke-dasharray: none; stroke-linecap: butt; stroke-dashoffset: 0; stroke-linejoin: miter; stroke-miterlimit: 4; fill: rgb(67,67,67); fill-rule: nonzero; opacity: 1;" vector-effect="non-scaling-stroke"  transform=" translate(0, 0)" d="M -8.85113 4.5545 C -8.99181 4.54515 -9.11129 4.44809 -9.14926 4.31231 L -11.3591 -3.5891900000000003 L -11.3591 -3.5891900000000003 C -11.37679 -3.6525300000000005 -11.36276 -3.7205100000000004 -11.32145 -3.7716700000000003 C -11.280140000000001 -3.82283 -11.21663 -3.8508700000000005 -11.15099 -3.8469200000000003 C -4.6843 -3.45787 4.16573 -2.3483 8.4768 -3.4681800000000003 C 10.26065 -4.1075 10.472240000000001 -4.371650000000001 10.706800000000001 -5.08817 C 11.801350000000001 -4.8071 11.20381 2.4720700000000004 11.20381 2.4720700000000004 C 11.20381 2.4720700000000004 11.15116 3.7986500000000003 9.147760000000002 4.5389 C 5.631330000000002 5.53462 -2.924579999999999 4.94845 -8.851139999999997 4.5545 z" stroke-linecap="round" />
</g>
<g transform="matrix(0.78 0 0 0.78 259.57 458.84)" id="FESmVLokbFkUH0uWpMAir"  >
<path style="stroke: rgb(0,0,0); stroke-width: 1; stroke-dasharray: none; stroke-linecap: butt; stroke-dashoffset: 0; stroke-linejoin: miter; stroke-miterlimit: 4; fill: rgb(108,108,108); fill-rule: nonzero; opacity: 1;" vector-effect="non-scaling-stroke"  transform=" translate(0, 0)" d="M -8.81672 5.54471 L -11.34185 -3.20932 C -11.34185 -3.20932 -10.982970000000002 -4.57783 -9.535120000000001 -4.9697700000000005 C 3.6616099999999996 -2.970090000000001 7.36434 -3.9602700000000004 7.36434 -3.9602700000000004 C 7.36434 -3.9602700000000004 7.35416 -4.520650000000001 7.1729 -5.544700000000001 C 9.93969 -4.752880000000001 11.16772 -4.565440000000001 11.32834 -3.2392700000000008 C 11.358740000000001 -1.4125100000000008 11.32834 3.949009999999999 11.32834 3.949009999999999 z" stroke-linecap="round" />
</g>
<g transform="matrix(0.78 0 0 0.78 259.78 459.74)" id="gvEn1bCh6whP1hYnLyYHv"  >
<path style="stroke: rgb(0,0,0); stroke-width: 1; stroke-dasharray: none; stroke-linecap: butt; stroke-dashoffset: 0; stroke-linejoin: miter; stroke-miterlimit: 4; fill: rgb(67,67,67); fill-rule: nonzero; opacity: 1;" vector-effect="non-scaling-stroke"  transform=" translate(0, 0)" d="M -8.85113 4.5545 C -8.99181 4.54515 -9.11129 4.44809 -9.14926 4.31231 L -11.3591 -3.5891900000000003 L -11.3591 -3.5891900000000003 C -11.37679 -3.6525300000000005 -11.36276 -3.7205100000000004 -11.32145 -3.7716700000000003 C -11.280140000000001 -3.82283 -11.21663 -3.8508700000000005 -11.15099 -3.8469200000000003 C -4.6843 -3.45787 4.16573 -2.3483 8.4768 -3.4681800000000003 C 10.26065 -4.1075 10.472240000000001 -4.371650000000001 10.706800000000001 -5.08817 C 11.801350000000001 -4.8071 11.20381 2.4720700000000004 11.20381 2.4720700000000004 C 11.20381 2.4720700000000004 11.15116 3.7986500000000003 9.147760000000002 4.5389 C 5.631330000000002 5.53462 -2.924579999999999 4.94845 -8.851139999999997 4.5545 z" stroke-linecap="round" />
</g>
</svg>