<?xml version="1.0" encoding="UTF-8" standalone="no" ?>
<!DOCTYPE svg PUBLIC "-//W3C//DTD SVG 1.1//EN" "http://www.w3.org/Graphics/SVG/1.1/DTD/svg11.dtd">
<svg xmlns="http://www.w3.org/2000/svg" xmlns:xlink="http://www.w3.org/1999/xlink" version="1.1" width="640" height="640" viewBox="0 0 640 640" xml:space="preserve">
<desc>Created with Fabric.js 4.6.0</desc>
<defs>
</defs>
<g transform="matrix(0.94 0 0 0.94 302.01 116.67)" id="_Pewxf18bfmf1nyGISoMA"  >
<path style="stroke: rgb(0,0,0); stroke-width: 1; stroke-dasharray: none; stroke-linecap: butt; stroke-dashoffset: 0; stroke-linejoin: miter; stroke-miterlimit: 4; fill: rgb(113,1,1); fill-rule: nonzero; opacity: 1;" vector-effect="non-scaling-stroke"  transform=" translate(0, 0)" d="M 16.05295 -5.12422 C 16.05295 -5.12422 26.33244 1.8595899999999999 28.04731 6.02039 C 31.23856 11.46072 28.04731 11.63577 28.04731 11.63577 L 20.515259999999998 32.14859 L 16.052949999999996 29.175089999999997 L 8.294159999999994 16.956079999999996 L 2.153639999999994 14.158409999999996 L -16.887870000000007 -0.6659200000000034 C -16.887870000000007 -0.6659200000000034 -29.603110000000008 -11.934990000000003 -29.005760000000006 -15.844190000000003 C -31.022090000000006 -20.083800000000004 -25.934330000000006 -30.196470000000005 -22.912540000000007 -32.049130000000005 C -19.81528000000001 -34.05274000000001 16.052949999999996 -5.124220000000005 16.052949999999996 -5.124220000000005 z" stroke-linecap="round" />
</g>
<g transform="matrix(0.94 0 0 0.94 310.02 107.4)" id="Z1cOXzjOmlbckTPzeDBV5"  >
<path style="stroke: rgb(0,0,0); stroke-width: 1; stroke-dasharray: none; stroke-linecap: butt; stroke-dashoffset: 0; stroke-linejoin: miter; stroke-miterlimit: 4; fill: rgb(186,142,100); fill-rule: nonzero; opacity: 1;" vector-effect="non-scaling-stroke"  transform=" translate(0, 0)" d="M -26.24009 -10.59986 L -1.1091699999999989 -29.68385 C -1.1091699999999989 -29.68385 30.506330000000002 -0.45930999999999855 29.6386 -0.45930999999999855 C 28.5 -0.45930999999999855 20.076700000000002 -3.9474999999999985 14.31775 7.066490000000002 C 10.441410000000001 15.976390000000002 10.344000000000001 29.68383 10.344000000000001 29.68383 L -29.656149999999997 29.68383 C -29.656149999999997 29.68383 -25.746169999999996 21.78126 -25.027539999999995 11.780270000000002 C -22.898919999999993 -11.344369999999998 -26.711669999999994 -10.59987 -26.711669999999994 -10.59987" stroke-linecap="round" />
</g>
<g transform="matrix(1.21 0 0 1.05 380.39 530.47)" id="bcnSquYJvX4BhoP2i2rEL"  >
<path style="stroke: rgb(0,0,0); stroke-width: 1; stroke-dasharray: none; stroke-linecap: butt; stroke-dashoffset: 0; stroke-linejoin: miter; stroke-miterlimit: 4; fill: rgb(0,0,0); fill-rule: nonzero; opacity: 1;" vector-effect="non-scaling-stroke"  transform=" translate(0, 0)" d="M -1.02701 -3.50117 C -1.02701 -3.50117 -1.2838699999999998 -0.7845599999999999 -0.47075 3.5011599999999996 C 0.7448999999999999 -0.6933700000000007 1.06551 -3.50117 1.06551 -3.50117 z" stroke-linecap="round" />
</g>
<g transform="matrix(0.88 0 0 1 380.29 526.29)" id="mc2EogxUU7Kwbg2ko_PXy"  >
<path style="stroke: rgb(0,0,0); stroke-width: 1; stroke-dasharray: none; stroke-linecap: butt; stroke-dashoffset: 0; stroke-linejoin: miter; stroke-miterlimit: 4; fill: rgb(0,32,53); fill-rule: nonzero; opacity: 1;" vector-effect="non-scaling-stroke"  transform=" translate(0, 0)" d="M 0.23312 3.07431 C -3.45982 3.07431 -7.279820000000001 1.0043700000000002 -7.279820000000001 -0.4714299999999998 C -7.279820000000001 -1.9472399999999999 -3.459820000000001 -3.0743099999999997 0.23311999999999955 -3.0743099999999997 C 3.9260599999999997 -3.0743099999999997 7.2798099999999994 -1.4758099999999996 7.2798099999999994 4.440892098500626e-16 C 7.2798099999999994 1.4758100000000005 3.9260599999999997 3.0743100000000005 0.23311999999999955 3.0743100000000005 z" stroke-linecap="round" />
</g>
<g transform="matrix(0.74 0 0 1.22 388.78 389.91)" id="2mWTbLnRFJnOnMYiIaWty"  >
<path style="stroke: rgb(0,0,0); stroke-width: 1; stroke-dasharray: none; stroke-linecap: butt; stroke-dashoffset: 0; stroke-linejoin: miter; stroke-miterlimit: 4; fill: rgb(0,0,0); fill-rule: nonzero; opacity: 1;" vector-effect="non-scaling-stroke"  transform=" translate(0, 0)" d="M 10.0892 -111.88589 L -12.72422 111.31559 C -12.72422 111.31559 -10.93355 112.41312 -9.24755 111.56306000000001 C -9.24895 111.31674000000001 12.724219999999999 -111.88588999999999 12.724219999999999 -111.88588999999999 z" stroke-linecap="round" />
</g>
<g transform="matrix(1.13 0 0 1.05 397.74 248.52)" id="XSsl5jOqeVvP-hDmkCFsF"  >
<path style="stroke: rgb(0,0,0); stroke-width: 1; stroke-dasharray: none; stroke-linecap: butt; stroke-dashoffset: 0; stroke-linejoin: miter; stroke-miterlimit: 4; fill: rgb(0,69,115); fill-rule: nonzero; opacity: 1;" vector-effect="non-scaling-stroke"  transform=" translate(0, 0)" d="M -2.337 -8.5994 C -2.337 -8.5994 -3.3395200000000003 4.954600000000001 -3.4302900000000003 7.289560000000002 C -1.3780300000000003 8.811860000000001 0.37048999999999976 9.070300000000001 2.1485199999999995 7.731220000000001 C 1.7740399999999996 4.199700000000002 3.4302799999999998 -8.3769 3.4302799999999998 -8.3769 z" stroke-linecap="round" />
</g>
<g transform="matrix(0.98 0 0 0.98 402.33 246.29)" id="2ggB2-s7IEHlYcuW1ETJt"  >
<path style="stroke: rgb(0,0,0); stroke-width: 1; stroke-dasharray: none; stroke-linecap: butt; stroke-dashoffset: 0; stroke-linejoin: miter; stroke-miterlimit: 4; fill: rgb(41,41,41); fill-rule: nonzero; opacity: 1;" vector-effect="non-scaling-stroke"  transform=" translate(0, 0)" d="M 3.54571 -2.57016 C 3.54571 -2.57016 -0.36809000000000003 7.075570000000001 -0.8088500000000001 7.420070000000001 C -1.76869 7.618970000000001 -2.9586900000000003 6.7250000000000005 -3.18438 5.611500000000001 L -3.0839 3.6510200000000013 C -3.0839 3.6510200000000013 -3.24592 3.4701700000000013 -3.4927099999999998 3.078870000000001 C -3.8257399999999997 2.601320000000001 -2.4857799999999997 -6.79728 -2.3462499999999995 -7.4479" stroke-linecap="round" />
</g>
<g transform="matrix(0.98 0 0 0.98 399.06 242.4)" id="dpJagaW9-njpyrbum8nG6"  >
<path style="stroke: rgb(0,0,0); stroke-width: 1; stroke-dasharray: none; stroke-linecap: butt; stroke-dashoffset: 0; stroke-linejoin: miter; stroke-miterlimit: 4; fill: rgb(23,23,23); fill-rule: nonzero; opacity: 1;" vector-effect="non-scaling-stroke"  transform=" translate(0, 0)" d="M -8.02468 -3.51303 L 0.6596899999999994 -11.38285 L 8.02467 -5.575609999999999 C 8.02467 -5.575609999999999 6.94371 6.245010000000001 6.82242 8.20345 C 5.786910000000001 9.5151 4.19116 10.48157 2.73604 11.37341 L 2.73604 11.37341 C 2.71551 11.38599 2.68966 11.38598 2.66914 11.37337 C 2.6486300000000003 11.360759999999999 2.63693 11.3377 2.63889 11.31371 C 2.88136 8.33229 3.2696199999999997 3.564 3.3391599999999997 2.27637 C 3.3391599999999997 2.27637 0.051719999999999544 2.81313 0.24207999999999963 1.92547 C 0.5286199999999996 0.58928 -8.02468 -3.5130300000000005 -8.02468 -3.5130300000000005 z" stroke-linecap="round" />
</g>
<g transform="matrix(0.98 0 0 0.98 402.47 249.31)" id="FYgIcqOrpNlM7OmlPW4b6"  >
<path style="stroke: rgb(0,0,0); stroke-width: 1; stroke-dasharray: none; stroke-linecap: butt; stroke-dashoffset: 0; stroke-linejoin: miter; stroke-miterlimit: 4; fill: rgb(255,255,255); fill-opacity: 0; fill-rule: nonzero; opacity: 1;" vector-effect="non-scaling-stroke"  transform=" translate(0, 0)" d="M 3.67247 -1.67358 C 1.8732000000000002 0.2573699999999999 -0.37787000000000015 1.5761299999999998 -0.5507199999999997 1.6735499999999999 C -1.7391699999999997 1.6793699999999998 -3.2561499999999994 0.59005 -3.6724699999999997 -0.06498000000000004" stroke-linecap="round" />
</g>
<g transform="matrix(0.98 0 0 0.98 403.3 246.54)" id="1T-r6nc_xDS5mupoFgc0C"  >
<path style="stroke: rgb(0,0,0); stroke-width: 1; stroke-dasharray: none; stroke-linecap: butt; stroke-dashoffset: 0; stroke-linejoin: miter; stroke-miterlimit: 4; fill: rgb(255,255,255); fill-opacity: 0; fill-rule: nonzero; opacity: 1;" vector-effect="non-scaling-stroke"  transform=" translate(0, 0)" d="M 3.01368 -1.83912 C 1.95811 -0.44292 -0.5243899999999999 1.65291 -0.8956200000000001 1.8225899999999997 C -1.80343 1.9492299999999998 -2.95948 1.3381099999999997 -3.01368 0.33867999999999965" stroke-linecap="round" />
</g>
<g transform="matrix(0.98 0 0 0.98 404.59 243.15)" id="NUIOS1fSaZLt8keviWFOr"  >
<path style="stroke: rgb(0,0,0); stroke-width: 1; stroke-dasharray: none; stroke-linecap: butt; stroke-dashoffset: 0; stroke-linejoin: miter; stroke-miterlimit: 4; fill: rgb(255,255,255); fill-opacity: 0; fill-rule: nonzero; opacity: 1;" vector-effect="non-scaling-stroke"  transform=" translate(0, 0)" d="M 2.0191 -1.75377 C 0.42784 0.01475000000000004 -2.0190900000000003 1.7537800000000001 -2.0190900000000003 1.7537800000000001" stroke-linecap="round" />
</g>
<g transform="matrix(0.98 0 0 0.98 401.54 240.68)" id="VykZpsWtblae1LkM2qNHF"  >
<path style="stroke: rgb(0,0,0); stroke-width: 1; stroke-dasharray: none; stroke-linecap: butt; stroke-dashoffset: 0; stroke-linejoin: miter; stroke-miterlimit: 4; fill: rgb(59,59,59); fill-rule: nonzero; opacity: 1;" vector-effect="non-scaling-stroke"  transform=" translate(0, 0)" d="M -1.40341 -1.72212 L -1.52535 1.72212 L 1.0333299999999999 1.72212 L 1.5253599999999998 -1.1597899999999999 z" stroke-linecap="round" />
</g>
<g transform="matrix(0.98 0 0 0.98 388.21 247.17)" id="vlIqCzBntUP3AV_2-rKt7"  >
<path style="stroke: rgb(0,0,0); stroke-width: 1; stroke-dasharray: none; stroke-linecap: butt; stroke-dashoffset: 0; stroke-linejoin: miter; stroke-miterlimit: 4; fill: rgb(23,23,23); fill-rule: nonzero; opacity: 1;" vector-effect="non-scaling-stroke"  transform=" translate(0, 0)" d="M 16.56752 -1.90065 L 15.640349999999998 1.38718 C 15.640349999999998 1.38718 9.386039999999998 1.63218 7.450239999999997 1.85468 C 5.514439999999997 2.0771800000000002 3.5881199999999973 2.69212 0.4067099999999977 2.64953 C -0.19383000000000228 2.64149 -16.567540000000005 2.4207899999999998 -16.567540000000005 2.4207899999999998 L -15.863800000000005 -1.9006500000000002 L 15.377029999999994 -2.6516400000000004 z" stroke-linecap="round" />
</g>
<g transform="matrix(0.38 0 0 0.38 388.9 238.06)" id="vyWWLEYzWwhGlMhkPWvdq"  >
<path style="stroke: rgb(0,0,0); stroke-width: 1; stroke-dasharray: none; stroke-linecap: butt; stroke-dashoffset: 0; stroke-linejoin: miter; stroke-miterlimit: 4; fill: rgb(41,41,41); fill-rule: nonzero; opacity: 1;" vector-effect="non-scaling-stroke"  transform=" translate(0, 0)" d="M -39.83325 -5.18526 C -39.83325 -5.18526 -26.11279 -8.33024 -13.302050000000001 -12.610140000000001 C -2.510220000000002 -16.21554 7.3899599999999985 -21.02619 10.360589999999998 -21.43963 C 14.738969999999998 -21.92013 34.45278 -25.81352 43.70339 -20.97972 C 45.82535 -16.663330000000002 48.06702 -7.79111 47.36302 -2.1044599999999996 C 45.654309999999995 0.2540600000000004 42.04298 4.3689800000000005 39.88626 6.12818 C 39.64608 6.103160000000001 35.20217 6.4581100000000005 35.20217 6.4581100000000005 C 35.20217 6.4581100000000005 30.267100000000003 7.280240000000001 29.62377 0.7738000000000005 C 29.62377 0.7738000000000005 35.853120000000004 -3.709339999999999 36.35034 -5.18528 C 36.84756 -6.66122 35.485510000000005 -9.934069999999998 34.063140000000004 -10.8478 C 32.71314 -11.715019999999999 22.796270000000003 -8.95335 17.383660000000003 -7.451099999999999 L 17.383660000000003 -7.451099999999999 C 16.835760000000004 -7.299029999999999 16.40566 -6.874129999999999 16.246930000000003 -6.328119999999999 C 15.274870000000002 -2.984339999999999 14.198340000000002 0.6345300000000007 15.088300000000002 4.16021 C 16.054340000000003 7.98732 28.70373 6.88792 28.70373 6.88792 L 40.12082 6.12818 C 40.12082 6.12818 44.70083 15.52515 40.12082 19.582720000000002 L 29.251810000000003 20.13951 C 29.251810000000003 20.13951 16.725060000000003 21.00383 14.671160000000002 21.54859 C 12.617230000000003 22.09335 7.000490000000002 22.42868 1.837830000000002 23.10357 C -3.3248399999999982 23.778450000000003 -16.505409999999998 23.016840000000002 -24.77986 22.7803 C -33.05428 22.54376 -47.495000000000005 22.21467 -47.495000000000005 22.21467 z" stroke-linecap="round" />
</g>
<g transform="matrix(1 0 0 1.08 399.09 235.66)" id="LmsPzzPhmQMJkZCj8JGuL"  >
<path style="stroke: rgb(0,0,0); stroke-width: 1; stroke-dasharray: none; stroke-linecap: butt; stroke-dashoffset: 0; stroke-linejoin: miter; stroke-miterlimit: 4; fill: rgb(0,69,115); fill-rule: nonzero; opacity: 1;" vector-effect="non-scaling-stroke"  transform=" translate(0, 0)" d="M -4.21153 3.98073 C -3.0743 4.89489 -0.2697999999999996 4.82146 1.1331699999999998 4.6488499999999995 C 1.1461199999999998 4.25139 1.1331699999999998 2.2771999999999997 1.1331699999999998 2.2771999999999997 L 2.0277899999999995 1.5189999999999997 C 2.0277899999999995 1.5189999999999997 2.7502499999999994 -1.3294700000000002 4.21153 -3.4415300000000006 C 2.7389099999999997 -5.0587100000000005 -4.04391 -4.727670000000001 -4.04391 -4.727670000000001 C -4.04391 -4.727670000000001 -4.17964 1.0535799999999993 -4.211530000000001 3.9807299999999985 z" stroke-linecap="round" />
</g>
<g transform="matrix(1.02 0 0 2.39 399.14 231.11)" id="kivUDzH29MSIhYz_H7Pzw"  >
<path style="stroke: rgb(0,0,0); stroke-width: 1; stroke-dasharray: none; stroke-linecap: butt; stroke-dashoffset: 0; stroke-linejoin: miter; stroke-miterlimit: 4; fill: rgb(0,32,53); fill-rule: nonzero; opacity: 1;" vector-effect="non-scaling-stroke"  transform=" translate(0, 0)" d="M -4.18204 -0.29774 C -4.2076199999999995 -0.63807 -2.0854399999999997 -1.15218 0.24959000000000042 -0.94874 C 2.5846200000000006 -0.7453000000000001 4.1818800000000005 -0.1794 4.1816 0.17451000000000005 C 4.230390000000001 0.6176900000000001 1.5683000000000002 1.12429 -0.6136699999999999 0.9649500000000001 C -2.79564 0.80561 -4.197760000000001 0.48453000000000007 -4.18204 -0.29774999999999985 z" stroke-linecap="round" />
</g>
<g transform="matrix(1.24 0 0 0.99 344.15 202.61)" id="btd2ib_VICwj2LYtWw3Zw"  >
<path style="stroke: rgb(0,0,0); stroke-width: 1; stroke-dasharray: none; stroke-linecap: butt; stroke-dashoffset: 0; stroke-linejoin: miter; stroke-miterlimit: 4; fill: rgb(196,20,20); fill-rule: nonzero; opacity: 1;" vector-effect="non-scaling-stroke"  transform=" translate(0, 0)" d="M -28.8198 -20.99178 L -2.7213899999999995 -51.321690000000004 L -2.7213899999999995 -51.321690000000004 C -2.4764799999999996 -51.606300000000005 -2.1133299999999995 -51.665510000000005 -1.8178299999999994 -51.469010000000004 C -1.5223299999999993 -51.272510000000004 -1.3598799999999993 -50.863780000000006 -1.4136399999999993 -50.45206 C -4.367349999999999 -27.83226 -8.23536 1.8816299999999941 -11.40045 17.87052 C -11.86052 20.93696 -10.399059999999999 24.11536 -6.922279999999999 25.23077 C -3.506949999999999 26.043689999999998 25.22213 27.7464 28.819809999999997 27.70562 C 28.688899999999997 28.48521 25.771139999999995 51.650040000000004 25.668049999999997 51.58391 C 18.14005 50.35372 1.790779999999998 49.84264 -10.767710000000005 47.554880000000004 C -17.397370000000006 46.347170000000006 -15.535770000000005 38.82529 -15.535770000000005 38.82529 z" stroke-linecap="round" />
</g>
<g transform="matrix(1.29 0 0 1.04 270.87 437.13)" id="3uTsJxLJmDz1xzVxYROyc"  >
<path style="stroke: rgb(0,0,0); stroke-width: 1; stroke-dasharray: none; stroke-linecap: butt; stroke-dashoffset: 0; stroke-linejoin: miter; stroke-miterlimit: 4; fill: rgb(34,34,34); fill-rule: nonzero; opacity: 1;" vector-effect="non-scaling-stroke"  transform=" translate(0, 0)" d="M 29.24352 0.57781 C 29.01736 10.92666 28.26977 19.48004 25.82185 25.8004 C 23.37393 32.12076 15.16928 43.23144 10.433220000000002 58.48097 C 6.216610000000002 81.59638 5.873050000000002 103.80118 5.873050000000002 103.80118 C 5.873050000000002 103.80118 12.901990000000001 105.53320000000001 16.16935 104.98095 C 19.43671 104.4287 22.044990000000002 102.77195 22.044990000000002 102.77195 C 22.044990000000002 102.77195 21.977990000000002 76.518 24.73147 59.516380000000005 C 27.37769 50.617630000000005 33.07596 40.043110000000006 38.8073 27.915210000000005 C 43.699419999999996 18.631760000000007 43.256699999999995 15.112260000000006 44.36271 2.9331000000000067 C 45.17432 -18.998089999999994 42.42773 -66.41496 36.07595 -96.24306999999999 C 15.95045 -119.34467 -37.117039999999996 -134.94198999999998 -33.064699999999995 -91.62971999999999 C -29.012359999999994 -48.317449999999994 -16.781609999999993 -12.196799999999996 -15.847739999999995 -5.19292999999999 C -14.913869999999994 1.8109400000000102 -15.458709999999995 4.63708000000001 -17.298929999999995 9.89951000000001 C -19.139149999999994 15.16194000000001 -34.844359999999995 47.15289000000001 -34.844359999999995 47.15289000000001 C -34.844359999999995 47.15289000000001 -44.02560999999999 100.45030000000001 -44.50144999999999 102.77195 C -36.258799999999994 122.21545 -8.48628999999999 118.89363 -4.676709999999993 118.64081 C -0.8671299999999929 118.388 5.1771000000000065 116.10654 5.1771000000000065 116.10654 C 5.1771000000000065 116.10654 6.4058900000000065 78.28005999999999 10.433230000000005 58.480959999999996 C 15.397710000000005 42.923539999999996 23.429970000000004 31.492719999999995 25.821860000000004 25.800389999999993 C 28.213750000000005 20.108059999999995 28.824850000000005 12.939479999999993 29.243530000000003 0.5777999999999928 C 29.662220000000005 -11.783890000000007 29.819370000000003 -33.743820000000014 24.559580000000004 -57.40254 C 29.808760000000003 -33.77901 29.469700000000003 -9.771050000000002 29.243530000000003 0.5777999999999963 z" stroke-linecap="round" />
</g>
<g transform="matrix(0.94 0 0 0.94 281.43 233.99)" id="Ru17dsZ68rZdzHIjl7ZRH"  >
<path style="stroke: rgb(0,0,0); stroke-width: 1; stroke-dasharray: none; stroke-linecap: butt; stroke-dashoffset: 0; stroke-linejoin: miter; stroke-miterlimit: 4; fill: rgb(113,1,1); fill-rule: nonzero; opacity: 1;" vector-effect="non-scaling-stroke"  transform=" translate(0, 0)" d="M -27.84248 -114.58118 C -27.84248 -114.58118 -48.434709999999995 -94.1678 -48.86056 -93.71134 C -51.89328 -90.60851000000001 -54.02916 -77.47346 -54.02916 -77.47346 C -54.02916 -77.47346 -54.1226 -66.05961 -56.893429999999995 -41.02919 C -60.87723 -5.041350000000001 -67.67329 53.92171999999999 -64.69559 103.90163000000001 C -64.02071 109.65105000000001 -59.189699999999995 111.05984000000001 -58.54993999999999 111.37889000000001 C -57.91018999999999 111.69794000000002 -8.49237999999999 131.08076 33.916380000000004 115.18584000000001 C 38.71522 113.47675000000001 41.219300000000004 108.4377 41.801260000000006 106.94821000000002 C 42.38322000000001 105.45872000000001 46.15008 3.1162900000000207 60.24642000000001 -65.38974999999999 C 62.045550000000006 -74.77564999999998 64.93346000000001 -82.37261 65.30795 -88.26165999999999 C 65.68244 -94.15071999999999 65.28215 -97.36182 62.726670000000006 -102.62056 C 60.43274 -107.55178 49.746390000000005 -112.75077999999999 49.746390000000005 -112.75077999999999 L 46.617560000000005 -110.03182 L 41.367070000000005 -110.03182 L 23.375270000000004 -109.83377999999999 L -2.959909999999997 -121.43919 z" stroke-linecap="round" />
</g>
<g transform="matrix(1.09 0 0 1.09 353.08 265.39)" id="cUx_KpCEx61WS8n-mxtN3"  >
<path style="stroke: rgb(0,0,0); stroke-width: 1; stroke-dasharray: none; stroke-linecap: butt; stroke-dashoffset: 0; stroke-linejoin: miter; stroke-miterlimit: 4; fill: rgb(0,69,115); fill-rule: nonzero; opacity: 1;" vector-effect="non-scaling-stroke"  transform=" translate(0, 0)" d="M 6.03385 -17.23974 C 6.03385 -17.23974 4.2205 -13.34598 3.99669 -11.204460000000001 C 3.85288 -9.542930000000002 1.77394 13.7914 2.35645 16.433799999999998 C -2.95712 19.037909999999997 -6.033849999999999 16.433799999999998 -6.033849999999999 16.433799999999998 L -3.6070599999999993 -17.591190000000005 z" stroke-linecap="round" />
</g>
<g transform="matrix(1.1 0 0 1.1 354.51 246.01)" id="xvEeWiDUvIim92diznEaQ"  >
<path style="stroke: rgb(0,0,0); stroke-width: 1; stroke-dasharray: none; stroke-linecap: butt; stroke-dashoffset: 0; stroke-linejoin: miter; stroke-miterlimit: 4; fill: rgb(0,32,53); fill-rule: nonzero; opacity: 1;" vector-effect="non-scaling-stroke"  transform=" translate(0, 0)" d="M -4.87306 -0.51875 C -4.92584 -1.17413 -2.2836899999999996 -1.64992 0.46476000000000006 -1.1511300000000002 C 3.21321 -0.6523400000000001 4.88807 -0.0003300000000001635 4.87374 0.21499999999999986 C 4.816879999999999 0.9407299999999998 1.4757699999999998 1.44145 -0.8370000000000006 1.3472 C -3.1497700000000006 1.25294 -4.72161 0.3671899999999999 -4.873060000000001 -0.51875 z" stroke-linecap="round" />
</g>
<g transform="matrix(0.94 0 0 0.94 322.35 265.94)" id="DBFbxwvZug91QvOdo0qBY"  >
<path style="stroke: rgb(0,0,0); stroke-width: 1; stroke-dasharray: none; stroke-linecap: butt; stroke-dashoffset: 0; stroke-linejoin: miter; stroke-miterlimit: 4; fill: rgb(117,10,10); fill-rule: nonzero; opacity: 1;" vector-effect="non-scaling-stroke"  transform=" translate(0, 0)" d="M 9.07557 -18.04624 C 9.07557 -18.04624 12.43007 -20.890790000000003 13.216890000000001 -13.352210000000001 C 14.003700000000002 -5.813640000000001 12.291490000000001 9.39092 10.692210000000001 13.279739999999999 C 9.09293 17.16856 6.396890000000001 18.572429999999997 6.396890000000001 18.572429999999997 L -13.41439 4.343329999999996 z" stroke-linecap="round" />
</g>
<g transform="matrix(1.02 0 0 1.02 343.17 265.37)" id="4ajvL7tmvsG3hnV_kXP9x"  >
<path style="stroke: rgb(0,0,0); stroke-width: 1; stroke-dasharray: none; stroke-linecap: butt; stroke-dashoffset: 0; stroke-linejoin: miter; stroke-miterlimit: 4; fill: rgb(41,41,41); fill-rule: nonzero; opacity: 1;" vector-effect="non-scaling-stroke"  transform=" translate(0, 0)" d="M -19.12692 10.32728 L -20.36321 -5.8777300000000015 L -15.384559999999999 -10.525730000000001 C -15.384559999999999 -10.525730000000001 -2.1467599999999987 -14.48759 2.5771800000000002 -14.65662 C 6.65542 -14.96841 13.89858 -13.68732 19.156979999999997 -13.3428 C 20.629499999999997 -10.366330000000001 19.391509999999997 -7.940130000000001 18.992679999999996 -7.42475 C 16.344339999999995 -6.90746 10.108669999999996 -7.183210000000001 5.744219999999997 -7.439920000000001 L 5.744219999999997 -7.439920000000001 C 5.682669999999996 -7.4435400000000005 5.629489999999997 -7.3973700000000004 5.624429999999997 -7.335920000000001 C 5.619369999999996 -7.274470000000001 5.664289999999997 -7.22022 5.7255999999999965 -7.213730000000001 C 10.081609999999998 -6.752300000000001 16.248029999999996 -6.175940000000001 18.978009999999998 -6.459110000000001 C 21.14811 -3.325500000000001 20.442769999999996 -1.904020000000001 19.078889999999998 0.4691099999999988 C 15.719819999999999 0.8971799999999988 10.643019999999998 0.6807799999999988 6.500099999999998 0.4213199999999988 L 6.500099999999998 0.4213199999999988 C 6.418319999999998 0.4161999999999988 6.347339999999998 0.4771499999999988 6.340029999999998 0.5587599999999988 C 6.332729999999998 0.6403799999999988 6.391759999999998 0.7129599999999988 6.473149999999998 0.7224399999999989 C 10.333239999999998 1.1720399999999989 15.189479999999996 1.656839999999999 18.22048 1.5484299999999989 C 20.48313 3.949459999999999 18.940759999999997 6.8883199999999984 17.719659999999998 7.784119999999999 C 14.484879999999997 8.070649999999999 9.309819999999997 8.21093 5.163689999999997 8.278379999999999 L 5.163689999999997 8.278379999999999 C 5.043389999999997 8.280339999999999 4.946499999999997 8.377679999999998 4.945109999999997 8.497979999999998 C 4.943719999999997 8.618279999999999 5.038319999999997 8.717849999999999 5.158539999999997 8.722589999999999 C 8.790819999999997 8.865939999999998 13.323789999999997 8.948139999999999 16.17402 8.709889999999998 C 18.09999 11.963759999999997 15.996839999999999 13.433379999999998 15.996839999999999 13.433379999999998 C 15.996839999999999 13.433379999999998 11.0869 14.945659999999998 5.840549999999999 14.671929999999998 C 0.594199999999999 14.398209999999997 0.7215499999999988 14.425269999999998 -3.329240000000002 13.907669999999998 C -7.380020000000002 13.390079999999998 -7.557950000000003 12.886179999999998 -10.249550000000003 12.521209999999998 C -12.941160000000004 12.156249999999998 -14.984820000000003 11.336949999999998 -14.984820000000003 11.336949999999998 z" stroke-linecap="round" />
</g>
<g transform="matrix(0.94 0 0 0.94 275.6 213.76)" id="YrwH4dh29wXADBc0NcN5X"  >
<path style="stroke: rgb(0,0,0); stroke-width: 1; stroke-dasharray: none; stroke-linecap: butt; stroke-dashoffset: 0; stroke-linejoin: miter; stroke-miterlimit: 4; fill: rgb(196,20,20); fill-rule: nonzero; opacity: 1;" vector-effect="non-scaling-stroke"  transform=" translate(0, 0)" d="M -41.32195 -69.04923 C -41.32195 -69.04923 -45.81114 -63.172929999999994 -47.89791 -54.196619999999996 C -51.19516 -26.428369999999997 -59.6828 31.887740000000008 -59.334990000000005 35.08615 C -58.70237 41.731480000000005 -55.9461 55.77113 -40.13947 60.81008 C -12.633610000000004 63.76287 43.68245 72.00896 55.67881 74.33199 C 55.60188 72.47709 52.66451 66.57898 54.27151 53.6908 C 55.87851 40.802620000000005 58.54232 39.60085 59.34537 37.451460000000004 C 47.00068 41.717240000000004 -5.3554499999999905 28.800660000000004 -5.564790000000002 28.815770000000004 C -8.569820000000002 28.176840000000006 -11.328700000000001 22.302290000000003 -10.900940000000002 19.725500000000004 C -7.539040000000002 -0.9216299999999968 -5.195050000000002 -15.557609999999997 0.7112699999999972 -42.592879999999994 C -0.9286500000000029 -48.67359999999999 -1.7142400000000029 -59.78621 -25.513640000000002 -73.14313999999999 C -34.64501 -77.34758999999998 -41.321960000000004 -69.04923 -41.321960000000004 -69.04923 z" stroke-linecap="round" />
</g>
<g transform="matrix(0.94 0 0 0.94 339.99 263.9)" id="FtGagPzSDSLORmpOIJIb3"  >
<path style="stroke: rgb(0,0,0); stroke-width: 1; stroke-dasharray: none; stroke-linecap: butt; stroke-dashoffset: 0; stroke-linejoin: miter; stroke-miterlimit: 4; fill: rgb(0,0,0); fill-rule: nonzero; opacity: 1;" vector-effect="non-scaling-stroke"  transform=" translate(0, 0)" d="M 9.6569 -16.5488 C 9.6569 -16.5488 4.09508 -16.55671 1.6861800000000002 -16.18929 C -0.7227099999999997 -15.82187 -6.708880000000001 -11.26417 -8.40512 -8.142109999999999 C -11.37524 -2.080309999999999 -10.38638 13.72006 -10.08683 14.43007 C -9.505780000000001 15.245650000000001 -6.445820000000001 15.9037 -5.9945900000000005 16.007360000000002 C -5.54335 16.111020000000003 -2.1879500000000007 16.548810000000003 -2.1879500000000007 16.548810000000003 C -2.1879500000000007 16.548810000000003 -6.963970000000001 15.561020000000003 -7.3684400000000005 14.611960000000003 C -7.632160000000001 14.155520000000003 -8.25722 -2.245909999999995 -5.360710000000001 -7.002179999999996 C -3.101140000000001 -10.288579999999996 -0.344310000000001 -12.711569999999995 2.530569999999999 -13.696689999999997 C 5.405439999999999 -14.681819999999997 10.48665 -15.663139999999997 10.48665 -15.663139999999997 z" stroke-linecap="round" />
</g>
<g transform="matrix(0.94 0 0 0.94 287.28 118.3)" id="l1AGQ-ajw9uXN4GCUl3nc"  >
<path style="stroke: rgb(0,0,0); stroke-width: 1; stroke-dasharray: none; stroke-linecap: butt; stroke-dashoffset: 0; stroke-linejoin: miter; stroke-miterlimit: 4; fill: rgb(191,8,8); fill-rule: nonzero; opacity: 1;" vector-effect="non-scaling-stroke"  transform=" translate(0, 0)" d="M 45.01968 8.78633 C 44.8042 11.5255 43.87281 21.47451 43.28978 23.53701 C 42.70675 25.5995 39.3787 27.2675 35.76103 26.601519999999997 C 23.63897 23.689099999999996 9.553899999999999 16.883359999999996 -2.0009100000000046 11.142229999999998 C -7.558480000000005 8.291339999999998 -26.415170000000003 12.843509999999998 -34.542080000000006 15.724769999999998 C -42.66899000000001 18.606029999999997 -45.01968000000001 19.91258 -45.01968000000001 19.91258 C -45.01968000000001 19.91258 -38.03473000000001 2.132809999999999 -28.36631000000001 -11.11325 C -23.56749000000001 -17.10245 -21.523530000000008 -19.40694 -18.965570000000007 -21.43779 C -17.643940000000008 -22.48708 -15.620440000000006 -23.93291 -14.914240000000007 -24.62396 C -13.534010000000006 -25.97458 -10.435820000000007 -26.15951 -9.811440000000006 -26.4882 C -7.725680000000006 -27.586199999999998 -11.837310000000006 -25.01689 -12.807590000000006 -22.79945 C -13.777870000000007 -20.582 -13.695470000000007 -19.98289 -13.692550000000006 -17.61842 C -13.589910000000007 -14.28152 -0.9195600000000059 -3.3118800000000004 10.265869999999994 2.230219999999999 C 21.451299999999996 7.772319999999999 39.64578999999999 9.68602 40.904419999999995 9.76088 C 42.16304999999999 9.83573 44.30875999999999 10.017430000000001 45.019679999999994 8.78633 z" stroke-linecap="round" />
</g>
<g transform="matrix(0.94 0 0 0.94 307.91 67.99)" id="0ONBLAkjJvizTGCYYFQxw"  >
<path style="stroke: rgb(0,0,0); stroke-width: 1; stroke-dasharray: none; stroke-linecap: butt; stroke-dashoffset: 0; stroke-linejoin: miter; stroke-miterlimit: 4; fill: rgb(186,142,100); fill-rule: nonzero; opacity: 1;" vector-effect="non-scaling-stroke"  transform=" translate(0, 0)" d="M 0.97662 -43.24025 C 0.97662 -43.24025 -49.586600000000004 14.5015 -42.56306 23.176159999999996 C -35.53951 31.850819999999995 -28.86016 31.013299999999994 -18.34873 34.234519999999996 C -7.837299999999999 37.45574 35.668040000000005 48.944959999999995 38.383070000000004 39.736909999999995 C 39.02776 37.05564999999999 39.77347 25.117529999999995 43.061960000000006 10.537399999999995 C 46.350440000000006 -4.042730000000006 0.976620000000004 -43.24025 0.976620000000004 -43.24025 z" stroke-linecap="round" />
</g>
<g transform="matrix(0.94 0 0 0.94 294.63 88.78)" id="I4SDJYM-FCuOMEKFxjcH9"  >
<path style="stroke: rgb(0,0,0); stroke-width: 1; stroke-dasharray: none; stroke-linecap: butt; stroke-dashoffset: 0; stroke-linejoin: miter; stroke-miterlimit: 4; fill: rgb(54,47,47); fill-rule: nonzero; opacity: 1;" vector-effect="non-scaling-stroke"  transform=" translate(0, 0)" d="M 4.92501 -16.49826 C 4.64981 -9.217969999999998 6.59677 12.961570000000002 6.59677 12.961570000000002 L -1.0634999999999994 17.884 L -1.0634999999999994 17.884 C -1.1706299999999994 17.952840000000002 -1.2952799999999995 17.989440000000002 -1.4226199999999993 17.989440000000002 L -6.59676 17.989440000000002 L -3.1041199999999995 -16.498259999999995 C -3.1041199999999995 -16.498259999999995 0.1368200000000006 -17.989439999999995 2.144110000000001 -17.989439999999995 C 3.220080000000001 -17.232749999999996 4.92501 -16.498259999999995 4.92501 -16.498259999999995 z" stroke-linecap="round" />
</g>
<g transform="matrix(0.94 0 0 0.94 301.02 59.13)" id="R3KeYptwqA21Z5_Vh5Wmn"  >
<path style="stroke: rgb(0,0,0); stroke-width: 1; stroke-dasharray: none; stroke-linecap: butt; stroke-dashoffset: 0; stroke-linejoin: miter; stroke-miterlimit: 4; fill: rgb(24,27,28); fill-rule: nonzero; opacity: 1;" vector-effect="non-scaling-stroke"  transform=" translate(0, 0)" d="M 49.92138 -21.42968 C 40.994 -43.6528 14.67579 -50.355540000000005 4.331130000000002 -49.63521 C -2.2387799999999984 -49.31162 -27.26774 -46.48636 -47.69378 -18.2635 C -50.20937 -14.219740000000002 -49.910349999999994 2.06222 -49.910349999999994 2.06222 C -49.910349999999994 2.06222 -45.760459999999995 21.99003 -38.11554999999999 33.9814 C -16.142279999999992 32.24143 -25.16624999999999 61.64593 -2.6142799999999937 44.05755 C -8.719029999999993 -6.9636700000000005 0.6728900000000064 -10.319040000000001 1.9430700000000058 -11.297510000000003 C 3.096900000000006 -12.186360000000002 22.360720000000004 -24.38183 49.921380000000006 -21.429680000000005 z" stroke-linecap="round" />
</g>
<g transform="matrix(0.94 0 0 0.94 276.54 57.94)" id="_UPOpr4u4DMFq5dMgEtim"  >
<path style="stroke: rgb(0,0,0); stroke-width: 1; stroke-dasharray: none; stroke-linecap: butt; stroke-dashoffset: 0; stroke-linejoin: miter; stroke-miterlimit: 4; fill: rgb(47,40,39); fill-rule: nonzero; opacity: 1;" vector-effect="non-scaling-stroke"  transform=" translate(0, 0)" d="M -22.0763 -14.99113 C -23.88278 -8.880189999999999 -23.96831 0.1151800000000005 -23.55757 3.72584 C -21.27094 6.4707 8.351960000000002 15.56109 21.4103 14.96293 C 21.266469999999998 3.85379 23.76018 -3.979119999999998 23.76018 -3.979119999999998 C 10.861249999999998 -4.803509999999998 -14.287260000000003 -11.001069999999999 -22.076300000000003 -14.991139999999998 z" stroke-linecap="round" />
</g>
<g transform="matrix(0.94 0 0 0.94 322.87 61.26)" id="JMDo1buzcn2563Z1Qyo_n"  >
<linearGradient id="SVGID_0" gradientUnits="userSpaceOnUse" gradientTransform="matrix(1 0 0 1 -28.34 -21.15)"  x1="-14.642666933449728" y1="24.584632986465124" x2="71.3802818497661" y2="7.592139938645317">
<stop offset="0%" style="stop-color:rgb(239,0,255);stop-opacity: 1"/>
<stop offset="100%" style="stop-color:rgb(0,255,216);stop-opacity: 1"/>
</linearGradient>
<path style="stroke: rgb(0,0,0); stroke-width: 1; stroke-dasharray: none; stroke-linecap: butt; stroke-dashoffset: 0; stroke-linejoin: miter; stroke-miterlimit: 4; fill: url(#SVGID_0); fill-rule: nonzero; opacity: 1;" vector-effect="non-scaling-stroke"  transform=" translate(0, 0)" d="M -28.34287 11.92427 C -19.720080000000003 20.13505 9.248630000000002 21.15435 9.248630000000002 21.15435 C 9.248630000000002 21.15435 14.640790000000003 11.648240000000001 18.072160000000004 8.54367 C 18.072160000000004 8.54367 19.528810000000004 6.65272 21.666930000000004 8.73605 C 22.550940000000004 10.11659 23.398960000000002 12.278870000000001 24.168800000000005 14.55912 C 24.522340000000003 15.60631 25.825120000000005 19.48482 26.294070000000005 19.35249 C 27.405250000000006 18.85485 27.726850000000006 18.56014 27.778600000000004 17.84686 C 28.715580000000003 -0.0797699999999999 28.202890000000004 -18.529780000000002 28.202890000000004 -18.529780000000002 C 20.400260000000003 -24.174970000000002 -8.499649999999995 -19.963810000000002 -21.320969999999996 -12.995960000000002 C -21.320969999999996 -12.995960000000002 -28.305529999999997 -11.645980000000002 -28.342869999999994 11.924279999999998 z" stroke-linecap="round" />
</g>
<g transform="matrix(0.94 0 0 0.94 326.79 44.13)" id="zRvdQbU1YM0Lc5eXdfDn3"  >
<path style="stroke: rgb(0,0,0); stroke-width: 1; stroke-dasharray: none; stroke-linecap: butt; stroke-dashoffset: 0; stroke-linejoin: miter; stroke-miterlimit: 4; fill: rgb(15,14,14); fill-rule: nonzero; opacity: 1;" vector-effect="non-scaling-stroke"  transform=" translate(0, 0)" d="M 24.54771 4.06791 C 24.54771 4.06791 26.68388 1.5702600000000002 26.52018 -0.7280299999999995 C 26.51624 -2.6059999999999994 23.1942 -5.137969999999999 21.59714 -5.235539999999999 C -4.936309999999999 -7.127759999999999 -14.539420000000003 -0.19477999999999973 -26.52914 5.553450000000001 C -11.186220000000002 -2.72197 18.99529 -6.792839999999999 24.196029999999997 -0.5277399999999997 z" stroke-linecap="round" />
</g>
<g transform="matrix(1.05 0 0 0.87 340.9 79.36)" id="rdq-DSfoRrvc5awtS4Xhh"  >
<linearGradient id="SVGID_428_1" gradientUnits="userSpaceOnUse" gradientTransform="matrix(1 0 0 1 -4.32 -1.94)"  x1="3.4086067319983098" y1="1.6926156671309522" x2="8.194630800526744" y2="1.34979602454493">
<stop offset="0%" style="stop-color:#3E1E00;stop-opacity: 1"/>
<stop offset="100%" style="stop-color:#BA8E64;stop-opacity: 1"/>
</linearGradient>
<path style="stroke: rgb(0,0,0); stroke-width: 1; stroke-dasharray: none; stroke-linecap: butt; stroke-dashoffset: 0; stroke-linejoin: miter; stroke-miterlimit: 4; fill: url(#SVGID_428_1); fill-rule: nonzero; opacity: 1;" vector-effect="non-scaling-stroke"  transform=" translate(0, 0)" d="M -4.27315 1.5409 C -4.32751 1.6182699999999999 -4.33586 1.7283899999999999 -4.29405 1.81636 C -4.25223 1.90433 -4.16919 1.95132 -4.08633 1.9339 C -2.84188 1.67232 -0.9164700000000003 1.2076500000000001 -0.29871000000000025 1.26568 C 0.3837099999999998 1.32978 1.4547099999999997 1.67374 2.3121899999999997 1.90903 L 2.3121899999999997 1.90903 C 2.37402 1.926 2.43856 1.90023 2.47977 1.84214 L 4.3205 -0.7500899999999997 L -1.8287500000000003 -1.9374799999999996 z" stroke-linecap="round" />
</g>
<g transform="matrix(0.94 0 0 0.94 341.65 74.75)" id="iMxfdvYWGuv4XJ19PUbOc"  >
<path style="stroke: rgb(0,0,0); stroke-width: 1; stroke-dasharray: none; stroke-linecap: butt; stroke-dashoffset: 0; stroke-linejoin: miter; stroke-miterlimit: 4; fill: rgb(186,142,100); fill-rule: nonzero; opacity: 1;" vector-effect="non-scaling-stroke"  transform=" translate(0, 0)" d="M -5.19613 6.68084 C -4.15198 5.9201 -2.5281800000000003 4.92409 -0.7978700000000005 4.51829 C -0.03303000000000056 4.34342 2.0261899999999993 3.8818400000000004 3.455869999999999 3.9557400000000005 C 3.7672399999999993 3.9718300000000006 2.059599999999999 5.622140000000001 1.2902899999999993 6.364120000000001 L 1.2902899999999993 6.364120000000001 C 1.2520299999999993 6.401020000000001 1.2362499999999992 6.455470000000001 1.2488499999999993 6.5071200000000005 C 1.2614499999999993 6.55876 1.3005299999999993 6.599830000000001 1.3514899999999994 6.614960000000001 C 2.0237999999999996 6.814650000000001 2.9232899999999997 6.730330000000001 3.455869999999999 6.3177900000000005 C 3.8660799999999993 6.000030000000001 4.815519999999999 5.2100800000000005 5.976889999999999 4.11535 C 6.90978 3.00706 5.976889999999999 1.9886300000000001 5.976889999999999 1.9886300000000001 L -1.2147900000000007 -6.711889999999999 L -1.2147900000000007 -6.711889999999999 C -1.2258800000000007 -6.724999999999999 -1.2420000000000007 -6.732799999999998 -1.2591700000000008 -6.7333599999999985 C -1.2763300000000009 -6.733919999999999 -1.2929300000000008 -6.7271899999999984 -1.3048500000000007 -6.714829999999998 C -2.6591200000000006 -5.311009999999998 -4.2546800000000005 -3.669669999999998 -4.988840000000001 -2.0924499999999986 C -5.2472900000000005 -1.3686299999999987 -5.196140000000001 2.1340100000000017 -5.196140000000001 2.1340100000000017 C -5.181220000000001 3.506330000000002 -6.449120000000001 4.219260000000002 -6.389460000000001 4.997970000000002 C -6.329790000000001 5.597690000000002 -6.061300000000001 7.023920000000002 -5.196140000000001 6.6808400000000026 z" stroke-linecap="round" />
</g>
<g transform="matrix(0.94 0 0 0.94 299.52 100.66)" id="VNSGNoX_VIuZDsS3yibzT"  >
<path style="stroke: rgb(0,0,0); stroke-width: 1; stroke-dasharray: none; stroke-linecap: butt; stroke-dashoffset: 0; stroke-linejoin: miter; stroke-miterlimit: 4; fill: rgb(255,255,255); fill-opacity: 0; fill-rule: nonzero; opacity: 1;" vector-effect="non-scaling-stroke"  transform=" translate(0, 0)" d="M 1.11196 0.18922 L -1.1119700000000001 -0.18923" stroke-linecap="round" />
</g>
<g transform="matrix(1.08 0 0 1.08 337.64 96.06)" id="vH_7U6LPSR5ZBTPRgBanJ"  >
<path style="stroke: rgb(0,0,0); stroke-width: 1; stroke-dasharray: none; stroke-linecap: butt; stroke-dashoffset: 0; stroke-linejoin: miter; stroke-miterlimit: 4; fill: rgb(198,138,141); fill-rule: nonzero; opacity: 1;" vector-effect="non-scaling-stroke"  transform=" translate(0, 0)" d="M -5.86571 -1.20866 C -5.86571 -1.20866 0.09152999999999967 1.3205299999999998 3.9608000000000008 1.2048099999999997 C 4.572940000000001 1.1310699999999998 5.549580000000001 1.4627799999999997 5.821530000000001 0.19725999999999977 C 6.093480000000001 -1.0682600000000002 5.021210000000001 -1.2086600000000003 5.021210000000001 -1.2086600000000003 z" stroke-linecap="round" />
</g>
<g transform="matrix(1.06 0 0 1.06 337.67 93.39)" id="u9h8oMyXYBD4ijRxcFlJn"  >
<path style="stroke: rgb(0,0,0); stroke-width: 1; stroke-dasharray: none; stroke-linecap: butt; stroke-dashoffset: 0; stroke-linejoin: miter; stroke-miterlimit: 4; fill: rgb(198,138,141); fill-rule: nonzero; opacity: 1;" vector-effect="non-scaling-stroke"  transform=" translate(0, 0)" d="M -5.97535 1.10733 C -2.6005499999999997 0.19657999999999998 0.03864000000000001 -0.8795600000000001 2.8043000000000005 -1.27158 C 3.3247100000000005 -1.2893999999999999 3.7942500000000003 -0.9378 4.051030000000001 -0.9048099999999999 C 4.307810000000001 -0.8718299999999999 5.126320000000001 -1.18275 5.581320000000001 -0.9520299999999999 C 6.036320000000001 -0.7213099999999999 5.974740000000001 -0.50067 5.9701 0.11803000000000008 C 5.96546 0.7367300000000001 4.94153 1.27224 4.94153 1.27224 z" stroke-linecap="round" />
</g>
<g transform="matrix(1.51 0 0 1.51 328.67 556.86)" id="7QqZU40JBiE6hr4QgwQcK"  >
<path style="stroke: rgb(0,0,0); stroke-width: 1; stroke-dasharray: none; stroke-linecap: butt; stroke-dashoffset: 0; stroke-linejoin: miter; stroke-miterlimit: 4; fill: rgb(0,0,0); fill-rule: nonzero; opacity: 1;" vector-effect="non-scaling-stroke"  transform=" translate(0, 0)" d="M -0.91013 -2.00106 C -0.91013 -2.00106 -0.76211 -0.7566999999999999 -0.24307999999999996 2.00106 C 0.8099800000000001 -0.67048 0.91014 -1.8722100000000004 0.91014 -1.8722100000000004 z" stroke-linecap="round" />
</g>
<g transform="matrix(1.44 0 0 1.15 328.57 554.26)" id="J3uwh5E3PfkGWtvTt2MnT"  >
<path style="stroke: rgb(0,0,0); stroke-width: 1; stroke-dasharray: none; stroke-linecap: butt; stroke-dashoffset: 0; stroke-linejoin: miter; stroke-miterlimit: 4; fill: rgb(0,32,53); fill-rule: nonzero; opacity: 1;" vector-effect="non-scaling-stroke"  transform=" translate(0, 0)" d="M 0.14501 1.2685 C -2.00693 1.00451 -4.34795 0.33499999999999996 -4.30375 -0.48879000000000006 C -4.25955 -1.31258 -1.6717300000000002 -1.496 0.48021000000000047 -1.2320000000000002 C 2.6321500000000007 -0.9680100000000003 4.332700000000001 0.07406999999999986 4.30401 0.5671899999999999 C 4.27532 1.06032 2.29695 1.53249 0.14501000000000008 1.2685 z" stroke-linecap="round" />
</g>
<g transform="matrix(1.06 0 0 1.06 339.56 418.83)" id="VQmuM0Cde6jWv3E0Qq8JH"  >
<path style="stroke: rgb(0,0,0); stroke-width: 1; stroke-dasharray: none; stroke-linecap: butt; stroke-dashoffset: 0; stroke-linejoin: miter; stroke-miterlimit: 4; fill: rgb(0,0,0); fill-rule: nonzero; opacity: 1;" vector-effect="non-scaling-stroke"  transform=" translate(0, 0)" d="M 8.99244 -127.63836 C 8.99244 -127.63836 -11.40322 126.73568 -11.441539999999998 127.25357 C -10.627669999999998 128.0676 -9.234199999999998 127.33706 -9.234199999999998 127.33706 L 11.441540000000003 -126.94431000000002" stroke-linecap="round" />
</g>
<g transform="matrix(1 0 0 1 391.09 232.71)" id="ZTx3377mDPkqi6EAaqFHk"  >
<path style="stroke: rgb(0,0,0); stroke-width: 1; stroke-dasharray: none; stroke-linecap: butt; stroke-dashoffset: 0; stroke-linejoin: miter; stroke-miterlimit: 4; fill: rgb(0,0,0); fill-rule: nonzero; opacity: 1;" vector-effect="non-scaling-stroke"  transform=" translate(0, 0)" d="M 3.91854 1.27644 C 3.91854 1.27644 -1.44639 -0.3029599999999999 -3.9185499999999998 -0.46398000000000006 C -3.5417099999999997 -0.6752100000000001 -2.7726999999999995 -1.1188 -2.04288 -1.2735400000000001 C -0.20672999999999986 -1.3410600000000001 3.9185400000000006 -0.20595000000000008 3.9185400000000006 -0.20595000000000008 L 3.6838800000000007 1.27644" stroke-linecap="round" />
</g>
<g transform="matrix(1 0 0 1 389.83 242.13)" id="S-7HXlGIt0uzz6mLsJObQ"  >
<path style="stroke: rgb(0,0,0); stroke-width: 1; stroke-dasharray: none; stroke-linecap: butt; stroke-dashoffset: 0; stroke-linejoin: miter; stroke-miterlimit: 4; fill: rgb(0,0,0); fill-rule: nonzero; opacity: 1;" vector-effect="non-scaling-stroke"  transform=" translate(0, 0)" d="M 5.24592 -6.79736 C 5.24592 -6.79736 -2.67856 -2.16706 -4.3456399999999995 4.99331 C -4.989809999999999 6.87649 -5.245909999999999 7.64236 -5.245909999999999 7.64236 L -2.9762299999999993 7.64236 C -2.9762299999999993 7.64236 -2.7616899999999993 7.02743 -2.3564099999999994 5.43815 C -1.0624399999999994 -1.0361699999999994 5.245920000000001 -7.64235 5.245920000000001 -7.64235" stroke-linecap="round" />
</g>
</svg>