<?xml version="1.0" encoding="UTF-8" standalone="no" ?>
<!DOCTYPE svg PUBLIC "-//W3C//DTD SVG 1.1//EN" "http://www.w3.org/Graphics/SVG/1.1/DTD/svg11.dtd">
<svg xmlns="http://www.w3.org/2000/svg" xmlns:xlink="http://www.w3.org/1999/xlink" version="1.1" width="640" height="640" viewBox="0 0 640 640" xml:space="preserve">
<desc>Created with Fabric.js 5.3.0</desc>
<defs>
</defs>
<g transform="matrix(4.2806302834 0 0 2.54253477 132.64651501 168.2886694895)" id="c2z_j2_s1a7nXvdCxzj56"  >
<path style="stroke: rgb(0,0,0); stroke-width: 6; stroke-dasharray: none; stroke-linecap: butt; stroke-dashoffset: 0; stroke-linejoin: miter; stroke-miterlimit: 4; fill: rgb(255,255,255); fill-opacity: 0; fill-rule: nonzero; opacity: 1;" vector-effect="non-scaling-stroke"  transform=" translate(0, 0)" d="M 0 -65.3775 L 0 65.3775" stroke-linecap="round" />
</g>
<g transform="matrix(3.160949189 0 0 3.160949189 74.8317288925 231.4739742763)" id="KviPtbONcUdmHUPJ_AiXA"  >
<linearGradient id="SVGID_0" gradientUnits="userSpaceOnUse" gradientTransform="matrix(1 0 0 1 -17.91716 -61.7405503933)"  x1="-31.36539012441245" y1="134.63342085101598" x2="35.83431777476146" y2="23.62011720997552">
<stop offset="0%" style="stop-color:rgb(255,255,255);stop-opacity: 1"/>
<stop offset="63.78659736796707%" style="stop-color:rgb(40,40,40);stop-opacity: 1"/>
<stop offset="100%" style="stop-color:rgb(0,0,0);stop-opacity: 1"/>
</linearGradient>
<path style="stroke: rgb(0,0,0); stroke-width: 0; stroke-dasharray: none; stroke-linecap: butt; stroke-dashoffset: 0; stroke-linejoin: miter; stroke-miterlimit: 4; fill: url(#SVGID_0); fill-rule: nonzero; opacity: 0.85;" vector-effect="non-scaling-stroke"  transform=" translate(-7.805e-7, -0.0000048033)" d="M 17.72459 -19.15233 C 17.72459 -19.15233 19.65898 -1.5580099999999995 11.266079999999999 17.88617 C 3.8532399999999987 34.145160000000004 -17.917160000000003 61.74056 -17.917160000000003 61.74056 L -17.91559 15.931960000000004 C -17.91559 15.931960000000004 -4.804780000000001 1.059060000000004 4.105269999999997 -19.15233 C 12.363139999999998 -37.88433 13.626279999999998 -47.27236 17.03344 -61.47188 L 17.03344 -61.47188 C 17.07489 -61.64461 17.23902 -61.759 17.415419999999997 -61.73809 C 17.59182 -61.71718 17.724669999999996 -61.56759 17.72459 -61.38996 z" stroke-linecap="round" />
</g>
<g transform="matrix(4.2806302834 0 0 2.54253477 19.7399361317 427.1397408495)" id="2gLTu9oo101Ir29oGyvsn"  >
<path style="stroke: rgb(0,0,0); stroke-width: 6; stroke-dasharray: none; stroke-linecap: butt; stroke-dashoffset: 0; stroke-linejoin: miter; stroke-miterlimit: 4; fill: rgb(255,255,255); fill-opacity: 0; fill-rule: nonzero; opacity: 1;" vector-effect="non-scaling-stroke"  transform=" translate(0, 0)" d="M 0 -65.3775 L 0 65.3775" stroke-linecap="round" />
</g>
<g transform="matrix(1.0845537145 -0.3109907732 0.3109907732 1.0845537145 57.7998609909 307.1028255307)" id="dU-Igg7hS-KWw7Qlz5Tyq"  >
<path style="stroke: rgb(255,255,255); stroke-width: 3; stroke-dasharray: none; stroke-linecap: butt; stroke-dashoffset: 0; stroke-linejoin: miter; stroke-miterlimit: 4; fill: rgb(255,255,255); fill-opacity: 0; fill-rule: nonzero; opacity: 1;" vector-effect="non-scaling-stroke"  transform=" translate(0.0000011848, 0)" d="M 13.52776 -30.5089 C 13.52776 -30.5089 -15.491340000000001 -10.275860000000002 -13.422139999999999 -1.5854099999999995 C -11.35295 7.10505 11.46856 -7.526389999999999 13.218510000000002 0.05709000000000053 C 14.968460000000002 7.64057 -8.010769999999997 30.508899999999997 -8.010769999999997 30.508899999999997" stroke-linecap="round" />
</g>
<g transform="matrix(1.1543045422 0 0 1.1543045422 86.8724679287 262.8572356745)" id="vKFYoYxTTHukpWor6tBxD"  >
<path style="stroke: rgb(255,255,255); stroke-width: 3; stroke-dasharray: none; stroke-linecap: butt; stroke-dashoffset: 0; stroke-linejoin: miter; stroke-miterlimit: 4; fill: rgb(255,255,255); fill-opacity: 0; fill-rule: nonzero; opacity: 1;" vector-effect="non-scaling-stroke"  transform=" translate(0, -0.000005)" d="M -8.08881 -14.9012 L 8.08881 14.901209999999999" stroke-linecap="round" />
</g>
<g transform="matrix(1.1543045422 0 0 1.1543045422 77.5355150904 244.6156883827)" id="mYZdM0eTiBvPPKzAx_q2N"  >
<path style="stroke: rgb(255,255,255); stroke-width: 3; stroke-dasharray: none; stroke-linecap: butt; stroke-dashoffset: 0; stroke-linejoin: miter; stroke-miterlimit: 4; fill: rgb(255,255,255); fill-opacity: 0; fill-rule: nonzero; opacity: 1;" vector-effect="non-scaling-stroke"  transform=" translate(0, 0.000005)" d="M -7.13537 11.46671 L 7.13537 -11.46672" stroke-linecap="round" />
</g>
<g transform="matrix(1.3847585844 0.0725721223 -0.0725721223 1.3847585844 105.257653718 226.2247438946)" id="0Wjt75x-aNgG8EL-wCoZ1"  >
<path style="stroke: rgb(255,255,255); stroke-width: 3; stroke-dasharray: none; stroke-linecap: butt; stroke-dashoffset: 0; stroke-linejoin: miter; stroke-miterlimit: 4; fill: rgb(255,255,255); fill-opacity: 0; fill-rule: nonzero; opacity: 1;" vector-effect="non-scaling-stroke"  transform=" translate(0, 0.000005)" d="M 8.50236 -5.51743 L -8.50236 -16.58653 L 1.7127400000000002 16.586520000000004" stroke-linecap="round" />
</g>
<g transform="matrix(1.3024925143 0 0 1.3024925143 103.9702468528 219.556219067)" id="q4rRsA8kMtcy9R-ooWRS8"  >
<path style="stroke: rgb(255,255,255); stroke-width: 3; stroke-dasharray: none; stroke-linecap: butt; stroke-dashoffset: 0; stroke-linejoin: miter; stroke-miterlimit: 4; fill: rgb(255,255,255); fill-opacity: 0; fill-rule: nonzero; opacity: 1;" vector-effect="non-scaling-stroke"  transform=" translate(0.000005, 0)" d="M 2.19896 -6.17616 L -2.1989699999999996 6.17616" stroke-linecap="round" />
</g>
<g transform="matrix(1.4864003279 0.5118086773 -0.5118086773 1.4864003279 115.6714869967 189.1999515244)" id="9JCynr4FkcS_Yx8_ZKwi3"  >
<path style="stroke: rgb(255,255,255); stroke-width: 3; stroke-dasharray: none; stroke-linecap: butt; stroke-dashoffset: 0; stroke-linejoin: miter; stroke-miterlimit: 4; fill: rgb(255,255,255); fill-opacity: 0; fill-rule: nonzero; opacity: 1;" vector-effect="non-scaling-stroke"  transform=" translate(-0.0000097814, -0.0000034207)" d="M 8.73724 -0.95349 L -1.0094100000000008 1.58954 C -1.0094100000000008 1.58954 -4.323780000000001 -6.3739799999999995 -8.823620000000002 -7.86359 C -12.400910000000001 -9.05576 -9.414150000000001 -1.9699900000000001 -9.414150000000001 -1.9699900000000001 L 10.58254 7.9987699999999995" stroke-linecap="round" />
</g>
<g transform="matrix(0.7702832473 0 0 0.7702832473 121.5676241021 155.9284680641)" id="_JiSWGDTf9I9T48krm09w"  >
<path style="stroke: rgb(255,255,255); stroke-width: 3; stroke-dasharray: none; stroke-linecap: butt; stroke-dashoffset: 0; stroke-linejoin: miter; stroke-miterlimit: 4; fill: rgb(255,255,255); fill-opacity: 0; fill-rule: nonzero; opacity: 1;" vector-effect="non-scaling-stroke"  transform=" translate(0, 0)" d="M -10.48821 -9.79502 L 10.48821 9.79501" stroke-linecap="round" />
</g>
<g transform="matrix(0.7702832473 0 0 0.7905261794 113.8301100954 147.9614371924)" id="rXnefXavqwF_uGHq7HFsG"  >
<path style="stroke: rgb(255,255,255); stroke-width: 3; stroke-dasharray: none; stroke-linecap: butt; stroke-dashoffset: 0; stroke-linejoin: miter; stroke-miterlimit: 4; fill: rgb(255,255,255); fill-opacity: 0; fill-rule: nonzero; opacity: 1;" vector-effect="non-scaling-stroke"  transform=" translate(0, 0)" d="M -2.39052 15.9131 L 2.39052 -15.91309" stroke-linecap="round" />
</g>
</svg>