<?xml version="1.0" encoding="UTF-8" standalone="no" ?>
<!DOCTYPE svg PUBLIC "-//W3C//DTD SVG 1.1//EN" "http://www.w3.org/Graphics/SVG/1.1/DTD/svg11.dtd">
<svg xmlns="http://www.w3.org/2000/svg" xmlns:xlink="http://www.w3.org/1999/xlink" version="1.1" width="640" height="640" viewBox="0 0 640 640" xml:space="preserve">
<desc>Created with Fabric.js 5.3.0</desc>
<defs>
</defs>
<g transform="matrix(3.3785623018 0 0 3.3785623018 116.1889190333 222.4358117639)" id="2LD7458Qp_DumXi44lAb-"  >
<path style="stroke: rgb(0,0,0); stroke-width: 6; stroke-dasharray: none; stroke-linecap: butt; stroke-dashoffset: 0; stroke-linejoin: miter; stroke-miterlimit: 4; fill: rgb(255,255,255); fill-opacity: 0; fill-rule: nonzero; opacity: 1;" vector-effect="non-scaling-stroke"  transform=" translate(0, 0)" d="M 0 -65.3775 L 0 65.3775" stroke-linecap="round" />
</g>
<g transform="matrix(2.4948344195 0 0 2.4948344195 71.2786976817 177.8127909467)" id="tVaGPOgjdd9UlyO-RxlYm"  >
<linearGradient id="SVGID_0" gradientUnits="userSpaceOnUse" gradientTransform="matrix(1 0 0 1 -17.84088 -61.7405503933)"  x1="0" y1="63.32707029857518" x2="35.64174649158089" y2="63.32707029857518">
<stop offset="0%" style="stop-color:rgb(0,79,228);stop-opacity: 1"/>
<stop offset="100%" style="stop-color:rgb(12,0,198);stop-opacity: 1"/>
</linearGradient>
<path style="stroke: rgb(0,0,0); stroke-width: 0; stroke-dasharray: none; stroke-linecap: butt; stroke-dashoffset: 0; stroke-linejoin: miter; stroke-miterlimit: 4; fill: url(#SVGID_0); fill-rule: nonzero; opacity: 0.85;" vector-effect="non-scaling-stroke"  transform=" translate(-7.168e-7, -0.0000048033)" d="M 17.80087 -19.15233 C 17.80087 -19.15233 18.7552 1.6271799999999992 11.34236 17.88617 C 3.9295199999999992 34.145160000000004 -17.840880000000002 61.74056 -17.840880000000002 61.74056 L -17.83931 15.931960000000004 C -17.83931 15.931960000000004 -4.7285 1.059060000000004 4.181549999999998 -19.15233 C 12.439419999999998 -37.88433 13.702559999999998 -47.27236 17.109719999999996 -61.47188 L 17.109719999999996 -61.47188 C 17.151169999999997 -61.64461 17.315299999999997 -61.759 17.491699999999994 -61.73809 C 17.668099999999995 -61.71718 17.800949999999993 -61.56759 17.800869999999996 -61.38996 z" stroke-linecap="round" />
</g>
<g transform="matrix(3.3785623018 0 0 3.3785623018 25.5251627587 412.4805663228)" id="p7387zIj34NfAQRf25cEY"  >
<path style="stroke: rgb(0,0,0); stroke-width: 6; stroke-dasharray: none; stroke-linecap: butt; stroke-dashoffset: 0; stroke-linejoin: miter; stroke-miterlimit: 4; fill: rgb(255,255,255); fill-opacity: 0; fill-rule: nonzero; opacity: 1;" vector-effect="non-scaling-stroke"  transform=" translate(0, 0)" d="M 0 -65.3775 L 0 65.3775" stroke-linecap="round" />
</g>
</svg>