<?xml version="1.0" encoding="UTF-8" standalone="no" ?>
<!DOCTYPE svg PUBLIC "-//W3C//DTD SVG 1.1//EN" "http://www.w3.org/Graphics/SVG/1.1/DTD/svg11.dtd">
<svg xmlns="http://www.w3.org/2000/svg" xmlns:xlink="http://www.w3.org/1999/xlink" version="1.1" width="640" height="640" viewBox="0 0 640 640" xml:space="preserve">
<desc>Created with Fabric.js 5.3.0</desc>
<defs>
</defs>
<g transform="matrix(1.0842631849 0 0 1.0842631849 301.4458856732 319.3484099204)" id="_bshr8prfAYHsAZvOIBk0"  >
<path style="stroke: rgb(0,0,0); stroke-width: 5; stroke-dasharray: none; stroke-linecap: butt; stroke-dashoffset: 0; stroke-linejoin: miter; stroke-miterlimit: 4; fill: rgb(255,255,255); fill-opacity: 0.7; fill-rule: nonzero; opacity: 1;" vector-effect="non-scaling-stroke"  transform=" translate(0.000005, 0.00003)" d="M -256.00753 -126.33358 L -247.27838999999997 -120.55581 L -245.75721 -115.36254 L -235.95792 -115.36254 L -239.18924 -107.09859999999999 L -226.23659 -104.62773999999999 L -226.23659 -93.62340999999999 L -215.09453000000002 -97.87885 L -215.93018 -84.6627 L -234.59313 -79.53449 L -243.64605 -61.440490000000004 L -239.18923 -57.15231000000001 L -208.54856 -66.76769 L -200.88839000000002 -64.36355 L -200.88839000000002 -53.49528 L -229.99703000000002 -36.71961 L -237.65720000000002 -21.340790000000005 L -223.04466000000002 -18.426780000000004 L -184.33379000000002 -30.851660000000003 L -139.37994000000003 -6.098010000000002 L -122.77661000000003 -18.42678 L -99.47477000000003 -9.38427 L -84.96993000000003 -15.090790000000002 L -66.97457000000003 -4.492960000000002 L -41.94914000000003 -6.098010000000002 L -18.02016000000003 1.4852999999999978 L -68.97204000000004 5.561389999999998 L -84.96993000000003 12.249899999999997 L -102.43404000000004 8.007039999999996 L -119.41969000000003 16.454169999999998 L -132.81682000000004 6.884789999999997 L -137.60151000000005 14.540289999999997 L -161.54717000000005 26.431749999999997 L -174.93574000000004 25.066599999999998 L -187.84074000000004 30.90936 L -208.54856000000004 20.042679999999997 L -228.51059000000004 22.913489999999996 L -221.56713000000005 38.06352 L -199.35636000000005 52.930499999999995 L -195.11956000000006 64.35459999999999 L -206.04160000000007 67.1715 L -215.09452000000007 62.476659999999995 L -208.54856000000007 74.14868999999999 L -229.99703000000005 65.03187999999999 L -222.38058000000007 79.78984999999999 L -210.57420000000008 83.57079999999999 L -211.0555200000001 98.08972999999999 L -225.54020000000008 91.36009999999999 L -220.6096200000001 104.70129999999999 L -229.99703000000008 102.57614999999998 L -231.11730000000009 112.59088999999999 L -235.95791000000008 116.21372999999998 L -245.75720000000007 112.59088999999999 L -245.75720000000007 120.63989999999998 L -273.50218000000007 144.31472 L -243.64605000000006 140.00235 L -223.04465000000005 128.39321 L -218.29786000000004 134.58979000000002 L -215.93017000000003 123.90603000000002 L -203.95245000000003 119.41885000000002 L -203.95245000000003 131.90595000000002 L -197.76686000000004 133.09406 L -192.81039000000004 119.41885000000002 L -182.03632000000005 126.68381000000002 L -184.33378000000005 131.90595000000002 L -184.33378000000005 144.31471000000002 L -170.95178000000004 156.48016 L -160.00287000000003 144.31471000000002 L -160.00287000000003 119.41885000000002 L -148.81066000000004 133.09406 L -147.83742000000004 155.08413000000002 L -136.40190000000004 169.86215 L -124.47976000000004 155.08413000000002 L -122.77660000000004 129.88893000000002 L -109.91155000000005 121.85534000000001 L -109.91155000000005 116.21371 L -82.98188000000005 98.96902 L -77.67619000000005 98.96902 L -77.67619000000005 85.14865 L -51.59252000000005 68.81977 L -51.59252000000005 58.21898 L -46.06198000000005 54.143190000000004 L -45.24604000000005 43.467690000000005 L -28.994680000000052 34.78992 L -10.254620000000052 12.249850000000002 L -23.225450000000052 54.143190000000004 L -28.994680000000052 59.527640000000005 L -31.17575000000005 74.14866 L -44.13891000000005 83.57077000000001 L -46.06199000000005 106.18384 L -65.29276000000004 114.50432 L -64.09084000000004 151.25646 L -66.97458000000005 166.20202 L -99.47478000000004 185.02555 L -103.88654000000004 198.2663 L -88.59242000000003 200.82881 L -61.64913000000003 188.41746 L -38.61007000000003 189.98227 L -41.94914000000003 198.26629 L -66.97457000000003 211.87575999999999 L -70.82072000000002 225.48522999999997 L -46.06198000000002 225.48522999999997 L -28.99467000000002 211.87575999999999 L -21.03310000000002 216.90535 L -31.17575000000002 225.48523 L -28.994680000000017 229.62724 L -16.432860000000016 225.48523 L -18.020160000000015 233.76925 L -25.909200000000013 238.20712 L -18.02016000000001 240.27813 L -14.090830000000011 246.49115 L -21.03310000000001 258.32547 L -14.090830000000011 263.94677 L -18.02016000000001 269.27221000000003 L -11.686990000000012 275.48523 L -5.321750000000012 293.53257 L 6.186189999999987 269.27221000000003 L 2.8479199999999874 266.31363000000005 L 6.186189999999987 258.32546 L 10.352859999999987 253.88759000000002 L 4.7972999999999875 250.04144000000002 L 6.186189999999987 240.27813000000003 L 13.977889999999988 236.13612000000003 L 6.186189999999988 233.76926000000003 L 6.186189999999988 229.62725000000003 L 18.02102999999999 231.10654000000002 L 22.456029999999988 225.48524000000003 L 8.368729999999987 218.38465000000002 L 20.751639999999988 211.87577000000002 L 42.09888999999998 228.14796 L 60.94809999999998 225.48524 L 58.27136999999998 211.87577000000002 L 27.850099999999983 196.21889000000002 L 27.850099999999983 188.41747 L 49.64329999999998 186.99903 C 49.64329999999998 186.99903 73.79480999999998 200.82882 74.85863999999998 200.82882 C 75.92246999999998 200.82882 91.64629999999998 196.21889000000002 91.64629999999998 196.21889000000002 L 79.23494999999998 176.00612 L 58.27136999999998 164.6586 L 58.27136999999998 155.08413000000002 L 53.011589999999984 146.98295000000002 L 53.011589999999984 119.41885000000002 L 55.19412999999999 112.59088000000003 L 38.590839999999986 106.18384000000003 L 37.58580999999999 83.57077000000004 L 22.456029999999988 74.14866000000004 L 20.751639999999988 50.656200000000034 L 6.186189999999987 13.470270000000035 L 26.907419999999988 35.957710000000034 L 26.907419999999988 40.35469000000003 L 41.15672999999999 47.924250000000036 L 40.31316999999999 56.133010000000034 L 49.64328999999999 59.527640000000034 L 48.51174999999999 72.68181000000004 L 72.25761 86.40175000000004 L 70.99014 103.60687000000004 L 104.1098 119.41884000000005 L 104.1098 126.68380000000005 L 116.50296 134.58978000000005 L 116.50296 161.29918000000004 L 126.20613 174.33337000000003 L 131.88757 172.83764000000002 L 142.35766 157.66670000000002 L 142.35766 133.09405 L 154.32347000000001 122.62396000000001 L 162.34744 128.39319 L 160.73373 160.01712 L 172.40179 168.7778 L 183.54309 151.25643000000002 L 183.54309 125.82908000000002 L 189.24961000000002 123.90600000000002 L 191.50296000000003 135.44446000000002 L 197.88453000000004 135.44446000000002 L 202.29309000000003 123.90600000000002 L 204.46700000000004 136.72651000000002 L 209.90178000000003 138.43591 L 213.51150000000004 128.39317 L 219.28073000000003 129.8889 L 219.28073000000003 138.43591 L 226.74961000000005 143.13676 L 231.09744000000003 138.43591 L 235.09270000000004 143.13676 L 239.57988000000003 140.57266 L 239.57988000000003 146.12822 L 243.85338000000004 146.98292 L 245.99013000000005 140.57266 L 251.11834000000005 146.98292 L 271.58656 149.54702 L 255.82569 122.62394 L 242.35765 122.62394 L 241.15178 114.50428000000001 L 226.74961 116.21368000000001 L 224.84743999999998 111.29915000000001 L 231.09743999999998 98.96899000000002 L 222.13004999999998 94.49138000000002 L 222.13004999999998 88.52123000000002 L 206.54125 94.49138000000002 L 206.54125 88.52123000000002 L 220.77136 80.76004000000002 L 228.65178999999998 60.76004000000002 L 204.46701 60.76004000000002 L 187.89092 68.81974000000002 L 197.88452999999998 47.92422000000002 L 224.84743999999998 34.78989000000002 L 231.09743999999998 17.412520000000022 L 211.91437999999997 17.412520000000022 L 178.18303999999995 30.909300000000023 L 170.42184999999995 26.431690000000025 L 157.28751999999994 26.431690000000025 L 129.22781999999995 8.006970000000024 L 113.70542999999995 17.412520000000022 L 89.79309999999995 8.006970000000022 L 76.99538999999996 17.412520000000022 L 58.27135999999996 5.561310000000022 L 53.01157999999996 10.452610000000021 L 32.17824999999996 1.4852200000000213 L 13.977879999999963 1.4852200000000213 L 15.114759999999963 -0.9604299999999788 L 35.756069999999966 -0.9604299999999788 L 35.756069999999966 -4.493039999999979 L 46.31483999999997 -4.493039999999979 L 56.18618999999997 -11.82999999999998 L 62.932219999999965 -8.025649999999981 L 76.99538999999996 -15.090869999999981 L 89.79309999999995 -9.38434999999998 L 115.60831999999995 -21.34086999999998 L 126.20614999999995 -8.025649999999981 L 136.53223999999994 -8.025649999999981 L 168.59745999999996 -29.493039999999983 L 176.47788999999995 -34.11260999999998 L 185.44527999999994 -32.75390999999998 L 187.89092999999994 -29.493039999999983 L 192.78222999999994 -30.85173999999998 L 209.90179999999995 -21.34086999999998 L 226.74962999999994 -23.01775999999998 L 222.13005999999993 -38.46042999999998 L 192.78222999999994 -57.152369999999976 L 192.78222999999994 -64.36361999999997 L 202.29309999999995 -66.76775999999997 L 228.65179999999995 -55.17558999999997 L 241.15179999999995 -57.15237999999997 L 233.81483999999995 -76.11575999999997 L 209.90179999999995 -86.98073999999997 L 209.90179999999995 -93.62346999999997 L 215.88005999999996 -89.57728999999998 L 224.84744999999995 -89.57728999999998 L 224.84744999999995 -100.26104999999998 L 231.09744999999995 -100.26104999999998 L 231.09744999999995 -112.64520999999998 L 247.13005999999996 -115.36259999999997 L 250.11918999999995 -123.34138999999998 L 258.81483999999995 -123.34138999999998 L 258.81483999999995 -130.58372999999997 L 277.02135999999996 -143.81492999999998 L 271.58657999999997 -150.96042999999997 L 255.82570999999996 -146.04032999999998 L 241.15179999999995 -147.29659999999998 L 237.61918999999995 -140.61157999999998 L 222.13005999999996 -138.24388999999996 L 220.77135999999996 -130.58371999999997 L 214.52135999999996 -134.34416999999996 L 204.46700999999996 -133.64778999999996 L 204.46700999999996 -120.55586999999996 L 200.11917999999997 -135.73692999999994 L 192.78221999999997 -134.34416999999993 L 189.24960999999996 -120.55586999999994 L 183.54308999999995 -126.96255999999994 L 185.44525999999996 -147.29659999999996 L 181.91264999999996 -161.71967999999995 L 172.40177999999995 -168.89520999999996 L 162.34742999999995 -157.70911999999996 L 162.34742999999995 -124.73413999999995 L 153.38003999999995 -120.55586999999996 L 146.85829999999996 -133.64778999999996 L 145.15775999999997 -157.70911999999996 L 133.61929999999995 -171.84224999999995 L 123.36288999999995 -159.48426999999995 L 122.29450999999995 -134.34416999999996 L 119.73040999999995 -126.96254999999996 L 74.85861999999995 -107.09864999999996 L 72.25759999999994 -100.26103999999997 L 76.99536999999994 -84.66274999999996 L 53.918449999999936 -69.27812999999996 L 53.011569999999935 -59.66274999999996 L 43.662039999999934 -55.17556999999996 L 43.662039999999934 -47.26958999999996 L 33.191949999999935 -42.72927999999996 L 32.178229999999935 -36.71965999999996 L 4.797279999999937 -13.883119999999963 L 16.106799999999936 -40.00461999999996 L 15.114739999999935 -48.978979999999964 L 18.021009999999936 -50.90205999999996 L 19.089389999999938 -57.15234999999996 L 24.003919999999937 -57.15234999999996 L 24.003919999999937 -64.36359999999996 L 27.85006999999994 -66.76773999999996 L 27.85006999999994 -76.11573999999996 L 35.75604999999994 -79.53453999999996 L 35.75604999999994 -88.29521999999997 L 40.313149999999936 -89.57726999999997 L 40.313149999999936 -102.73023999999997 L 56.18616999999993 -110.19930999999997 L 55.19410999999993 -145.11993999999999 L 60.94807999999993 -147.29656999999997 L 60.94807999999993 -160.59612999999996 L 62.932209999999934 -164.40006999999997 L 96.86077999999993 -187.92157999999998 L 94.87664999999994 -197.81043999999997 L 72.25759999999994 -197.81043999999997 L 53.011569999999935 -186.58819999999997 C 53.011569999999935 -186.58819999999997 42.098869999999934 -185.59613999999996 42.098869999999934 -186.58819999999997 C 42.098869999999934 -187.58025999999998 40.31315999999993 -188.88311999999996 40.31315999999993 -188.88311999999996 L 32.17823999999993 -188.88311999999996 L 47.45601999999993 -199.68343999999996 L 47.45601999999993 -205.43740999999997 L 55.194119999999934 -216.54851999999997 L 50.829039999999935 -221.31041999999997 L 26.027449999999934 -217.96310999999997 L 22.456019999999935 -212.92493999999996 L 16.106809999999935 -215.52035999999995 L 26.027439999999935 -228.05644999999996 L 16.106809999999935 -232.22311999999997 L 7.178239999999935 -225.90203999999997 L 7.178239999999935 -228.85009999999997 L 15.114749999999935 -234.20723999999996 L 15.114749999999935 -238.77072999999996 L 6.1861799999999345 -243.33421999999996 L 7.178239999999935 -247.10405999999995 L 11.146489999999934 -248.29453999999996 L 10.352839999999935 -254.84215999999995 L 6.186169999999935 -254.84215999999995 L 7.178229999999935 -262.77867 L 4.797279999999935 -265.15961999999996 L 8.368709999999934 -267.54056999999995 L 8.368709999999934 -270.91358999999994 L 4.797279999999935 -272.69929999999994 L -0.7582800000000649 -293.5326299999999 L -5.321770000000065 -293.5326299999999 L -11.687010000000065 -270.9135799999999 L -14.090860000000065 -270.9135799999999 L -14.090860000000065 -243.3342099999999 L -19.619710000000065 -241.3500799999999 L -19.619710000000065 -235.1992899999999 L -16.432890000000064 -234.2072299999999 L -18.020190000000063 -230.23897999999988 L -28.99471000000006 -228.0564399999999 L -28.99471000000006 -222.23790999999989 L -21.03314000000006 -215.5203499999999 L -28.99471000000006 -212.9249299999999 L -33.24688000000006 -217.9630999999999 L -50.19344000000007 -225.9020299999999 L -68.97207000000006 -225.9020299999999 L -72.48352000000006 -214.60431999999992 L -42.71253000000006 -197.8104299999999 L -41.94917000000006 -191.85622999999993 L -38.61010000000006 -190.0241699999999 L -38.61010000000006 -187.92156999999992 L -46.06202000000006 -188.88310999999993 L -47.74471000000006 -185.27733999999992 L -59.76394000000006 -185.27733999999992 L -75.38894000000006 -193.6907999999999 L -97.02356000000006 -193.6907999999999 L -94.13894000000006 -184.07541999999992 L -65.29279000000005 -161.71964999999992 L -64.09087000000005 -147.29656999999992 L -59.76395000000005 -146.04029999999992 L -58.32164000000005 -108.42282999999992 L -44.13895000000005 -102.73022999999992 L -44.13895000000005 -78.30617999999993 L -32.44939000000005 -71.57540999999992 L -32.44939000000005 -66.76771999999993 L -28.99472000000005 -65.56579999999992 L -28.99472000000005 -57.152339999999924 L -23.22549000000005 -51.863879999999924 L -19.61972000000005 -27.104259999999922 L -14.09087000000005 -23.017719999999922 L -11.68702000000005 -13.883099999999923 L -34.04279000000005 -36.71963999999992 L -35.244710000000055 -42.72925999999992 L -54.475480000000054 -51.86387999999992 L -54.475480000000054 -71.57541999999992 L -80.52253000000005 -86.98070999999993 L -80.52253000000005 -102.73023999999992 L -77.67623000000005 -104.62776999999993 L -79.00450000000005 -108.42283999999992 L -112.02158000000006 -125.69038999999992 L -116.38591000000005 -125.69038999999992 L -129.85840000000005 -136.99038999999993 L -129.85840000000005 -157.70909999999992 L -131.56618000000006 -159.48424999999992 L -131.56618000000006 -170.0926699999999 L -142.00261000000006 -177.6827999999999 L -150.54151000000007 -164.40006999999991 L -153.00830000000008 -135.7369099999999 L -161.5472000000001 -126.9625399999999 L -164.0139900000001 -120.55584999999991 L -169.7837900000001 -125.69038999999991 L -168.1885600000001 -128.9123899999999 L -169.7837900000001 -131.9764599999999 L -174.9357600000001 -157.7090999999999 L -182.0363500000001 -159.4842499999999 L -191.69622000000012 -143.81489999999988 L -192.8104300000001 -131.9764599999999 L -199.35639000000012 -128.9123899999999 L -202.97756000000012 -130.5836999999999 L -203.95249000000013 -126.9625299999999 L -207.43438000000012 -123.3413599999999 L -208.5485900000001 -130.0265999999999 L -211.8834600000001 -125.6903899999999 L -211.8834600000001 -125.6903899999999 L -217.2192000000001 -130.5836999999999 L -223.04468000000008 -124.7341199999999 L -225.5402300000001 -130.5836999999999 L -229.9970500000001 -130.02659999999992 L -232.22546000000008 -135.7369099999999 L -232.22546000000008 -138.2438699999999 L -237.65721000000008 -138.2438699999999 L -239.18924000000007 -133.6477699999999 L -241.97476000000006 -134.3441499999999 L -243.64607000000007 -138.2438699999999 L -247.96362000000008 -136.9903899999999 L -251.44551000000007 -142.8399699999999 L -255.20596000000006 -140.6115599999999 L -277.02137000000005 -146.04030999999992 L -263.27655000000004 -132.8493799999999 C -263.27655000000004 -132.8493799999999 -263.77642000000003 -128.9217099999999 -263.27655000000004 -126.96252999999992 C -262.77668000000006 -125.00334999999991 -256.00755000000004 -126.33361999999991 -256.00755000000004 -126.33361999999991 z" stroke-linecap="round" />
</g>
</svg>