<?xml version="1.0" encoding="UTF-8" standalone="no" ?>
<!DOCTYPE svg PUBLIC "-//W3C//DTD SVG 1.1//EN" "http://www.w3.org/Graphics/SVG/1.1/DTD/svg11.dtd">
<svg xmlns="http://www.w3.org/2000/svg" xmlns:xlink="http://www.w3.org/1999/xlink" version="1.1" width="640" height="640" viewBox="0 0 640 640" xml:space="preserve">
<desc>Created with Fabric.js 5.3.0</desc>
<defs>
</defs>
<g transform="matrix(4.2806302834 0 0 2.54253477 132.64651501 168.2886694895)" id="5XX_ATTdI_cGDLf0r597f"  >
<path style="stroke: rgb(0,0,0); stroke-width: 6; stroke-dasharray: none; stroke-linecap: butt; stroke-dashoffset: 0; stroke-linejoin: miter; stroke-miterlimit: 4; fill: rgb(255,255,255); fill-opacity: 0; fill-rule: nonzero; opacity: 1;" vector-effect="non-scaling-stroke"  transform=" translate(0, 0)" d="M 0 -65.3775 L 0 65.3775" stroke-linecap="round" />
</g>
<g transform="matrix(3.160949189 0 0 3.160949189 74.8317288924 231.4739742764)" id="R9qVjTw81J7fpRc_LHLSR"  >
<linearGradient id="SVGID_0" gradientUnits="userSpaceOnUse" gradientTransform="matrix(1 0 0 1 -17.9171607805 -61.7405551966)"  x1="-31.36539012441245" y1="134.63342085101598" x2="35.83431777476146" y2="23.62011720997552">
<stop offset="0%" style="stop-color:rgb(255,255,255);stop-opacity: 1"/>
<stop offset="63.78659736796707%" style="stop-color:rgb(40,40,40);stop-opacity: 1"/>
<stop offset="100%" style="stop-color:rgb(0,0,0);stop-opacity: 1"/>
</linearGradient>
<path style="stroke: rgb(0,0,0); stroke-width: 0; stroke-dasharray: none; stroke-linecap: butt; stroke-dashoffset: 0; stroke-linejoin: miter; stroke-miterlimit: 4; fill: url(#SVGID_0); fill-rule: nonzero; opacity: 0.85;" vector-effect="non-scaling-stroke"  transform=" translate(0, 0)" d="M 17.72459 -19.15233 C 17.72459 -19.15233 19.65898 -1.5580099999999995 11.266079999999999 17.88617 C 3.8532399999999987 34.145160000000004 -17.917160000000003 61.74056 -17.917160000000003 61.74056 L -17.91559 15.931960000000004 C -17.91559 15.931960000000004 -4.804780000000001 1.059060000000004 4.105269999999997 -19.15233 C 12.363139999999998 -37.88433 13.626279999999998 -47.27236 17.03344 -61.47188 L 17.03344 -61.47188 C 17.07489 -61.64461 17.23902 -61.759 17.415419999999997 -61.73809 C 17.59182 -61.71718 17.724669999999996 -61.56759 17.72459 -61.38996 z" stroke-linecap="round" />
</g>
<g transform="matrix(4.2806302834 0 0 2.54253477 19.7399361317 427.1397408495)" id="iQp4sMEGNduAdaBH0vwce"  >
<path style="stroke: rgb(0,0,0); stroke-width: 6; stroke-dasharray: none; stroke-linecap: butt; stroke-dashoffset: 0; stroke-linejoin: miter; stroke-miterlimit: 4; fill: rgb(255,255,255); fill-opacity: 0; fill-rule: nonzero; opacity: 1;" vector-effect="non-scaling-stroke"  transform=" translate(0, 0)" d="M 0 -65.3775 L 0 65.3775" stroke-linecap="round" />
</g>
<g transform="matrix(1 0 0 1 64.4522968198 290.2237926973)" id="68_v3YCtYD3GZazY_GMUj"  >
<path style="stroke: rgb(255,255,255); stroke-width: 3; stroke-dasharray: none; stroke-linecap: butt; stroke-dashoffset: 0; stroke-linejoin: miter; stroke-miterlimit: 4; fill: rgb(255,255,255); fill-opacity: 0; fill-rule: nonzero; opacity: 1;" vector-effect="non-scaling-stroke"  transform=" translate(0, 0)" d="M -19.59953 -3.01531 L 10.37943 -42.968199999999996 L -6.78445 42.96820000000001 L 19.59953 5.276800000000009" stroke-linecap="round" />
</g>
<g transform="matrix(1 0 0 1 95.4601664866 245.2475361531)" id="-ESNWylOAtl8_ReZ0my8D"  >
<path style="stroke: rgb(255,255,255); stroke-width: 3; stroke-dasharray: none; stroke-linecap: butt; stroke-dashoffset: 0; stroke-linejoin: miter; stroke-miterlimit: 4; fill: rgb(255,255,255); fill-opacity: 0; fill-rule: nonzero; opacity: 1;" vector-effect="non-scaling-stroke"  transform=" translate(0, 0)" d="M -10.90834 -19.64626 L 10.90834 19.646269999999998" stroke-linecap="round" />
</g>
<g transform="matrix(0.9202769552 0 0 0.9202769552 109.6629334054 204.2130127401)" id="_Tq9XBGq1wu8kptxJ-EkI"  >
<path style="stroke: rgb(255,255,255); stroke-width: 3; stroke-dasharray: none; stroke-linecap: butt; stroke-dashoffset: 0; stroke-linejoin: miter; stroke-miterlimit: 4; fill: rgb(255,255,255); fill-opacity: 0; fill-rule: nonzero; opacity: 1;" vector-effect="non-scaling-stroke"  transform=" translate(0, 0)" d="M -8.28054 -24.42524 L -12.988230000000001 -0.44665999999999784 L 8.433689999999999 24.425240000000002 L 12.988229999999998 0.7217500000000037" stroke-linecap="round" />
</g>
<g transform="matrix(0.9202769552 0 0 0.9202769552 109.4230346827 206.5140480143)" id="YV9SuparsRO4AqnqtIeBL"  >
<path style="stroke: rgb(255,255,255); stroke-width: 3; stroke-dasharray: none; stroke-linecap: butt; stroke-dashoffset: 0; stroke-linejoin: miter; stroke-miterlimit: 4; fill: rgb(255,255,255); fill-opacity: 0; fill-rule: nonzero; opacity: 1;" vector-effect="non-scaling-stroke"  transform=" translate(0, 0)" d="M -2.03805 10.29328 L 2.03805 -10.29328" stroke-linecap="round" />
</g>
<g transform="matrix(1 0 0 1 118.9121349979 167.2403004374)" id="bi3uzagw1hZOTezaWs3u2"  >
<path style="stroke: rgb(255,255,255); stroke-width: 3; stroke-dasharray: none; stroke-linecap: butt; stroke-dashoffset: 0; stroke-linejoin: miter; stroke-miterlimit: 4; fill: rgb(255,255,255); fill-opacity: 0; fill-rule: nonzero; opacity: 1;" vector-effect="non-scaling-stroke"  transform=" translate(0, 0)" d="M -9.4891 -7.93226 L 7.656109999999998 7.93226 C 7.656109999999998 7.93226 9.030859999999999 -2.1406199999999993 9.489099999999999 -5.49825" stroke-linecap="round" />
</g>
</svg>